<svg width="665" height="170" viewBox="0 0 665 170" fill="none" xmlns="http://www.w3.org/2000/svg">
<g clip-path="url(#clip0_621_8865)">
<path d="M475.766 45.1624L475.656 48.5298L472.481 48.4122L472.592 45.0448L475.766 45.1624Z" fill="#D0CCDB"/>
<path d="M487.743 45.1624L487.632 48.5298L484.458 48.4122L484.569 45.0448L487.743 45.1624Z" fill="#D0CCDB"/>
<path d="M499.727 45.1624L499.617 48.5298L496.442 48.4122L496.553 45.0448L499.727 45.1624Z" fill="#D0CCDB"/>
<path d="M511.71 45.1624L511.599 48.5298L508.425 48.4122L508.536 45.0448L511.71 45.1624Z" fill="#D0CCDB"/>
<path d="M523.692 45.1624L523.581 48.5298L520.407 48.4122L520.518 45.0448L523.692 45.1624Z" fill="#D0CCDB"/>
<path d="M535.669 45.1624L535.558 48.5298L532.384 48.4122L532.495 45.0448L535.669 45.1624Z" fill="#D0CCDB"/>
<path d="M547.651 45.1624L547.54 48.5298L544.366 48.4122L544.477 45.0448L547.651 45.1624Z" fill="#D0CCDB"/>
<path d="M559.63 45.1624L559.519 48.5298L556.345 48.4122L556.456 45.0448L559.63 45.1624Z" fill="#D0CCDB"/>
<path d="M571.613 45.1624L571.502 48.5298L568.328 48.4122L568.439 45.0448L571.613 45.1624Z" fill="#D0CCDB"/>
<path d="M583.596 45.1624L583.485 48.5298L580.311 48.4122L580.421 45.0448L583.596 45.1624Z" fill="#D0CCDB"/>
<path d="M595.578 45.1624L595.467 48.5298L592.293 48.4122L592.404 45.0448L595.578 45.1624Z" fill="#D0CCDB"/>
<path d="M607.555 45.1624L607.444 48.5298L604.27 48.4122L604.38 45.0448L607.555 45.1624Z" fill="#D0CCDB"/>
<path d="M619.533 45.1624L619.422 48.5298L616.248 48.4122L616.359 45.0448L619.533 45.1624Z" fill="#D0CCDB"/>
<path d="M463.79 45.1624L463.679 48.5298L460.505 48.4122L460.616 45.0448L463.79 45.1624Z" fill="#D0CCDB"/>
<path d="M463.79 57.869L463.679 61.2363L460.505 61.1187L460.616 57.7514L463.79 57.869Z" fill="#D0CCDB"/>
<path d="M475.766 57.869L475.656 61.2363L472.481 61.1187L472.592 57.7514L475.766 57.869Z" fill="#D0CCDB"/>
<path d="M487.743 57.869L487.632 61.2363L484.458 61.1187L484.569 57.7514L487.743 57.869Z" fill="#D0CCDB"/>
<path d="M499.727 57.869L499.617 61.2363L496.442 61.1187L496.553 57.7514L499.727 57.869Z" fill="#D0CCDB"/>
<path d="M511.71 57.869L511.599 61.2363L508.425 61.1187L508.536 57.7514L511.71 57.869Z" fill="#D0CCDB"/>
<path d="M523.692 57.869L523.581 61.2363L520.407 61.1187L520.518 57.7514L523.692 57.869Z" fill="#D0CCDB"/>
<path d="M535.669 57.869L535.558 61.2363L532.384 61.1187L532.495 57.7514L535.669 57.869Z" fill="#D0CCDB"/>
<path d="M547.651 57.869L547.54 61.2363L544.366 61.1187L544.477 57.7514L547.651 57.869Z" fill="#D0CCDB"/>
<path d="M559.63 57.869L559.519 61.2363L556.345 61.1187L556.456 57.7514L559.63 57.869Z" fill="#D0CCDB"/>
<path d="M571.613 57.869L571.502 61.2363L568.328 61.1187L568.439 57.7514L571.613 57.869Z" fill="#D0CCDB"/>
<path d="M583.596 57.869L583.485 61.2363L580.311 61.1187L580.421 57.7514L583.596 57.869Z" fill="#D0CCDB"/>
<path d="M595.578 57.869L595.467 61.2363L592.293 61.1187L592.404 57.7514L595.578 57.869Z" fill="#D0CCDB"/>
<path d="M607.555 57.869L607.444 61.2363L604.27 61.1187L604.38 57.7514L607.555 57.869Z" fill="#D0CCDB"/>
<path d="M619.533 57.869L619.422 61.2363L616.248 61.1187L616.359 57.7514L619.533 57.869Z" fill="#D0CCDB"/>
<path d="M451.805 45.1624L451.694 48.5298L448.52 48.4122L448.63 45.0448L451.805 45.1624Z" fill="#D0CCDB"/>
<path d="M451.805 57.869L451.694 61.2363L448.52 61.1187L448.63 57.7514L451.805 57.869Z" fill="#D0CCDB"/>
<path d="M451.805 70.5809L451.694 73.9482L448.52 73.8307L448.63 70.4633L451.805 70.5809Z" fill="#D0CCDB"/>
<path d="M463.79 70.5809L463.679 73.9482L460.505 73.8307L460.616 70.4633L463.79 70.5809Z" fill="#D0CCDB"/>
<path d="M475.766 70.5809L475.656 73.9482L472.481 73.8307L472.592 70.4633L475.766 70.5809Z" fill="#D0CCDB"/>
<path d="M487.743 70.5809L487.632 73.9482L484.458 73.8307L484.569 70.4633L487.743 70.5809Z" fill="#D0CCDB"/>
<path d="M499.727 70.5809L499.617 73.9482L496.442 73.8307L496.553 70.4633L499.727 70.5809Z" fill="#D0CCDB"/>
<path d="M511.71 70.5809L511.599 73.9482L508.425 73.8307L508.536 70.4633L511.71 70.5809Z" fill="#D0CCDB"/>
<path d="M523.692 70.5809L523.581 73.9482L520.407 73.8307L520.518 70.4633L523.692 70.5809Z" fill="#D0CCDB"/>
<path d="M535.669 70.5809L535.558 73.9482L532.384 73.8307L532.495 70.4633L535.669 70.5809Z" fill="#D0CCDB"/>
<path d="M547.651 70.5809L547.54 73.9482L544.366 73.8307L544.477 70.4633L547.651 70.5809Z" fill="#D0CCDB"/>
<path d="M559.63 70.5809L559.519 73.9482L556.345 73.8307L556.456 70.4633L559.63 70.5809Z" fill="#D0CCDB"/>
<path d="M571.613 70.5809L571.502 73.9482L568.328 73.8307L568.439 70.4633L571.613 70.5809Z" fill="#D0CCDB"/>
<path d="M583.596 70.5809L583.485 73.9482L580.311 73.8307L580.421 70.4633L583.596 70.5809Z" fill="#D0CCDB"/>
<path d="M595.576 70.5809L595.465 73.9482L592.291 73.8307L592.402 70.4633L595.576 70.5809Z" fill="#D0CCDB"/>
<path d="M607.555 70.5809L607.444 73.9482L604.27 73.8307L604.38 70.4633L607.555 70.5809Z" fill="#D0CCDB"/>
<path d="M619.533 70.5809L619.422 73.9482L616.248 73.8307L616.359 70.4633L619.533 70.5809Z" fill="#D0CCDB"/>
<path d="M631.515 70.5809L631.405 73.9482L628.23 73.8307L628.341 70.4633L631.515 70.5809Z" fill="#D0CCDB"/>
<path d="M439.822 45.1624L439.711 48.5298L436.537 48.4122L436.648 45.0448L439.822 45.1624Z" fill="#D0CCDB"/>
<path d="M439.822 57.869L439.711 61.2363L436.537 61.1187L436.648 57.7514L439.822 57.869Z" fill="#D0CCDB"/>
<path d="M439.822 70.5809L439.711 73.9482L436.537 73.8307L436.648 70.4633L439.822 70.5809Z" fill="#D0CCDB"/>
<path d="M439.822 83.2908L439.711 86.6582L436.537 86.5406L436.648 83.1733L439.822 83.2908Z" fill="#D0CCDB"/>
<path d="M451.805 83.2908L451.694 86.6582L448.52 86.5406L448.63 83.1733L451.805 83.2908Z" fill="#D0CCDB"/>
<path d="M463.79 83.2908L463.679 86.6582L460.505 86.5406L460.616 83.1733L463.79 83.2908Z" fill="#D0CCDB"/>
<path d="M475.766 83.2908L475.656 86.6582L472.481 86.5406L472.592 83.1733L475.766 83.2908Z" fill="#D0CCDB"/>
<path d="M487.743 83.2908L487.632 86.6582L484.458 86.5406L484.569 83.1733L487.743 83.2908Z" fill="#D0CCDB"/>
<path d="M499.727 83.2908L499.617 86.6582L496.442 86.5406L496.553 83.1733L499.727 83.2908Z" fill="#D0CCDB"/>
<path d="M511.71 83.2908L511.599 86.6582L508.425 86.5406L508.536 83.1733L511.71 83.2908Z" fill="#D0CCDB"/>
<path d="M523.692 83.2908L523.581 86.6582L520.407 86.5406L520.518 83.1733L523.692 83.2908Z" fill="#D0CCDB"/>
<path d="M535.669 83.2908L535.558 86.6582L532.384 86.5406L532.495 83.1733L535.669 83.2908Z" fill="#D0CCDB"/>
<path d="M547.651 83.2908L547.54 86.6582L544.366 86.5406L544.477 83.1733L547.651 83.2908Z" fill="#D0CCDB"/>
<path d="M559.63 83.2908L559.519 86.6582L556.345 86.5406L556.456 83.1733L559.63 83.2908Z" fill="#D0CCDB"/>
<path d="M571.613 83.2908L571.502 86.6582L568.328 86.5406L568.439 83.1733L571.613 83.2908Z" fill="#D0CCDB"/>
<path d="M583.596 83.2908L583.485 86.6582L580.311 86.5406L580.421 83.1733L583.596 83.2908Z" fill="#D0CCDB"/>
<path d="M595.576 83.2908L595.465 86.6582L592.291 86.5406L592.402 83.1733L595.576 83.2908Z" fill="#D0CCDB"/>
<path d="M607.555 83.2908L607.444 86.6582L604.27 86.5406L604.38 83.1733L607.555 83.2908Z" fill="#D0CCDB"/>
<path d="M619.533 83.2908L619.422 86.6582L616.248 86.5406L616.359 83.1733L619.533 83.2908Z" fill="#D0CCDB"/>
<path d="M427.846 45.1624L427.735 48.5298L424.561 48.4122L424.671 45.0448L427.846 45.1624Z" fill="#D0CCDB"/>
<path d="M427.84 57.869L427.729 61.2363L424.555 61.1187L424.666 57.7514L427.84 57.869Z" fill="#D0CCDB"/>
<path d="M427.846 70.5809L427.735 73.9482L424.561 73.8307L424.671 70.4633L427.846 70.5809Z" fill="#D0CCDB"/>
<path d="M427.846 83.2908L427.735 86.6582L424.561 86.5406L424.671 83.1733L427.846 83.2908Z" fill="#D0CCDB"/>
<path d="M451.805 96.0013L451.694 99.3687L448.52 99.2511L448.63 95.8837L451.805 96.0013Z" fill="#D0CCDB"/>
<path d="M463.79 96.0013L463.679 99.3687L460.505 99.2511L460.616 95.8837L463.79 96.0013Z" fill="#D0CCDB"/>
<path d="M475.766 96.0013L475.656 99.3687L472.481 99.2511L472.592 95.8837L475.766 96.0013Z" fill="#D0CCDB"/>
<path d="M487.743 96.0013L487.632 99.3687L484.458 99.2511L484.569 95.8837L487.743 96.0013Z" fill="#D0CCDB"/>
<path d="M499.727 96.0013L499.617 99.3687L496.442 99.2511L496.553 95.8837L499.727 96.0013Z" fill="#D0CCDB"/>
<path d="M511.71 96.0013L511.599 99.3687L508.425 99.2511L508.536 95.8837L511.71 96.0013Z" fill="#D0CCDB"/>
<path d="M523.692 96.0013L523.581 99.3687L520.407 99.2511L520.518 95.8837L523.692 96.0013Z" fill="#D0CCDB"/>
<path d="M535.669 96.0013L535.558 99.3687L532.384 99.2511L532.495 95.8837L535.669 96.0013Z" fill="#D0CCDB"/>
<path d="M547.651 96.0013L547.54 99.3687L544.366 99.2511L544.477 95.8837L547.651 96.0013Z" fill="#D0CCDB"/>
<path d="M559.63 96.0013L559.519 99.3687L556.345 99.2511L556.456 95.8837L559.63 96.0013Z" fill="#D0CCDB"/>
<path d="M571.613 96.0013L571.502 99.3687L568.328 99.2511L568.439 95.8837L571.613 96.0013Z" fill="#D0CCDB"/>
<path d="M583.596 96.0013L583.485 99.3687L580.311 99.2511L580.421 95.8837L583.596 96.0013Z" fill="#D0CCDB"/>
<path d="M595.576 96.0013L595.465 99.3687L592.291 99.2511L592.402 95.8837L595.576 96.0013Z" fill="#D0CCDB"/>
<path d="M607.555 96.0013L607.444 99.3687L604.27 99.2511L604.38 95.8837L607.555 96.0013Z" fill="#D0CCDB"/>
<path d="M655.822 96.0013L655.711 99.3687L652.537 99.2511L652.648 95.8837L655.822 96.0013Z" fill="#D0CCDB"/>
<path d="M415.863 45.1624L415.752 48.5298L412.578 48.4122L412.689 45.0448L415.863 45.1624Z" fill="#D0CCDB"/>
<path d="M415.863 57.869L415.752 61.2363L412.578 61.1187L412.689 57.7514L415.863 57.869Z" fill="#D0CCDB"/>
<path d="M415.863 70.5809L415.752 73.9482L412.578 73.8307L412.689 70.4633L415.863 70.5809Z" fill="#D0CCDB"/>
<path d="M415.863 83.2908L415.752 86.6582L412.578 86.5406L412.689 83.1733L415.863 83.2908Z" fill="#D0CCDB"/>
<path d="M451.805 108.713L451.694 112.081L448.52 111.963L448.63 108.596L451.805 108.713Z" fill="#D0CCDB"/>
<path d="M3.28499 26.2891L3.17414 29.6565L-5.14021e-09 29.5389L0.110843 26.1715L3.28499 26.2891Z" fill="#D0CCDB"/>
<path d="M463.79 108.713L463.679 112.081L460.505 111.963L460.616 108.596L463.79 108.713Z" fill="#D0CCDB"/>
<path d="M15.2694 26.2889L15.1585 29.6562L11.9844 29.5387L12.0952 26.1713L15.2694 26.2889Z" fill="#D0CCDB"/>
<path d="M475.766 108.713L475.656 112.081L472.481 111.963L472.592 108.596L475.766 108.713Z" fill="#D0CCDB"/>
<path d="M27.2459 26.2889L27.1351 29.6562L23.9609 29.5387L24.0718 26.1713L27.2459 26.2889Z" fill="#D0CCDB"/>
<path d="M487.743 108.713L487.632 112.081L484.458 111.963L484.569 108.596L487.743 108.713Z" fill="#D0CCDB"/>
<path d="M39.2225 26.2889L39.1116 29.6562L35.9375 29.5387L36.0483 26.1713L39.2225 26.2889Z" fill="#D0CCDB"/>
<path d="M499.727 108.713L499.617 112.081L496.442 111.963L496.553 108.596L499.727 108.713Z" fill="#D0CCDB"/>
<path d="M51.2069 26.2889L51.096 29.6562L47.9219 29.5387L48.0327 26.1713L51.2069 26.2889Z" fill="#D0CCDB"/>
<path d="M511.71 108.713L511.599 112.081L508.425 111.963L508.536 108.596L511.71 108.713Z" fill="#D0CCDB"/>
<path d="M63.1903 26.2889L63.0794 29.6562L59.9053 29.5387L60.0161 26.1713L63.1903 26.2889Z" fill="#D0CCDB"/>
<path d="M523.692 108.713L523.581 112.081L520.407 111.963L520.518 108.596L523.692 108.713Z" fill="#D0CCDB"/>
<path d="M75.1727 26.2889L75.0618 29.6562L71.8877 29.5387L71.9985 26.1713L75.1727 26.2889Z" fill="#D0CCDB"/>
<path d="M535.669 108.713L535.558 112.081L532.384 111.963L532.495 108.596L535.669 108.713Z" fill="#D0CCDB"/>
<path d="M87.1492 26.2889L87.0384 29.6562L83.8643 29.5387L83.9751 26.1713L87.1492 26.2889Z" fill="#D0CCDB"/>
<path d="M547.651 108.713L547.54 112.081L544.366 111.963L544.477 108.596L547.651 108.713Z" fill="#D0CCDB"/>
<path d="M99.1317 26.2889L99.0208 29.6562L95.8467 29.5387L95.9575 26.1713L99.1317 26.2889Z" fill="#D0CCDB"/>
<path d="M559.63 108.713L559.519 112.081L556.345 111.963L556.456 108.596L559.63 108.713Z" fill="#D0CCDB"/>
<path d="M111.11 26.2889L110.999 29.6562L107.825 29.5387L107.936 26.1713L111.11 26.2889Z" fill="#D0CCDB"/>
<path d="M571.613 108.713L571.502 112.081L568.328 111.963L568.439 108.596L571.613 108.713Z" fill="#D0CCDB"/>
<path d="M123.093 26.2889L122.982 29.6562L119.808 29.5387L119.918 26.1713L123.093 26.2889Z" fill="#D0CCDB"/>
<path d="M583.596 108.713L583.485 112.081L580.311 111.963L580.421 108.596L583.596 108.713Z" fill="#D0CCDB"/>
<path d="M135.075 26.2889L134.964 29.6562L131.79 29.5387L131.901 26.1713L135.075 26.2889Z" fill="#D0CCDB"/>
<path d="M595.576 108.713L595.465 112.081L592.291 111.963L592.402 108.596L595.576 108.713Z" fill="#D0CCDB"/>
<path d="M147.057 26.2889L146.947 29.6562L143.772 29.5387L143.883 26.1713L147.057 26.2889Z" fill="#D0CCDB"/>
<path d="M607.555 108.713L607.444 112.081L604.27 111.963L604.38 108.596L607.555 108.713Z" fill="#D0CCDB"/>
<path d="M159.034 26.2889L158.923 29.6562L155.749 29.5387L155.86 26.1713L159.034 26.2889Z" fill="#D0CCDB"/>
<path d="M403.885 45.1624L403.774 48.5298L400.6 48.4122L400.71 45.0448L403.885 45.1624Z" fill="#D0CCDB"/>
<path d="M403.885 57.869L403.774 61.2363L400.6 61.1187L400.71 57.7514L403.885 57.869Z" fill="#D0CCDB"/>
<path d="M403.885 70.5809L403.774 73.9482L400.6 73.8307L400.71 70.4633L403.885 70.5809Z" fill="#D0CCDB"/>
<path d="M403.885 83.2908L403.774 86.6582L400.6 86.5406L400.71 83.1733L403.885 83.2908Z" fill="#D0CCDB"/>
<path d="M451.805 121.423L451.694 124.791L448.52 124.673L448.63 121.306L451.805 121.423Z" fill="#D0CCDB"/>
<path d="M3.28499 38.9991L3.17414 42.3665L-5.14005e-09 42.2489L0.110843 38.8815L3.28499 38.9991Z" fill="#D0CCDB"/>
<path d="M463.79 121.423L463.679 124.791L460.505 124.673L460.616 121.306L463.79 121.423Z" fill="#D0CCDB"/>
<path d="M15.2694 38.9993L15.1585 42.3667L11.9844 42.2491L12.0952 38.8818L15.2694 38.9993Z" fill="#D0CCDB"/>
<path d="M475.766 121.423L475.656 124.791L472.481 124.673L472.592 121.306L475.766 121.423Z" fill="#D0CCDB"/>
<path d="M27.2459 38.9993L27.1351 42.3667L23.9609 42.2491L24.0718 38.8818L27.2459 38.9993Z" fill="#D0CCDB"/>
<path d="M487.743 121.423L487.632 124.791L484.458 124.673L484.569 121.306L487.743 121.423Z" fill="#D0CCDB"/>
<path d="M39.2225 38.9993L39.1116 42.3667L35.9375 42.2491L36.0483 38.8818L39.2225 38.9993Z" fill="#D0CCDB"/>
<path d="M499.727 121.423L499.617 124.791L496.442 124.673L496.553 121.306L499.727 121.423Z" fill="#D0CCDB"/>
<path d="M51.2069 38.9993L51.096 42.3667L47.9219 42.2491L48.0327 38.8818L51.2069 38.9993Z" fill="#D0CCDB"/>
<path d="M511.71 121.423L511.599 124.791L508.425 124.673L508.536 121.306L511.71 121.423Z" fill="#D0CCDB"/>
<path d="M63.1903 38.9993L63.0794 42.3667L59.9053 42.2491L60.0161 38.8818L63.1903 38.9993Z" fill="#D0CCDB"/>
<path d="M523.692 121.423L523.581 124.791L520.407 124.673L520.518 121.306L523.692 121.423Z" fill="#D0CCDB"/>
<path d="M75.1727 38.9993L75.0618 42.3667L71.8877 42.2491L71.9985 38.8818L75.1727 38.9993Z" fill="#D0CCDB"/>
<path d="M535.669 121.423L535.558 124.791L532.384 124.673L532.495 121.306L535.669 121.423Z" fill="#D0CCDB"/>
<path d="M87.1492 38.9993L87.0384 42.3667L83.8643 42.2491L83.9751 38.8818L87.1492 38.9993Z" fill="#D0CCDB"/>
<path d="M547.651 121.423L547.54 124.791L544.366 124.673L544.477 121.306L547.651 121.423Z" fill="#D0CCDB"/>
<path d="M99.1317 38.9993L99.0208 42.3667L95.8467 42.2491L95.9575 38.8818L99.1317 38.9993Z" fill="#D0CCDB"/>
<path d="M559.63 121.423L559.519 124.791L556.345 124.673L556.456 121.306L559.63 121.423Z" fill="#D0CCDB"/>
<path d="M111.11 38.9993L110.999 42.3667L107.825 42.2491L107.936 38.8818L111.11 38.9993Z" fill="#D0CCDB"/>
<path d="M571.613 121.423L571.502 124.791L568.328 124.673L568.439 121.306L571.613 121.423Z" fill="#D0CCDB"/>
<path d="M123.093 38.9993L122.982 42.3667L119.808 42.2491L119.918 38.8818L123.093 38.9993Z" fill="#D0CCDB"/>
<path d="M583.596 121.423L583.485 124.791L580.311 124.673L580.421 121.306L583.596 121.423Z" fill="#D0CCDB"/>
<path d="M135.075 38.9993L134.964 42.3667L131.79 42.2491L131.901 38.8818L135.075 38.9993Z" fill="#D0CCDB"/>
<path d="M595.576 121.423L595.465 124.791L592.291 124.673L592.402 121.306L595.576 121.423Z" fill="#D0CCDB"/>
<path d="M147.057 38.9993L146.947 42.3667L143.772 42.2491L143.883 38.8818L147.057 38.9993Z" fill="#D0CCDB"/>
<path d="M607.555 121.423L607.444 124.791L604.27 124.673L604.38 121.306L607.555 121.423Z" fill="#D0CCDB"/>
<path d="M159.034 38.9993L158.923 42.3667L155.749 42.2491L155.86 38.8818L159.034 38.9993Z" fill="#D0CCDB"/>
<path d="M451.805 134.129L451.694 137.497L448.52 137.379L448.63 134.012L451.805 134.129Z" fill="#D0CCDB"/>
<path d="M3.28499 51.7054L3.17414 55.0728L-5.14005e-09 54.9552L0.110843 51.5878L3.28499 51.7054Z" fill="#D0CCDB"/>
<path d="M463.79 134.129L463.679 137.497L460.505 137.379L460.616 134.012L463.79 134.129Z" fill="#D0CCDB"/>
<path d="M15.2694 51.7054L15.1585 55.0728L11.9844 54.9552L12.0952 51.5878L15.2694 51.7054Z" fill="#D0CCDB"/>
<path d="M475.766 134.129L475.656 137.497L472.481 137.379L472.592 134.012L475.766 134.129Z" fill="#D0CCDB"/>
<path d="M27.2459 51.7054L27.1351 55.0728L23.9609 54.9552L24.0718 51.5878L27.2459 51.7054Z" fill="#D0CCDB"/>
<path d="M487.743 134.129L487.632 137.497L484.458 137.379L484.569 134.012L487.743 134.129Z" fill="#D0CCDB"/>
<path d="M39.2225 51.7054L39.1116 55.0728L35.9375 54.9552L36.0483 51.5878L39.2225 51.7054Z" fill="#D0CCDB"/>
<path d="M499.727 134.129L499.617 137.497L496.442 137.379L496.553 134.012L499.727 134.129Z" fill="#D0CCDB"/>
<path d="M51.2069 51.7054L51.096 55.0728L47.9219 54.9552L48.0327 51.5878L51.2069 51.7054Z" fill="#D0CCDB"/>
<path d="M511.71 134.129L511.599 137.497L508.425 137.379L508.536 134.012L511.71 134.129Z" fill="#D0CCDB"/>
<path d="M63.1903 51.7054L63.0794 55.0728L59.9053 54.9552L60.0161 51.5878L63.1903 51.7054Z" fill="#D0CCDB"/>
<path d="M523.692 134.129L523.581 137.497L520.407 137.379L520.518 134.012L523.692 134.129Z" fill="#D0CCDB"/>
<path d="M75.1727 51.7054L75.0618 55.0728L71.8877 54.9552L71.9985 51.5878L75.1727 51.7054Z" fill="#D0CCDB"/>
<path d="M535.669 134.129L535.558 137.497L532.384 137.379L532.495 134.012L535.669 134.129Z" fill="#D0CCDB"/>
<path d="M87.1492 51.7054L87.0384 55.0728L83.8643 54.9552L83.9751 51.5878L87.1492 51.7054Z" fill="#D0CCDB"/>
<path d="M547.651 134.129L547.54 137.497L544.366 137.379L544.477 134.012L547.651 134.129Z" fill="#D0CCDB"/>
<path d="M99.1317 51.7054L99.0208 55.0728L95.8467 54.9552L95.9575 51.5878L99.1317 51.7054Z" fill="#D0CCDB"/>
<path d="M559.63 134.129L559.519 137.497L556.345 137.379L556.456 134.012L559.63 134.129Z" fill="#D0CCDB"/>
<path d="M111.11 51.7054L110.999 55.0728L107.825 54.9552L107.936 51.5878L111.11 51.7054Z" fill="#D0CCDB"/>
<path d="M571.613 134.129L571.502 137.497L568.328 137.379L568.439 134.012L571.613 134.129Z" fill="#D0CCDB"/>
<path d="M123.093 51.7054L122.982 55.0728L119.808 54.9552L119.918 51.5878L123.093 51.7054Z" fill="#D0CCDB"/>
<path d="M583.596 134.129L583.485 137.497L580.311 137.379L580.421 134.012L583.596 134.129Z" fill="#D0CCDB"/>
<path d="M135.075 51.7054L134.964 55.0728L131.79 54.9552L131.901 51.5878L135.075 51.7054Z" fill="#D0CCDB"/>
<path d="M595.576 134.129L595.465 137.497L592.291 137.379L592.402 134.012L595.576 134.129Z" fill="#D0CCDB"/>
<path d="M147.057 51.7054L146.947 55.0728L143.772 54.9552L143.883 51.5878L147.057 51.7054Z" fill="#D0CCDB"/>
<path d="M607.555 134.129L607.444 137.497L604.27 137.379L604.38 134.012L607.555 134.129Z" fill="#D0CCDB"/>
<path d="M159.034 51.7054L158.923 55.0728L155.749 54.9552L155.86 51.5878L159.034 51.7054Z" fill="#D0CCDB"/>
<path d="M457.93 114.629L457.819 117.996L454.645 117.879L454.755 114.511L457.93 114.629Z" fill="#D0CCDB"/>
<path d="M9.40901 32.2049L9.29816 35.5723L6.12402 35.4547L6.23487 32.0873L9.40901 32.2049Z" fill="#D0CCDB"/>
<path d="M469.913 114.629L469.802 117.996L466.628 117.879L466.739 114.511L469.913 114.629Z" fill="#D0CCDB"/>
<path d="M21.3934 32.2049L21.2825 35.5723L18.1084 35.4547L18.2192 32.0873L21.3934 32.2049Z" fill="#D0CCDB"/>
<path d="M481.89 114.629L481.78 117.996L478.605 117.879L478.716 114.511L481.89 114.629Z" fill="#D0CCDB"/>
<path d="M33.3699 32.2049L33.2591 35.5723L30.085 35.4547L30.1958 32.0873L33.3699 32.2049Z" fill="#D0CCDB"/>
<path d="M493.867 114.629L493.756 117.996L490.582 117.879L490.693 114.511L493.867 114.629Z" fill="#D0CCDB"/>
<path d="M45.3465 32.2049L45.2357 35.5723L42.0615 35.4547L42.1724 32.0873L45.3465 32.2049Z" fill="#D0CCDB"/>
<path d="M505.851 114.629L505.741 117.996L502.566 117.879L502.677 114.511L505.851 114.629Z" fill="#D0CCDB"/>
<path d="M57.3319 32.2049L57.221 35.5723L54.0469 35.4547L54.1577 32.0873L57.3319 32.2049Z" fill="#D0CCDB"/>
<path d="M517.834 114.629L517.723 117.996L514.549 117.879L514.66 114.511L517.834 114.629Z" fill="#D0CCDB"/>
<path d="M69.3143 32.2049L69.2034 35.5723L66.0293 35.4547L66.1401 32.0873L69.3143 32.2049Z" fill="#D0CCDB"/>
<path d="M529.816 114.629L529.705 117.996L526.531 117.879L526.642 114.511L529.816 114.629Z" fill="#D0CCDB"/>
<path d="M81.2967 32.2049L81.1859 35.5723L78.0117 35.4547L78.1226 32.0873L81.2967 32.2049Z" fill="#D0CCDB"/>
<path d="M541.793 114.629L541.682 117.996L538.508 117.879L538.619 114.511L541.793 114.629Z" fill="#D0CCDB"/>
<path d="M93.2733 32.2049L93.1624 35.5723L89.9883 35.4547L90.0991 32.0873L93.2733 32.2049Z" fill="#D0CCDB"/>
<path d="M553.775 114.629L553.664 117.996L550.49 117.879L550.601 114.511L553.775 114.629Z" fill="#D0CCDB"/>
<path d="M105.256 32.2049L105.145 35.5723L101.971 35.4547L102.082 32.0873L105.256 32.2049Z" fill="#D0CCDB"/>
<path d="M565.755 114.629L565.644 117.996L562.47 117.879L562.581 114.511L565.755 114.629Z" fill="#D0CCDB"/>
<path d="M117.234 32.2049L117.123 35.5723L113.949 35.4547L114.06 32.0873L117.234 32.2049Z" fill="#D0CCDB"/>
<path d="M577.736 114.629L577.625 117.996L574.451 117.879L574.562 114.511L577.736 114.629Z" fill="#D0CCDB"/>
<path d="M129.217 32.2049L129.106 35.5723L125.932 35.4547L126.042 32.0873L129.217 32.2049Z" fill="#D0CCDB"/>
<path d="M589.719 114.629L589.608 117.996L586.434 117.879L586.544 114.511L589.719 114.629Z" fill="#D0CCDB"/>
<path d="M141.199 32.2049L141.088 35.5723L137.914 35.4547L138.025 32.0873L141.199 32.2049Z" fill="#D0CCDB"/>
<path d="M601.701 114.629L601.59 117.996L598.416 117.879L598.527 114.511L601.701 114.629Z" fill="#D0CCDB"/>
<path d="M153.181 32.2049L153.071 35.5723L149.896 35.4547L150.007 32.0873L153.181 32.2049Z" fill="#D0CCDB"/>
<path d="M613.68 114.629L613.569 117.996L610.395 117.879L610.505 114.511L613.68 114.629Z" fill="#D0CCDB"/>
<path d="M165.159 32.2049L165.048 35.5723L161.874 35.4547L161.985 32.0873L165.159 32.2049Z" fill="#D0CCDB"/>
<path d="M457.93 127.339L457.819 130.706L454.645 130.588L454.755 127.221L457.93 127.339Z" fill="#D0CCDB"/>
<path d="M9.40901 44.9149L9.29816 48.2822L6.12402 48.1646L6.23487 44.7973L9.40901 44.9149Z" fill="#D0CCDB"/>
<path d="M469.913 127.339L469.802 130.706L466.628 130.588L466.739 127.221L469.913 127.339Z" fill="#D0CCDB"/>
<path d="M21.3934 44.9149L21.2825 48.2822L18.1084 48.1646L18.2192 44.7973L21.3934 44.9149Z" fill="#D0CCDB"/>
<path d="M481.89 127.339L481.78 130.706L478.605 130.588L478.716 127.221L481.89 127.339Z" fill="#D0CCDB"/>
<path d="M33.3699 44.9149L33.2591 48.2822L30.085 48.1646L30.1958 44.7973L33.3699 44.9149Z" fill="#D0CCDB"/>
<path d="M493.867 127.339L493.756 130.706L490.582 130.588L490.693 127.221L493.867 127.339Z" fill="#D0CCDB"/>
<path d="M45.3465 44.9149L45.2357 48.2822L42.0615 48.1646L42.1724 44.7973L45.3465 44.9149Z" fill="#D0CCDB"/>
<path d="M505.851 127.339L505.741 130.706L502.566 130.588L502.677 127.221L505.851 127.339Z" fill="#D0CCDB"/>
<path d="M57.3319 44.9149L57.221 48.2822L54.0469 48.1646L54.1577 44.7973L57.3319 44.9149Z" fill="#D0CCDB"/>
<path d="M517.834 127.339L517.723 130.706L514.549 130.588L514.66 127.221L517.834 127.339Z" fill="#D0CCDB"/>
<path d="M69.3143 44.9149L69.2034 48.2822L66.0293 48.1646L66.1401 44.7973L69.3143 44.9149Z" fill="#D0CCDB"/>
<path d="M529.816 127.339L529.705 130.706L526.531 130.588L526.642 127.221L529.816 127.339Z" fill="#D0CCDB"/>
<path d="M81.2967 44.9149L81.1859 48.2822L78.0117 48.1646L78.1226 44.7973L81.2967 44.9149Z" fill="#D0CCDB"/>
<path d="M541.793 127.339L541.682 130.706L538.508 130.588L538.619 127.221L541.793 127.339Z" fill="#D0CCDB"/>
<path d="M93.2733 44.9149L93.1624 48.2822L89.9883 48.1646L90.0991 44.7973L93.2733 44.9149Z" fill="#D0CCDB"/>
<path d="M553.775 127.339L553.664 130.706L550.49 130.588L550.601 127.221L553.775 127.339Z" fill="#D0CCDB"/>
<path d="M105.256 44.9149L105.145 48.2822L101.971 48.1646L102.082 44.7973L105.256 44.9149Z" fill="#D0CCDB"/>
<path d="M565.755 127.339L565.644 130.706L562.47 130.588L562.581 127.221L565.755 127.339Z" fill="#D0CCDB"/>
<path d="M117.234 44.9149L117.123 48.2822L113.949 48.1646L114.06 44.7973L117.234 44.9149Z" fill="#D0CCDB"/>
<path d="M577.736 127.339L577.625 130.706L574.451 130.588L574.562 127.221L577.736 127.339Z" fill="#D0CCDB"/>
<path d="M129.217 44.9149L129.106 48.2822L125.932 48.1646L126.042 44.7973L129.217 44.9149Z" fill="#D0CCDB"/>
<path d="M589.719 127.339L589.608 130.706L586.434 130.588L586.544 127.221L589.719 127.339Z" fill="#D0CCDB"/>
<path d="M141.199 44.9149L141.088 48.2822L137.914 48.1646L138.025 44.7973L141.199 44.9149Z" fill="#D0CCDB"/>
<path d="M601.701 127.339L601.59 130.706L598.416 130.588L598.527 127.221L601.701 127.339Z" fill="#D0CCDB"/>
<path d="M153.181 44.9149L153.071 48.2822L149.896 48.1646L150.007 44.7973L153.181 44.9149Z" fill="#D0CCDB"/>
<path d="M613.68 127.339L613.569 130.706L610.395 130.588L610.505 127.221L613.68 127.339Z" fill="#D0CCDB"/>
<path d="M165.159 44.9149L165.048 48.2822L161.874 48.1646L161.985 44.7973L165.159 44.9149Z" fill="#D0CCDB"/>
<path d="M506.97 0.615056L506.859 3.98242L503.685 3.86484L503.795 0.497469L506.97 0.615056Z" fill="#D0CCDB"/>
<path d="M459.05 0.615056L458.939 3.98242L455.765 3.86484L455.875 0.497469L459.05 0.615056Z" fill="#D0CCDB"/>
<path d="M471.032 0.615056L470.921 3.98242L467.747 3.86484L467.858 0.497469L471.032 0.615056Z" fill="#D0CCDB"/>
<path d="M483.009 0.615056L482.898 3.98242L479.724 3.86484L479.835 0.497469L483.009 0.615056Z" fill="#D0CCDB"/>
<path d="M494.991 0.615056L494.88 3.98242L491.706 3.86484L491.817 0.497469L494.991 0.615056Z" fill="#D0CCDB"/>
<path d="M518.952 13.3216L518.841 16.689L515.667 16.5714L515.778 13.204L518.952 13.3216Z" fill="#D0CCDB"/>
<path d="M518.952 0.615056L518.841 3.98242L515.667 3.86484L515.778 0.497469L518.952 0.615056Z" fill="#D0CCDB"/>
<path d="M459.05 13.3216L458.939 16.689L455.765 16.5714L455.875 13.204L459.05 13.3216Z" fill="#D0CCDB"/>
<path d="M471.032 13.3216L470.921 16.689L467.747 16.5714L467.858 13.204L471.032 13.3216Z" fill="#D0CCDB"/>
<path d="M483.009 13.3216L482.898 16.689L479.724 16.5714L479.835 13.204L483.009 13.3216Z" fill="#D0CCDB"/>
<path d="M494.991 13.3216L494.88 16.689L491.706 16.5714L491.817 13.204L494.991 13.3216Z" fill="#D0CCDB"/>
<path d="M506.97 13.3216L506.859 16.689L503.685 16.5714L503.795 13.204L506.97 13.3216Z" fill="#D0CCDB"/>
<path d="M530.934 26.0316L530.824 29.3989L527.649 29.2813L527.76 25.914L530.934 26.0316Z" fill="#D0CCDB"/>
<path d="M530.934 13.3216L530.824 16.689L527.649 16.5714L527.76 13.204L530.934 13.3216Z" fill="#D0CCDB"/>
<path d="M530.934 0.615056L530.824 3.98242L527.649 3.86484L527.76 0.497469L530.934 0.615056Z" fill="#D0CCDB"/>
<path d="M459.05 26.0316L458.939 29.3989L455.765 29.2813L455.875 25.914L459.05 26.0316Z" fill="#D0CCDB"/>
<path d="M471.032 26.0316L470.921 29.3989L467.747 29.2813L467.858 25.914L471.032 26.0316Z" fill="#D0CCDB"/>
<path d="M483.009 26.0316L482.898 29.3989L479.724 29.2813L479.835 25.914L483.009 26.0316Z" fill="#D0CCDB"/>
<path d="M494.991 26.0316L494.88 29.3989L491.706 29.2813L491.817 25.914L494.991 26.0316Z" fill="#D0CCDB"/>
<path d="M506.97 26.0316L506.859 29.3989L503.685 29.2813L503.795 25.914L506.97 26.0316Z" fill="#D0CCDB"/>
<path d="M518.952 26.0316L518.841 29.3989L515.667 29.2813L515.778 25.914L518.952 26.0316Z" fill="#D0CCDB"/>
<path d="M542.918 26.0316L542.807 29.3989L539.633 29.2813L539.744 25.914L542.918 26.0316Z" fill="#D0CCDB"/>
<path d="M542.918 13.3216L542.807 16.689L539.633 16.5714L539.744 13.204L542.918 13.3216Z" fill="#D0CCDB"/>
<path d="M542.918 0.615056L542.807 3.98242L539.633 3.86484L539.744 0.497469L542.918 0.615056Z" fill="#D0CCDB"/>
<path d="M218.504 0.117993L218.393 3.48535L215.219 3.36776L215.33 0.000406499L218.504 0.117993Z" fill="#D0CCDB"/>
<path d="M230.486 0.117993L230.375 3.48535L227.201 3.36776L227.312 0.000406499L230.486 0.117993Z" fill="#D0CCDB"/>
<path d="M242.465 0.117993L242.354 3.48535L239.18 3.36776L239.291 0.000406499L242.465 0.117993Z" fill="#D0CCDB"/>
<path d="M254.441 0.117993L254.33 3.48535L251.156 3.36776L251.267 0.000406499L254.441 0.117993Z" fill="#D0CCDB"/>
<path d="M266.424 0.117993L266.313 3.48535L263.139 3.36776L263.249 0.000406499L266.424 0.117993Z" fill="#D0CCDB"/>
<path d="M278.406 0.117993L278.295 3.48535L275.121 3.36776L275.232 0.000406499L278.406 0.117993Z" fill="#D0CCDB"/>
<path d="M290.386 0.117993L290.275 3.48535L287.101 3.36776L287.211 0.000406499L290.386 0.117993Z" fill="#D0CCDB"/>
<path d="M302.368 0.117993L302.257 3.48535L299.083 3.36776L299.194 0.000406499L302.368 0.117993Z" fill="#D0CCDB"/>
<path d="M314.345 0.117993L314.234 3.48535L311.06 3.36776L311.17 0.000406499L314.345 0.117993Z" fill="#D0CCDB"/>
<path d="M326.327 0.117993L326.216 3.48535L323.042 3.36776L323.153 0.000406499L326.327 0.117993Z" fill="#D0CCDB"/>
<path d="M338.309 0.117993L338.199 3.48535L335.024 3.36776L335.135 0.000406499L338.309 0.117993Z" fill="#D0CCDB"/>
<path d="M350.294 0.117993L350.183 3.48535L347.009 3.36776L347.12 0.000406499L350.294 0.117993Z" fill="#D0CCDB"/>
<path d="M362.276 0.117993L362.165 3.48535L358.991 3.36776L359.102 0.000406499L362.276 0.117993Z" fill="#D0CCDB"/>
<path d="M374.253 0.117993L374.142 3.48535L370.968 3.36776L371.079 0.000406499L374.253 0.117993Z" fill="#D0CCDB"/>
<path d="M386.235 0.117993L386.124 3.48535L382.95 3.36776L383.061 0.000406499L386.235 0.117993Z" fill="#D0CCDB"/>
<path d="M398.214 0.117993L398.103 3.48535L394.929 3.36776L395.04 0.000406499L398.214 0.117993Z" fill="#D0CCDB"/>
<path d="M410.197 0.117993L410.086 3.48535L406.912 3.36776L407.023 0.000406499L410.197 0.117993Z" fill="#D0CCDB"/>
<path d="M422.18 0.117993L422.069 3.48535L418.895 3.36776L419.005 0.000406499L422.18 0.117993Z" fill="#D0CCDB"/>
<path d="M434.156 0.117993L434.045 3.48535L430.871 3.36776L430.982 0.000406499L434.156 0.117993Z" fill="#D0CCDB"/>
<path d="M446.135 0.117993L446.024 3.48535L442.85 3.36776L442.96 0.000406499L446.135 0.117993Z" fill="#D0CCDB"/>
<path d="M458.117 0.117993L458.006 3.48535L454.832 3.36776L454.943 0.000406499L458.117 0.117993Z" fill="#D0CCDB"/>
<path d="M459.05 38.7415L458.939 42.1089L455.765 41.9913L455.875 38.6239L459.05 38.7415Z" fill="#D0CCDB"/>
<path d="M471.032 38.7415L470.921 42.1089L467.747 41.9913L467.858 38.6239L471.032 38.7415Z" fill="#D0CCDB"/>
<path d="M483.009 38.7415L482.898 42.1089L479.724 41.9913L479.835 38.6239L483.009 38.7415Z" fill="#D0CCDB"/>
<path d="M494.991 38.7415L494.88 42.1089L491.706 41.9913L491.817 38.6239L494.991 38.7415Z" fill="#D0CCDB"/>
<path d="M506.97 38.7415L506.859 42.1089L503.685 41.9913L503.795 38.6239L506.97 38.7415Z" fill="#D0CCDB"/>
<path d="M518.952 38.7415L518.841 42.1089L515.667 41.9913L515.778 38.6239L518.952 38.7415Z" fill="#D0CCDB"/>
<path d="M530.934 38.7415L530.824 42.1089L527.649 41.9913L527.76 38.6239L530.934 38.7415Z" fill="#D0CCDB"/>
<path d="M554.896 26.0316L554.785 29.3989L551.611 29.2813L551.722 25.914L554.896 26.0316Z" fill="#D0CCDB"/>
<path d="M554.896 13.3216L554.785 16.689L551.611 16.5714L551.722 13.204L554.896 13.3216Z" fill="#D0CCDB"/>
<path d="M554.896 0.615056L554.785 3.98242L551.611 3.86484L551.722 0.497469L554.896 0.615056Z" fill="#D0CCDB"/>
<path d="M218.504 12.828L218.393 16.1953L215.219 16.0777L215.33 12.7104L218.504 12.828Z" fill="#D0CCDB"/>
<path d="M230.486 12.828L230.375 16.1953L227.201 16.0777L227.312 12.7104L230.486 12.828Z" fill="#D0CCDB"/>
<path d="M242.465 12.828L242.354 16.1953L239.18 16.0777L239.291 12.7104L242.465 12.828Z" fill="#D0CCDB"/>
<path d="M254.441 12.828L254.33 16.1953L251.156 16.0777L251.267 12.7104L254.441 12.828Z" fill="#D0CCDB"/>
<path d="M266.424 12.828L266.313 16.1953L263.139 16.0777L263.249 12.7104L266.424 12.828Z" fill="#D0CCDB"/>
<path d="M278.406 12.828L278.295 16.1953L275.121 16.0777L275.232 12.7104L278.406 12.828Z" fill="#D0CCDB"/>
<path d="M290.389 12.828L290.279 16.1953L287.104 16.0777L287.215 12.7104L290.389 12.828Z" fill="#D0CCDB"/>
<path d="M302.368 12.828L302.257 16.1953L299.083 16.0777L299.194 12.7104L302.368 12.828Z" fill="#D0CCDB"/>
<path d="M314.345 12.828L314.234 16.1953L311.06 16.0777L311.17 12.7104L314.345 12.828Z" fill="#D0CCDB"/>
<path d="M326.327 12.828L326.216 16.1953L323.042 16.0777L323.153 12.7104L326.327 12.828Z" fill="#D0CCDB"/>
<path d="M338.311 12.828L338.201 16.1953L335.026 16.0777L335.137 12.7104L338.311 12.828Z" fill="#D0CCDB"/>
<path d="M350.294 12.828L350.183 16.1953L347.009 16.0777L347.12 12.7104L350.294 12.828Z" fill="#D0CCDB"/>
<path d="M362.276 12.828L362.165 16.1953L358.991 16.0777L359.102 12.7104L362.276 12.828Z" fill="#D0CCDB"/>
<path d="M374.253 12.828L374.142 16.1953L370.968 16.0777L371.079 12.7104L374.253 12.828Z" fill="#D0CCDB"/>
<path d="M386.231 12.828L386.12 16.1953L382.946 16.0777L383.057 12.7104L386.231 12.828Z" fill="#D0CCDB"/>
<path d="M398.214 12.828L398.103 16.1953L394.929 16.0777L395.04 12.7104L398.214 12.828Z" fill="#D0CCDB"/>
<path d="M410.197 12.828L410.086 16.1953L406.912 16.0777L407.023 12.7104L410.197 12.828Z" fill="#D0CCDB"/>
<path d="M422.18 12.828L422.069 16.1953L418.895 16.0777L419.005 12.7104L422.18 12.828Z" fill="#D0CCDB"/>
<path d="M434.156 12.828L434.045 16.1953L430.871 16.0777L430.982 12.7104L434.156 12.828Z" fill="#D0CCDB"/>
<path d="M446.135 12.828L446.024 16.1953L442.85 16.0777L442.96 12.7104L446.135 12.828Z" fill="#D0CCDB"/>
<path d="M458.117 12.828L458.006 16.1953L454.832 16.0777L454.943 12.7104L458.117 12.828Z" fill="#D0CCDB"/>
<path d="M459.05 51.4539L458.939 54.8213L455.765 54.7037L455.875 51.3363L459.05 51.4539Z" fill="#D0CCDB"/>
<path d="M471.032 51.4539L470.921 54.8213L467.747 54.7037L467.858 51.3363L471.032 51.4539Z" fill="#D0CCDB"/>
<path d="M483.009 51.4539L482.898 54.8213L479.724 54.7037L479.835 51.3363L483.009 51.4539Z" fill="#D0CCDB"/>
<path d="M494.991 51.4539L494.88 54.8213L491.706 54.7037L491.817 51.3363L494.991 51.4539Z" fill="#D0CCDB"/>
<path d="M506.97 51.4539L506.859 54.8213L503.685 54.7037L503.795 51.3363L506.97 51.4539Z" fill="#D0CCDB"/>
<path d="M518.952 51.4539L518.841 54.8213L515.667 54.7037L515.778 51.3363L518.952 51.4539Z" fill="#D0CCDB"/>
<path d="M530.934 51.4539L530.824 54.8213L527.649 54.7037L527.76 51.3363L530.934 51.4539Z" fill="#D0CCDB"/>
<path d="M566.879 26.0316L566.768 29.3989L563.594 29.2813L563.705 25.914L566.879 26.0316Z" fill="#D0CCDB"/>
<path d="M566.873 13.3216L566.762 16.689L563.588 16.5714L563.699 13.204L566.873 13.3216Z" fill="#D0CCDB"/>
<path d="M566.879 0.615056L566.768 3.98242L563.594 3.86484L563.705 0.497469L566.879 0.615056Z" fill="#D0CCDB"/>
<path d="M218.504 25.5399L218.393 28.9072L215.219 28.7896L215.33 25.4223L218.504 25.5399Z" fill="#D0CCDB"/>
<path d="M230.486 25.5399L230.375 28.9072L227.201 28.7896L227.312 25.4223L230.486 25.5399Z" fill="#D0CCDB"/>
<path d="M242.465 25.5399L242.354 28.9072L239.18 28.7896L239.291 25.4223L242.465 25.5399Z" fill="#D0CCDB"/>
<path d="M254.441 25.5399L254.33 28.9072L251.156 28.7896L251.267 25.4223L254.441 25.5399Z" fill="#D0CCDB"/>
<path d="M266.424 25.5399L266.313 28.9072L263.139 28.7896L263.249 25.4223L266.424 25.5399Z" fill="#D0CCDB"/>
<path d="M278.406 25.5399L278.295 28.9072L275.121 28.7896L275.232 25.4223L278.406 25.5399Z" fill="#D0CCDB"/>
<path d="M290.386 25.5399L290.275 28.9072L287.101 28.7896L287.211 25.4223L290.386 25.5399Z" fill="#D0CCDB"/>
<path d="M302.368 25.5399L302.257 28.9072L299.083 28.7896L299.194 25.4223L302.368 25.5399Z" fill="#D0CCDB"/>
<path d="M314.345 25.5399L314.234 28.9072L311.06 28.7896L311.17 25.4223L314.345 25.5399Z" fill="#D0CCDB"/>
<path d="M326.327 25.5399L326.216 28.9072L323.042 28.7896L323.153 25.4223L326.327 25.5399Z" fill="#D0CCDB"/>
<path d="M338.311 25.5399L338.201 28.9072L335.026 28.7896L335.137 25.4223L338.311 25.5399Z" fill="#D0CCDB"/>
<path d="M350.294 25.5399L350.183 28.9072L347.009 28.7896L347.12 25.4223L350.294 25.5399Z" fill="#D0CCDB"/>
<path d="M362.276 25.5399L362.165 28.9072L358.991 28.7896L359.102 25.4223L362.276 25.5399Z" fill="#D0CCDB"/>
<path d="M374.253 25.5399L374.142 28.9072L370.968 28.7896L371.079 25.4223L374.253 25.5399Z" fill="#D0CCDB"/>
<path d="M386.235 25.5399L386.124 28.9072L382.95 28.7896L383.061 25.4223L386.235 25.5399Z" fill="#D0CCDB"/>
<path d="M398.214 25.5399L398.103 28.9072L394.929 28.7896L395.04 25.4223L398.214 25.5399Z" fill="#D0CCDB"/>
<path d="M410.197 25.5399L410.086 28.9072L406.912 28.7896L407.023 25.4223L410.197 25.5399Z" fill="#D0CCDB"/>
<path d="M422.18 25.5399L422.069 28.9072L418.895 28.7896L419.005 25.4223L422.18 25.5399Z" fill="#D0CCDB"/>
<path d="M434.156 25.5399L434.045 28.9072L430.871 28.7896L430.982 25.4223L434.156 25.5399Z" fill="#D0CCDB"/>
<path d="M446.135 25.5399L446.024 28.9072L442.85 28.7896L442.96 25.4223L446.135 25.5399Z" fill="#D0CCDB"/>
<path d="M458.117 25.5399L458.006 28.9072L454.832 28.7896L454.943 25.4223L458.117 25.5399Z" fill="#D0CCDB"/>
<path d="M459.05 64.1639L458.939 67.5312L455.765 67.4137L455.875 64.0463L459.05 64.1639Z" fill="#D0CCDB"/>
<path d="M471.032 64.1639L470.921 67.5312L467.747 67.4137L467.858 64.0463L471.032 64.1639Z" fill="#D0CCDB"/>
<path d="M483.009 64.1639L482.898 67.5312L479.724 67.4137L479.835 64.0463L483.009 64.1639Z" fill="#D0CCDB"/>
<path d="M494.991 64.1639L494.88 67.5312L491.706 67.4137L491.817 64.0463L494.991 64.1639Z" fill="#D0CCDB"/>
<path d="M506.97 64.1639L506.859 67.5312L503.685 67.4137L503.795 64.0463L506.97 64.1639Z" fill="#D0CCDB"/>
<path d="M518.952 64.1639L518.841 67.5312L515.667 67.4137L515.778 64.0463L518.952 64.1639Z" fill="#D0CCDB"/>
<path d="M530.934 64.1639L530.824 67.5312L527.649 67.4137L527.76 64.0463L530.934 64.1639Z" fill="#D0CCDB"/>
<path d="M578.855 76.8758L578.744 80.2432L575.57 80.1256L575.681 76.7582L578.855 76.8758Z" fill="#D0CCDB"/>
<path d="M578.855 64.1639L578.744 67.5312L575.57 67.4137L575.681 64.0463L578.855 64.1639Z" fill="#D0CCDB"/>
<path d="M578.855 51.4539L578.744 54.8213L575.57 54.7037L575.681 51.3363L578.855 51.4539Z" fill="#D0CCDB"/>
<path d="M578.855 38.7415L578.744 42.1089L575.57 41.9913L575.681 38.6239L578.855 38.7415Z" fill="#D0CCDB"/>
<path d="M578.855 26.0316L578.744 29.3989L575.57 29.2813L575.681 25.914L578.855 26.0316Z" fill="#D0CCDB"/>
<path d="M578.855 13.3216L578.744 16.689L575.57 16.5714L575.681 13.204L578.855 13.3216Z" fill="#D0CCDB"/>
<path d="M578.855 0.615056L578.744 3.98242L575.57 3.86484L575.681 0.497469L578.855 0.615056Z" fill="#D0CCDB"/>
<path d="M218.504 38.2503L218.393 41.6177L215.219 41.5001L215.33 38.1327L218.504 38.2503Z" fill="#D0CCDB"/>
<path d="M230.486 38.2503L230.375 41.6177L227.201 41.5001L227.312 38.1327L230.486 38.2503Z" fill="#D0CCDB"/>
<path d="M242.465 38.2503L242.354 41.6177L239.18 41.5001L239.291 38.1327L242.465 38.2503Z" fill="#D0CCDB"/>
<path d="M254.441 38.2503L254.33 41.6177L251.156 41.5001L251.267 38.1327L254.441 38.2503Z" fill="#D0CCDB"/>
<path d="M266.424 38.2503L266.313 41.6177L263.139 41.5001L263.249 38.1327L266.424 38.2503Z" fill="#D0CCDB"/>
<path d="M278.406 38.2503L278.295 41.6177L275.121 41.5001L275.232 38.1327L278.406 38.2503Z" fill="#D0CCDB"/>
<path d="M290.389 38.2503L290.279 41.6177L287.104 41.5001L287.215 38.1327L290.389 38.2503Z" fill="#D0CCDB"/>
<path d="M302.368 38.2503L302.257 41.6177L299.083 41.5001L299.194 38.1327L302.368 38.2503Z" fill="#D0CCDB"/>
<path d="M314.345 38.2503L314.234 41.6177L311.06 41.5001L311.17 38.1327L314.345 38.2503Z" fill="#D0CCDB"/>
<path d="M326.327 38.2503L326.216 41.6177L323.042 41.5001L323.153 38.1327L326.327 38.2503Z" fill="#D0CCDB"/>
<path d="M338.309 38.2503L338.199 41.6177L335.024 41.5001L335.135 38.1327L338.309 38.2503Z" fill="#D0CCDB"/>
<path d="M350.294 38.2503L350.183 41.6177L347.009 41.5001L347.12 38.1327L350.294 38.2503Z" fill="#D0CCDB"/>
<path d="M362.276 38.2503L362.165 41.6177L358.991 41.5001L359.102 38.1327L362.276 38.2503Z" fill="#D0CCDB"/>
<path d="M374.253 38.2503L374.142 41.6177L370.968 41.5001L371.079 38.1327L374.253 38.2503Z" fill="#D0CCDB"/>
<path d="M386.231 38.2503L386.12 41.6177L382.946 41.5001L383.057 38.1327L386.231 38.2503Z" fill="#D0CCDB"/>
<path d="M398.214 38.2503L398.103 41.6177L394.929 41.5001L395.04 38.1327L398.214 38.2503Z" fill="#D0CCDB"/>
<path d="M410.197 38.2503L410.086 41.6177L406.912 41.5001L407.023 38.1327L410.197 38.2503Z" fill="#D0CCDB"/>
<path d="M422.18 38.2503L422.069 41.6177L418.895 41.5001L419.005 38.1327L422.18 38.2503Z" fill="#D0CCDB"/>
<path d="M434.156 38.2503L434.045 41.6177L430.871 41.5001L430.982 38.1327L434.156 38.2503Z" fill="#D0CCDB"/>
<path d="M446.135 38.2503L446.024 41.6177L442.85 41.5001L442.96 38.1327L446.135 38.2503Z" fill="#D0CCDB"/>
<path d="M458.117 38.2503L458.006 41.6177L454.832 41.5001L454.943 38.1327L458.117 38.2503Z" fill="#D0CCDB"/>
<path d="M459.05 76.8758L458.939 80.2432L455.765 80.1256L455.875 76.7582L459.05 76.8758Z" fill="#D0CCDB"/>
<path d="M471.032 76.8758L470.921 80.2432L467.747 80.1256L467.858 76.7582L471.032 76.8758Z" fill="#D0CCDB"/>
<path d="M483.009 76.8758L482.898 80.2432L479.724 80.1256L479.835 76.7582L483.009 76.8758Z" fill="#D0CCDB"/>
<path d="M494.991 76.8758L494.88 80.2432L491.706 80.1256L491.817 76.7582L494.991 76.8758Z" fill="#D0CCDB"/>
<path d="M506.97 76.8758L506.859 80.2432L503.685 80.1256L503.795 76.7582L506.97 76.8758Z" fill="#D0CCDB"/>
<path d="M518.952 76.8758L518.841 80.2432L515.667 80.1256L515.778 76.7582L518.952 76.8758Z" fill="#D0CCDB"/>
<path d="M530.934 76.8758L530.824 80.2432L527.649 80.1256L527.76 76.7582L530.934 76.8758Z" fill="#D0CCDB"/>
<path d="M218.504 50.9564L218.393 54.3237L215.219 54.2061L215.33 50.8388L218.504 50.9564Z" fill="#D0CCDB"/>
<path d="M230.486 50.9564L230.375 54.3237L227.201 54.2061L227.312 50.8388L230.486 50.9564Z" fill="#D0CCDB"/>
<path d="M242.465 50.9564L242.354 54.3237L239.18 54.2061L239.291 50.8388L242.465 50.9564Z" fill="#D0CCDB"/>
<path d="M254.441 50.9564L254.33 54.3237L251.156 54.2061L251.267 50.8388L254.441 50.9564Z" fill="#D0CCDB"/>
<path d="M266.424 50.9564L266.313 54.3237L263.139 54.2061L263.249 50.8388L266.424 50.9564Z" fill="#D0CCDB"/>
<path d="M278.406 50.9564L278.295 54.3237L275.121 54.2061L275.232 50.8388L278.406 50.9564Z" fill="#D0CCDB"/>
<path d="M290.389 50.9564L290.279 54.3237L287.104 54.2061L287.215 50.8388L290.389 50.9564Z" fill="#D0CCDB"/>
<path d="M302.368 50.9564L302.257 54.3237L299.083 54.2061L299.194 50.8388L302.368 50.9564Z" fill="#D0CCDB"/>
<path d="M314.345 50.9564L314.234 54.3237L311.06 54.2061L311.17 50.8388L314.345 50.9564Z" fill="#D0CCDB"/>
<path d="M326.327 50.9564L326.216 54.3237L323.042 54.2061L323.153 50.8388L326.327 50.9564Z" fill="#D0CCDB"/>
<path d="M338.311 50.9564L338.201 54.3237L335.026 54.2061L335.137 50.8388L338.311 50.9564Z" fill="#D0CCDB"/>
<path d="M350.294 50.9564L350.183 54.3237L347.009 54.2061L347.12 50.8388L350.294 50.9564Z" fill="#D0CCDB"/>
<path d="M362.276 50.9564L362.165 54.3237L358.991 54.2061L359.102 50.8388L362.276 50.9564Z" fill="#D0CCDB"/>
<path d="M374.253 50.9564L374.142 54.3237L370.968 54.2061L371.079 50.8388L374.253 50.9564Z" fill="#D0CCDB"/>
<path d="M386.231 50.9564L386.12 54.3237L382.946 54.2061L383.057 50.8388L386.231 50.9564Z" fill="#D0CCDB"/>
<path d="M398.214 50.9564L398.103 54.3237L394.929 54.2061L395.04 50.8388L398.214 50.9564Z" fill="#D0CCDB"/>
<path d="M410.197 50.9564L410.086 54.3237L406.912 54.2061L407.023 50.8388L410.197 50.9564Z" fill="#D0CCDB"/>
<path d="M422.18 50.9564L422.069 54.3237L418.895 54.2061L419.005 50.8388L422.18 50.9564Z" fill="#D0CCDB"/>
<path d="M434.156 50.9564L434.045 54.3237L430.871 54.2061L430.982 50.8388L434.156 50.9564Z" fill="#D0CCDB"/>
<path d="M446.135 50.9564L446.024 54.3237L442.85 54.2061L442.96 50.8388L446.135 50.9564Z" fill="#D0CCDB"/>
<path d="M458.117 50.9564L458.006 54.3237L454.832 54.2061L454.943 50.8388L458.117 50.9564Z" fill="#D0CCDB"/>
<path d="M459.05 89.5804L458.939 92.9478L455.765 92.8302L455.875 89.4628L459.05 89.5804Z" fill="#D0CCDB"/>
<path d="M471.032 89.5804L470.921 92.9478L467.747 92.8302L467.858 89.4628L471.032 89.5804Z" fill="#D0CCDB"/>
<path d="M483.009 89.5804L482.898 92.9478L479.724 92.8302L479.835 89.4628L483.009 89.5804Z" fill="#D0CCDB"/>
<path d="M494.991 89.5804L494.88 92.9478L491.706 92.8302L491.817 89.4628L494.991 89.5804Z" fill="#D0CCDB"/>
<path d="M506.97 89.5804L506.859 92.9478L503.685 92.8302L503.795 89.4628L506.97 89.5804Z" fill="#D0CCDB"/>
<path d="M518.952 89.5804L518.841 92.9478L515.667 92.8302L515.778 89.4628L518.952 89.5804Z" fill="#D0CCDB"/>
<path d="M530.934 89.5804L530.824 92.9478L527.649 92.8302L527.76 89.4628L530.934 89.5804Z" fill="#D0CCDB"/>
<path d="M578.855 89.5804L578.744 92.9478L575.57 92.8302L575.681 89.4628L578.855 89.5804Z" fill="#D0CCDB"/>
<path d="M218.504 63.6663L218.393 67.0337L215.219 66.9161L215.33 63.5487L218.504 63.6663Z" fill="#D0CCDB"/>
<path d="M230.486 63.6663L230.375 67.0337L227.201 66.9161L227.312 63.5487L230.486 63.6663Z" fill="#D0CCDB"/>
<path d="M242.465 63.6663L242.354 67.0337L239.18 66.9161L239.291 63.5487L242.465 63.6663Z" fill="#D0CCDB"/>
<path d="M254.441 63.6663L254.33 67.0337L251.156 66.9161L251.267 63.5487L254.441 63.6663Z" fill="#D0CCDB"/>
<path d="M266.424 63.6663L266.313 67.0337L263.139 66.9161L263.249 63.5487L266.424 63.6663Z" fill="#D0CCDB"/>
<path d="M278.406 63.6663L278.295 67.0337L275.121 66.9161L275.232 63.5487L278.406 63.6663Z" fill="#D0CCDB"/>
<path d="M290.386 63.6663L290.275 67.0337L287.101 66.9161L287.211 63.5487L290.386 63.6663Z" fill="#D0CCDB"/>
<path d="M302.368 63.6663L302.257 67.0337L299.083 66.9161L299.194 63.5487L302.368 63.6663Z" fill="#D0CCDB"/>
<path d="M314.345 63.6663L314.234 67.0337L311.06 66.9161L311.17 63.5487L314.345 63.6663Z" fill="#D0CCDB"/>
<path d="M326.327 63.6663L326.216 67.0337L323.042 66.9161L323.153 63.5487L326.327 63.6663Z" fill="#D0CCDB"/>
<path d="M338.309 63.6663L338.199 67.0337L335.024 66.9161L335.135 63.5487L338.309 63.6663Z" fill="#D0CCDB"/>
<path d="M350.294 63.6663L350.183 67.0337L347.009 66.9161L347.12 63.5487L350.294 63.6663Z" fill="#D0CCDB"/>
<path d="M362.276 63.6663L362.165 67.0337L358.991 66.9161L359.102 63.5487L362.276 63.6663Z" fill="#D0CCDB"/>
<path d="M374.253 63.6663L374.142 67.0337L370.968 66.9161L371.079 63.5487L374.253 63.6663Z" fill="#D0CCDB"/>
<path d="M386.235 63.6663L386.124 67.0337L382.95 66.9161L383.061 63.5487L386.235 63.6663Z" fill="#D0CCDB"/>
<path d="M398.214 63.6663L398.103 67.0337L394.929 66.9161L395.04 63.5487L398.214 63.6663Z" fill="#D0CCDB"/>
<path d="M410.197 63.6663L410.086 67.0337L406.912 66.9161L407.023 63.5487L410.197 63.6663Z" fill="#D0CCDB"/>
<path d="M422.18 63.6663L422.069 67.0337L418.895 66.9161L419.005 63.5487L422.18 63.6663Z" fill="#D0CCDB"/>
<path d="M434.156 63.6663L434.045 67.0337L430.871 66.9161L430.982 63.5487L434.156 63.6663Z" fill="#D0CCDB"/>
<path d="M446.135 63.6663L446.024 67.0337L442.85 66.9161L442.96 63.5487L446.135 63.6663Z" fill="#D0CCDB"/>
<path d="M458.117 63.6663L458.006 67.0337L454.832 66.9161L454.943 63.5487L458.117 63.6663Z" fill="#D0CCDB"/>
<path d="M218.504 76.3768L218.393 79.7441L215.219 79.6266L215.33 76.2592L218.504 76.3768Z" fill="#D0CCDB"/>
<path d="M230.486 76.3768L230.375 79.7441L227.201 79.6266L227.312 76.2592L230.486 76.3768Z" fill="#D0CCDB"/>
<path d="M242.465 76.3768L242.354 79.7441L239.18 79.6266L239.291 76.2592L242.465 76.3768Z" fill="#D0CCDB"/>
<path d="M254.441 76.3768L254.33 79.7441L251.156 79.6266L251.267 76.2592L254.441 76.3768Z" fill="#D0CCDB"/>
<path d="M266.424 76.3768L266.313 79.7441L263.139 79.6266L263.249 76.2592L266.424 76.3768Z" fill="#D0CCDB"/>
<path d="M278.406 76.3768L278.295 79.7441L275.121 79.6266L275.232 76.2592L278.406 76.3768Z" fill="#D0CCDB"/>
<path d="M290.389 76.3768L290.279 79.7441L287.104 79.6266L287.215 76.2592L290.389 76.3768Z" fill="#D0CCDB"/>
<path d="M302.368 76.3768L302.257 79.7441L299.083 79.6266L299.194 76.2592L302.368 76.3768Z" fill="#D0CCDB"/>
<path d="M314.345 76.3768L314.234 79.7441L311.06 79.6266L311.17 76.2592L314.345 76.3768Z" fill="#D0CCDB"/>
<path d="M326.327 76.3768L326.216 79.7441L323.042 79.6266L323.153 76.2592L326.327 76.3768Z" fill="#D0CCDB"/>
<path d="M338.309 76.3768L338.199 79.7441L335.024 79.6266L335.135 76.2592L338.309 76.3768Z" fill="#D0CCDB"/>
<path d="M350.294 76.3768L350.183 79.7441L347.009 79.6266L347.12 76.2592L350.294 76.3768Z" fill="#D0CCDB"/>
<path d="M362.276 76.3768L362.165 79.7441L358.991 79.6266L359.102 76.2592L362.276 76.3768Z" fill="#D0CCDB"/>
<path d="M374.253 76.3768L374.142 79.7441L370.968 79.6266L371.079 76.2592L374.253 76.3768Z" fill="#D0CCDB"/>
<path d="M386.231 76.3768L386.12 79.7441L382.946 79.6266L383.057 76.2592L386.231 76.3768Z" fill="#D0CCDB"/>
<path d="M398.214 76.3768L398.103 79.7441L394.929 79.6266L395.04 76.2592L398.214 76.3768Z" fill="#D0CCDB"/>
<path d="M410.197 76.3768L410.086 79.7441L406.912 79.6266L407.023 76.2592L410.197 76.3768Z" fill="#D0CCDB"/>
<path d="M422.18 76.3768L422.069 79.7441L418.895 79.6266L419.005 76.2592L422.18 76.3768Z" fill="#D0CCDB"/>
<path d="M434.156 76.3768L434.045 79.7441L430.871 79.6266L430.982 76.2592L434.156 76.3768Z" fill="#D0CCDB"/>
<path d="M446.135 76.3768L446.024 79.7441L442.85 79.6266L442.96 76.2592L446.135 76.3768Z" fill="#D0CCDB"/>
<path d="M458.117 76.3768L458.006 79.7441L454.832 79.6266L454.943 76.2592L458.117 76.3768Z" fill="#D0CCDB"/>
<path d="M218.504 89.0887L218.393 92.4561L215.219 92.3385L215.33 88.9711L218.504 89.0887Z" fill="#D0CCDB"/>
<path d="M230.486 89.0887L230.375 92.4561L227.201 92.3385L227.312 88.9711L230.486 89.0887Z" fill="#D0CCDB"/>
<path d="M242.465 89.0887L242.354 92.4561L239.18 92.3385L239.291 88.9711L242.465 89.0887Z" fill="#D0CCDB"/>
<path d="M254.441 89.0887L254.33 92.4561L251.156 92.3385L251.267 88.9711L254.441 89.0887Z" fill="#D0CCDB"/>
<path d="M266.424 89.0887L266.313 92.4561L263.139 92.3385L263.249 88.9711L266.424 89.0887Z" fill="#D0CCDB"/>
<path d="M278.406 89.0887L278.295 92.4561L275.121 92.3385L275.232 88.9711L278.406 89.0887Z" fill="#D0CCDB"/>
<path d="M290.386 89.0887L290.275 92.4561L287.101 92.3385L287.211 88.9711L290.386 89.0887Z" fill="#D0CCDB"/>
<path d="M302.368 89.0887L302.257 92.4561L299.083 92.3385L299.194 88.9711L302.368 89.0887Z" fill="#D0CCDB"/>
<path d="M314.345 89.0887L314.234 92.4561L311.06 92.3385L311.17 88.9711L314.345 89.0887Z" fill="#D0CCDB"/>
<path d="M326.327 89.0887L326.216 92.4561L323.042 92.3385L323.153 88.9711L326.327 89.0887Z" fill="#D0CCDB"/>
<path d="M458.117 89.0887L458.006 92.4561L454.832 92.3385L454.943 88.9711L458.117 89.0887Z" fill="#D0CCDB"/>
<path d="M390.605 153.121L390.494 156.488L387.32 156.371L387.431 153.003L390.605 153.121Z" fill="#D0CCDB"/>
<path d="M402.588 153.121L402.477 156.488L399.303 156.371L399.414 153.003L402.588 153.121Z" fill="#D0CCDB"/>
<path d="M414.565 153.119L414.454 156.486L411.28 156.369L411.391 153.001L414.565 153.119Z" fill="#D0CCDB"/>
<path d="M426.543 153.121L426.432 156.488L423.258 156.371L423.369 153.003L426.543 153.121Z" fill="#D0CCDB"/>
<path d="M438.525 153.121L438.414 156.488L435.24 156.371L435.351 153.003L438.525 153.121Z" fill="#D0CCDB"/>
<path d="M450.508 153.121L450.397 156.488L447.223 156.371L447.334 153.003L450.508 153.121Z" fill="#D0CCDB"/>
<path d="M462.486 153.121L462.375 156.488L459.201 156.371L459.312 153.003L462.486 153.121Z" fill="#D0CCDB"/>
<path d="M474.469 153.121L474.358 156.488L471.184 156.371L471.294 153.003L474.469 153.121Z" fill="#D0CCDB"/>
<path d="M486.445 153.121L486.334 156.488L483.16 156.371L483.271 153.003L486.445 153.121Z" fill="#D0CCDB"/>
<path d="M498.428 153.121L498.317 156.488L495.143 156.371L495.253 153.003L498.428 153.121Z" fill="#D0CCDB"/>
<rect x="319" y="56" width="12" height="12" fill="#8A80A4"/>
</g>
<defs>
<clipPath id="clip0_621_8865">
<rect width="732" height="170" fill="white"/>
</clipPath>
</defs>
</svg>
