<svg width="32" height="32" viewBox="0 0 32 32" fill="none" xmlns="http://www.w3.org/2000/svg">
<path d="M10 21.2305L10 23.1102L11.8674 23.1102L11.8674 21.2305L10 21.2305Z" fill="#150049"/>
<path d="M11.8652 19.3633L11.8652 21.2307L13.7326 21.2307L13.7326 19.3633L11.8652 19.3633Z" fill="#150049"/>
<path d="M13.7344 17.4961L13.7344 19.3635L15.6141 19.3635L15.6141 17.4961L13.7344 17.4961Z" fill="#150049"/>
<path d="M15.6133 15.6172L15.6133 17.4969L17.4807 17.4969L17.4807 15.6172L15.6133 15.6172Z" fill="#150049"/>
<path d="M17.4824 13.7461L17.4824 15.6135L19.3621 15.6135L19.3621 13.7461L17.4824 13.7461Z" fill="#150049"/>
<path d="M19.3613 11.8711L19.3613 13.7508L21.2287 13.7508L21.2287 11.8711L19.3613 11.8711Z" fill="#150049"/>
<path d="M21.2285 10L21.2285 11.8674L23.0959 11.8674L23.0959 10L21.2285 10Z" fill="#150049"/>
<rect x="9.54785" y="9.55518" width="2" height="2" fill="#150049"/>
<rect x="11.5479" y="11.5552" width="2" height="2" fill="#150049"/>
<rect x="13.5479" y="13.5552" width="2" height="2" fill="#150049"/>
<rect x="15.5479" y="15.5552" width="2" height="2" fill="#150049"/>
<rect x="17.5479" y="17.5552" width="2" height="2" fill="#150049"/>
<rect x="19.5479" y="19.5552" width="2" height="2" fill="#150049"/>
<rect x="21.5479" y="21.5552" width="2" height="2" fill="#150049"/>
<rect x="17.5479" y="13.5552" width="2" height="2" fill="#150049"/>
<rect x="19.5479" y="11.5552" width="2" height="2" fill="#150049"/>
<rect x="21.5479" y="9.55518" width="2" height="2" fill="#150049"/>
<rect x="13.5479" y="17.5552" width="2" height="2" fill="#150049"/>
<rect x="11.5479" y="19.5552" width="2" height="2" fill="#150049"/>
<rect x="9.54785" y="21.5552" width="2" height="2" fill="#150049"/>
<path d="M27.1904 26.9536V25.0487H29.0953V7.90471H27.1904V5.99982H31.0002V26.9536H27.1904Z" fill="#150049"/>
<path d="M1 26.9536V5.99982H4.80978V7.90471H2.90489V25.0487H4.80978V26.9536H1Z" fill="#150049"/>
</svg>
