<svg width="16" height="16" viewBox="0 0 16 16" fill="none" xmlns="http://www.w3.org/2000/svg">
<path d="M9.58887 2.86328C9.79161 2.81695 10.0097 2.82875 10.2295 2.86621L10.5811 2.9375C10.921 3.01683 11.2572 3.12754 11.5693 3.25586L11.5703 3.25488C12.3989 3.54009 13.0022 4.1289 13.333 4.95312V4.9541C13.9757 6.55882 14.3659 8.72753 14.4941 10.4131C14.547 11.0975 14.2327 11.5653 13.833 11.918C12.9395 12.7053 11.8708 13.0287 10.7949 13.1621H10.793C10.5786 13.1879 10.3958 13.1032 10.2988 13.0488C10.1869 12.986 10.0814 12.9017 10.001 12.8115V12.8105C9.90388 12.7015 9.82162 12.5394 9.76562 12.4238C9.69972 12.2878 9.62927 12.1279 9.56445 11.9766C9.50261 11.8321 9.44521 11.6979 9.39355 11.5801C8.92887 11.6901 8.46146 11.748 7.99121 11.748C7.52589 11.748 7.06338 11.6918 6.60352 11.584C6.55238 11.7007 6.49659 11.8339 6.43555 11.9766C6.37083 12.1278 6.30116 12.2878 6.23535 12.4238C6.17931 12.5396 6.09639 12.7024 5.99902 12.8115L5.99805 12.8125C5.91784 12.9017 5.81279 12.9861 5.70117 13.0488C5.60498 13.1028 5.42164 13.1881 5.20703 13.1621H5.20605C4.19654 13.0371 3.19498 12.7452 2.33691 12.0605L2.16699 11.918C1.76685 11.5649 1.454 11.0976 1.50586 10.4141L1.56543 9.76172C1.73122 8.19783 2.0852 6.35944 2.64844 4.95312C2.97929 4.12883 3.58306 3.54005 4.41113 3.25488C4.83095 3.08234 5.29569 2.94379 5.75195 2.86621L5.91602 2.84375C6.07921 2.82674 6.23962 2.8284 6.3916 2.86328C6.6132 2.91422 6.79254 3.02987 6.9248 3.19727C7.04349 3.34763 7.10822 3.52047 7.15234 3.66113C7.15646 3.67427 7.159 3.6884 7.16309 3.70215C7.71299 3.65501 8.26429 3.655 8.81445 3.70215C8.81866 3.68806 8.82191 3.67364 8.82617 3.66016C8.87084 3.5188 8.93603 3.34558 9.05566 3.19531C9.18852 3.02859 9.36775 2.91397 9.58887 2.86328ZM9.82715 3.83594C9.81704 3.85528 9.80075 3.8931 9.7793 3.96094C9.7447 4.07045 9.71689 4.1895 9.66797 4.37305C9.60332 4.61552 9.36892 4.77269 9.12012 4.74023C8.3668 4.64147 7.61 4.6415 6.85742 4.74023C6.60881 4.77263 6.37437 4.61529 6.30957 4.37305C6.26022 4.18852 6.23293 4.07056 6.19824 3.95996C6.18267 3.91036 6.16958 3.8754 6.1582 3.85059C6.15562 3.845 6.15249 3.84001 6.15039 3.83594C6.11768 3.83225 6.04756 3.8298 5.91992 3.85156V3.85254C5.53233 3.91842 5.12891 4.03839 4.7666 4.18945C4.75693 4.19349 4.74625 4.19679 4.73633 4.2002C4.19359 4.38715 3.80321 4.76037 3.57617 5.32617C2.98512 6.80228 2.62741 8.86136 2.50293 10.4902C2.48247 10.7617 2.5772 10.9461 2.82715 11.167H2.82812C3.49528 11.7543 4.31204 12.0299 5.24023 12.1553C5.24725 12.1494 5.25258 12.146 5.25391 12.1445C5.26111 12.132 5.28765 12.086 5.33496 11.9883C5.38976 11.8751 5.45219 11.7335 5.5166 11.583C5.55932 11.4832 5.60404 11.3773 5.64648 11.2783C5.26222 11.1255 4.87844 10.9399 4.49902 10.7139C4.26196 10.5726 4.18422 10.2655 4.3252 10.0283C4.46653 9.79115 4.77354 9.71325 5.01074 9.85449C6.02483 10.4588 7.01657 10.748 7.99121 10.748C8.96568 10.748 9.9568 10.4586 10.9707 9.85449C11.2079 9.71315 11.5149 9.79117 11.6562 10.0283C11.7974 10.2654 11.7204 10.5725 11.4834 10.7139C11.1088 10.9371 10.7299 11.1206 10.3506 11.2725C10.3941 11.3732 10.4408 11.4811 10.4844 11.583C10.5488 11.7336 10.6102 11.875 10.665 11.9883L10.7471 12.1455L10.7578 12.1562C11.6862 12.031 12.5041 11.7553 13.1709 11.168L13.2588 11.0859C13.4449 10.8985 13.5154 10.7275 13.4971 10.4902V10.4893C13.3735 8.86446 12.9973 6.80462 12.4053 5.32617L12.3125 5.12305C12.0783 4.66997 11.7197 4.36385 11.2441 4.2002C11.2343 4.19681 11.2244 4.19343 11.2148 4.18945C10.8524 4.03827 10.4491 3.91843 10.0615 3.85254V3.85156C9.92997 3.82914 9.85919 3.83192 9.82715 3.83594ZM6.09668 6.23438C6.90252 6.23452 7.36328 7.01567 7.36328 7.71191C7.36314 8.40807 6.9024 9.18833 6.09668 9.18848C5.29168 9.18843 4.83022 8.40841 4.83008 7.71191C4.83008 7.01534 5.29155 6.23442 6.09668 6.23438ZM9.88477 6.23438C10.6904 6.23468 11.1514 7.01573 11.1514 7.71191C11.1512 8.40802 10.6903 9.18817 9.88477 9.18848C9.07888 9.18843 8.61831 8.40811 8.61816 7.71191C8.61816 7.01564 9.07875 6.23442 9.88477 6.23438ZM6.09668 7.23438C6.06829 7.2344 6.01204 7.24794 5.94824 7.3291C5.88377 7.41123 5.83008 7.54514 5.83008 7.71191C5.83015 7.87846 5.88385 8.01166 5.94824 8.09375C6.01206 8.17499 6.06828 8.18846 6.09668 8.18848C6.12556 8.18841 6.18157 8.17475 6.24512 8.09375C6.30938 8.01177 6.36321 7.87866 6.36328 7.71191C6.36328 7.54503 6.30942 7.41114 6.24512 7.3291C6.18164 7.24829 6.12553 7.23445 6.09668 7.23438ZM9.88477 7.23438C9.85593 7.2344 9.79986 7.24829 9.73633 7.3291C9.67199 7.41112 9.61816 7.54491 9.61816 7.71191C9.61823 7.87869 9.67207 8.01178 9.73633 8.09375C9.79989 8.17465 9.85592 8.18846 9.88477 8.18848C9.91371 8.18833 9.96983 8.17453 10.0332 8.09375C10.0974 8.01175 10.1513 7.87858 10.1514 7.71191C10.1514 7.54511 10.0975 7.41115 10.0332 7.3291C9.9699 7.24852 9.91369 7.23452 9.88477 7.23438Z" fill="#150049" fill-opacity="0.4"/>
</svg>
