<svg width="16" height="16" viewBox="0 0 16 16" fill="none" xmlns="http://www.w3.org/2000/svg">
<path d="M10.6153 13.4301V12.9099C10.6621 12.3164 10.4513 11.7313 10.0367 11.3038C11.9691 11.0885 14 10.3561 14 6.99613C14 6.13669 13.6692 5.31032 13.077 4.68826C13.3572 3.93648 13.3377 3.10556 13.0212 2.36805C13.0212 2.36805 12.2953 2.15269 10.6153 3.27875C9.2052 2.89669 7.71787 2.89669 6.30767 3.27875C4.62767 2.15269 3.90119 2.36805 3.90119 2.36805C3.5853 3.10556 3.56584 3.93648 3.84605 4.68826C3.2493 5.31551 2.91849 6.14902 2.92303 7.01433C2.92303 10.3497 4.95395 11.082 6.88627 11.322C6.47697 11.7455 6.26616 12.3222 6.30767 12.9099V13.445C3.23049 14.3681 3.23049 11.9064 2 11.5989" stroke="#150049" stroke-opacity="0.4" stroke-linecap="round" stroke-linejoin="round"/>
</svg>
