<svg width="32" height="32" viewBox="0 0 32 32" fill="none" xmlns="http://www.w3.org/2000/svg">
<path d="M15.9998 11.3333C23.3636 11.3333 29.3332 9.54247 29.3332 7.33333C29.3332 5.12419 23.3636 3.33333 15.9998 3.33333C8.63604 3.33333 2.6665 5.12419 2.6665 7.33333C2.6665 9.54247 8.63604 11.3333 15.9998 11.3333Z" stroke="#150049" stroke-width="1.5" stroke-linecap="round" stroke-linejoin="round"/>
<path d="M7.18044 10.3333C4.41236 11.0663 2.6665 12.1387 2.6665 13.3333C2.6665 15.5425 8.63604 17.3333 15.9998 17.3333C23.3636 17.3333 29.3332 15.5425 29.3332 13.3333C29.3332 12.1387 27.5873 11.0663 24.8192 10.3333" stroke="#150049" stroke-width="1.5" stroke-linecap="round" stroke-linejoin="round"/>
<path d="M7.18044 16.3333C4.41236 17.0663 2.6665 18.1387 2.6665 19.3333C2.6665 21.5425 8.63604 23.3333 15.9998 23.3333C23.3636 23.3333 29.3332 21.5425 29.3332 19.3333C29.3332 18.1387 27.5873 17.0663 24.8192 16.3333" stroke="#150049" stroke-width="1.5" stroke-linecap="round" stroke-linejoin="round"/>
<path d="M7.18044 22.3333C4.41236 23.0663 2.6665 24.1387 2.6665 25.3333C2.6665 27.5425 8.63604 29.3333 15.9998 29.3333C23.3636 29.3333 29.3332 27.5425 29.3332 25.3333C29.3332 24.1387 27.5873 23.0663 24.8192 22.3333" stroke="#150049" stroke-width="1.5" stroke-linecap="round" stroke-linejoin="round"/>
</svg>
