<svg width="95" height="24" viewBox="0 0 95 24" fill="none" xmlns="http://www.w3.org/2000/svg">
<path d="M6.52441 17.5107L2.33203 21.7021H13.0156V17.5088H6.52441L13.0156 11.0176H19.5068V17.5088L13.0156 24H0.0332031V11.001L6.52441 4.52637V17.5107ZM17.541 6.49121L13.0146 11.0176V4.52637H6.52344L11.0498 0H17.541V6.49121Z" fill="#150049"/>
<path d="M87.8161 20.5557C86.8773 20.5557 86.0309 20.2996 85.277 19.7875C84.5231 19.2755 83.9257 18.5785 83.4847 17.6965C83.0437 16.8146 82.8232 15.8046 82.8232 14.6667C82.8232 13.5287 83.0437 12.5258 83.4847 11.6581C83.9399 10.7762 84.5515 10.0863 85.3197 9.58845C86.0878 9.07636 86.9626 8.82031 87.9441 8.82031C88.4989 8.82031 89.0039 8.90566 89.4591 9.07636C89.9285 9.23283 90.3339 9.45331 90.6753 9.73781C91.0309 10.0223 91.3296 10.3495 91.5714 10.7193C91.8132 11.0892 91.9839 11.4874 92.0835 11.9142L91.4434 11.8075V9.05502H94.4519V20.3423H91.4007V17.6325L92.0835 17.5685C91.9697 17.9668 91.7848 18.3437 91.5288 18.6994C91.2727 19.055 90.9527 19.375 90.5686 19.6595C90.1987 19.9298 89.7791 20.1503 89.3097 20.321C88.8403 20.4774 88.3424 20.5557 87.8161 20.5557ZM88.6483 17.9312C89.2172 17.9312 89.7151 17.7961 90.1418 17.5258C90.5686 17.2556 90.8958 16.8786 91.1234 16.395C91.3652 15.8971 91.4861 15.321 91.4861 14.6667C91.4861 14.0265 91.3652 13.4647 91.1234 12.981C90.8958 12.4974 90.5686 12.1204 90.1418 11.8502C89.7151 11.5657 89.2172 11.4234 88.6483 11.4234C88.0935 11.4234 87.6027 11.5657 87.176 11.8502C86.7635 12.1204 86.4363 12.4974 86.1945 12.981C85.9527 13.4647 85.8318 14.0265 85.8318 14.6667C85.8318 15.321 85.9527 15.8971 86.1945 16.395C86.4363 16.8786 86.7635 17.2556 87.176 17.5258C87.6027 17.7961 88.0935 17.9312 88.6483 17.9312Z" fill="#150049"/>
<path d="M77.2393 20.3418V6.19531H80.2692V20.3418H77.2393ZM75.127 11.7643V9.05447H82.5736V11.7643H75.127Z" fill="#150049"/>
<path d="M68.7721 20.5557C67.6199 20.5557 66.5886 20.3068 65.6782 19.8089C64.782 19.2968 64.0708 18.5998 63.5445 17.7179C63.0324 16.8359 62.7764 15.826 62.7764 14.688C62.7764 13.55 63.0324 12.5472 63.5445 11.6795C64.0708 10.7975 64.782 10.1005 65.6782 9.58845C66.5886 9.07636 67.6199 8.82031 68.7721 8.82031C69.9101 8.82031 70.9271 9.07636 71.8233 9.58845C72.7337 10.1005 73.4449 10.7975 73.957 11.6795C74.4691 12.5472 74.7251 13.55 74.7251 14.688C74.7251 15.826 74.4691 16.8359 73.957 17.7179C73.4449 18.5998 72.7337 19.2968 71.8233 19.8089C70.9271 20.3068 69.9101 20.5557 68.7721 20.5557ZM68.7721 17.9099C69.3268 17.9099 69.8247 17.7748 70.2657 17.5045C70.7066 17.22 71.048 16.8359 71.2898 16.3523C71.5459 15.8544 71.6739 15.2997 71.6739 14.688C71.6739 14.0621 71.5459 13.5073 71.2898 13.0237C71.048 12.5258 70.7066 12.1418 70.2657 11.8715C69.8247 11.587 69.3268 11.4448 68.7721 11.4448C68.2031 11.4448 67.6981 11.587 67.2571 11.8715C66.8162 12.156 66.4677 12.5401 66.2116 13.0237C65.9556 13.5073 65.8347 14.0621 65.8489 14.688C65.8347 15.2997 65.9556 15.8544 66.2116 16.3523C66.4677 16.8359 66.8162 17.22 67.2571 17.5045C67.6981 17.7748 68.2031 17.9099 68.7721 17.9099Z" fill="#150049"/>
<path d="M57.7141 20.5557C56.6614 20.5557 55.7226 20.385 54.8976 20.0436C54.0868 19.688 53.4324 19.2043 52.9346 18.5927L54.8122 16.9711C55.2532 17.4405 55.7439 17.7819 56.2845 17.9952C56.825 18.1944 57.3656 18.294 57.9061 18.294C58.1195 18.294 58.3115 18.2726 58.4822 18.2299C58.6671 18.173 58.8236 18.1019 58.9516 18.0166C59.0796 17.917 59.1721 17.8032 59.229 17.6752C59.3001 17.5329 59.3357 17.3836 59.3357 17.2271C59.3357 16.9142 59.2077 16.6652 58.9516 16.4803C58.8094 16.4092 58.5889 16.3238 58.2902 16.2243C57.9914 16.1105 57.6074 15.9896 57.138 15.8615C56.4125 15.6766 55.7937 15.4632 55.2816 15.2214C54.7838 14.9654 54.3855 14.6809 54.0868 14.3679C53.8307 14.0692 53.6316 13.7492 53.4893 13.4078C53.3613 13.0522 53.2973 12.661 53.2973 12.2342C53.2973 11.7221 53.4111 11.2598 53.6387 10.8473C53.8663 10.4206 54.1792 10.0579 54.5775 9.75914C54.99 9.46042 55.4595 9.23283 55.9858 9.07636C56.5121 8.90566 57.0668 8.82031 57.6501 8.82031C58.2333 8.82031 58.8023 8.89144 59.357 9.03368C59.9118 9.17593 60.4239 9.38219 60.8933 9.65246C61.3769 9.9085 61.7966 10.2143 62.1522 10.5699L60.5306 12.3623C60.2745 12.1204 59.9829 11.9 59.6557 11.7008C59.3428 11.5017 59.0156 11.3452 58.6742 11.2314C58.3328 11.1176 58.027 11.0607 57.7567 11.0607C57.5149 11.0607 57.2944 11.082 57.0953 11.1247C56.9104 11.1674 56.7539 11.2314 56.6259 11.3167C56.4979 11.4021 56.3983 11.5159 56.3272 11.6581C56.2703 11.7862 56.2418 11.9284 56.2418 12.0849C56.2418 12.2414 56.2774 12.3907 56.3485 12.533C56.4338 12.6752 56.5476 12.7961 56.6899 12.8957C56.8464 12.981 57.074 13.0806 57.3727 13.1944C57.6856 13.3082 58.1052 13.4362 58.6316 13.5785C59.3143 13.7634 59.8904 13.9697 60.3599 14.1972C60.8435 14.4248 61.2276 14.688 61.5121 14.9867C61.7539 15.2428 61.9317 15.5344 62.0455 15.8615C62.1593 16.1887 62.2162 16.5514 62.2162 16.9497C62.2162 17.6467 62.017 18.2726 61.6187 18.8274C61.2347 19.3679 60.7013 19.7947 60.0185 20.1076C59.3357 20.4063 58.5675 20.5557 57.7141 20.5557Z" fill="#150049"/>
<path d="M47.044 20.3418V6.19531H50.0739V20.3418H47.044ZM44.9316 11.7643V9.05447H52.3783V11.7643H44.9316Z" fill="#150049"/>
<path d="M40.5434 20.3423V9.055H43.5733V20.3423H40.5434ZM42.037 6.72926C41.4538 6.72926 40.9986 6.58702 40.6714 6.30252C40.3442 6.01803 40.1807 5.61263 40.1807 5.08631C40.1807 4.60267 40.3442 4.21149 40.6714 3.91277C41.0128 3.59983 41.468 3.44336 42.037 3.44336C42.6202 3.44336 43.0754 3.59272 43.4026 3.89144C43.7297 4.17593 43.8933 4.57422 43.8933 5.08631C43.8933 5.58418 43.7226 5.98247 43.3812 6.28119C43.0541 6.5799 42.606 6.72926 42.037 6.72926Z" fill="#150049"/>
<path d="M26.7529 20.3424V5.40649H33.2394C34.2351 5.40649 35.0744 5.55585 35.7572 5.85457C36.4542 6.13907 36.9805 6.55869 37.3361 7.11346C37.6917 7.66822 37.8695 8.32967 37.8695 9.0978C37.8695 9.95128 37.6562 10.6625 37.2294 11.2315C36.8027 11.8005 36.191 12.1917 35.3944 12.405L35.3731 11.9783C36.0274 12.1348 36.6035 12.3908 37.1014 12.7464C37.5993 13.1021 37.9833 13.543 38.2536 14.0693C38.5239 14.5956 38.659 15.1931 38.659 15.8616C38.659 16.6013 38.5381 17.2557 38.2963 17.8246C38.0544 18.3794 37.6988 18.8417 37.2294 19.2116C36.76 19.5814 36.2052 19.8659 35.5651 20.065C34.9392 20.25 34.2351 20.3424 33.4528 20.3424H26.7529ZM29.8255 17.5686H33.3247C33.7799 17.5686 34.164 17.5046 34.4769 17.3766C34.8041 17.2343 35.053 17.021 35.2237 16.7365C35.3944 16.452 35.4798 16.1177 35.4798 15.7336C35.4798 15.3638 35.3873 15.0508 35.2024 14.7948C35.0175 14.5387 34.7543 14.3467 34.4129 14.2187C34.0858 14.0764 33.6875 14.0053 33.2181 14.0053H29.8255V17.5686ZM29.8255 11.4662H32.8553C33.2394 11.4662 33.5737 11.3951 33.8582 11.2528C34.1427 11.1106 34.356 10.9186 34.4983 10.6767C34.6547 10.4349 34.733 10.1504 34.733 9.82326C34.733 9.29695 34.5623 8.89154 34.2209 8.60705C33.8795 8.32256 33.3674 8.18031 32.6846 8.18031H29.8255V11.4662Z" fill="#150049"/>
</svg>
