<svg width="317" height="80" viewBox="0 0 317 80" fill="none" xmlns="http://www.w3.org/2000/svg">
<path d="M21.75 58.3613L43.3867 36.7246H65.0234V58.3623L43.3867 80H0.111328V36.6699L21.75 15.0879V58.3613ZM21.75 58.3691L7.77246 72.3418H43.3867V58.3623H21.75V58.3691ZM58.4707 21.6377L43.3828 36.7246V15.0879H21.7461L36.834 0H58.4707V21.6377Z" fill="#150049"/>
<path d="M292.72 68.5188C289.591 68.5188 286.769 67.6653 284.256 65.9583C281.743 64.2514 279.752 61.928 278.282 58.9882C276.812 56.0485 276.077 52.682 276.077 48.8887C276.077 45.0955 276.812 41.7527 278.282 38.8603C279.799 35.9205 281.838 33.6209 284.399 31.9613C286.959 30.2544 289.875 29.4009 293.147 29.4009C294.996 29.4009 296.679 29.6854 298.197 30.2544C299.761 30.7759 301.113 31.5109 302.251 32.4592C303.436 33.4075 304.432 34.4981 305.238 35.7309C306.044 36.9637 306.613 38.2913 306.945 39.7138L304.811 39.3582V30.1832H314.839V67.8075H304.669V58.7749L306.945 58.5615C306.565 59.8891 305.949 61.1457 305.096 62.331C304.242 63.5164 303.175 64.5833 301.895 65.5316C300.662 66.4325 299.263 67.1674 297.699 67.7364C296.134 68.258 294.474 68.5188 292.72 68.5188ZM295.494 59.7706C297.39 59.7706 299.05 59.3201 300.472 58.4193C301.895 57.5184 302.986 56.2618 303.744 54.6497C304.55 52.9902 304.953 51.0698 304.953 48.8887C304.953 46.755 304.55 44.8821 303.744 43.27C302.986 41.6578 301.895 40.4013 300.472 39.5004C299.05 38.5521 297.39 38.0779 295.494 38.0779C293.645 38.0779 292.009 38.5521 290.586 39.5004C289.211 40.4013 288.121 41.6578 287.315 43.27C286.509 44.8821 286.106 46.755 286.106 48.8887C286.106 51.0698 286.509 52.9902 287.315 54.6497C288.121 56.2618 289.211 57.5184 290.586 58.4193C292.009 59.3201 293.645 59.7706 295.494 59.7706Z" fill="#150049"/>
<path d="M257.464 67.8057V20.6509H267.564V67.8057H257.464ZM250.423 39.2141V30.1814H275.245V39.2141H250.423Z" fill="#150049"/>
<path d="M229.24 68.5188C225.399 68.5188 221.961 67.689 218.927 66.0295C215.94 64.3225 213.569 61.9991 211.814 59.0594C210.107 56.1196 209.254 52.7531 209.254 48.9598C209.254 45.1666 210.107 41.8238 211.814 38.9314C213.569 35.9917 215.94 33.6683 218.927 31.9613C221.961 30.2544 225.399 29.4009 229.24 29.4009C233.033 29.4009 236.423 30.2544 239.41 31.9613C242.445 33.6683 244.816 35.9917 246.523 38.9314C248.23 41.8238 249.083 45.1666 249.083 48.9598C249.083 52.7531 248.23 56.1196 246.523 59.0594C244.816 61.9991 242.445 64.3225 239.41 66.0295C236.423 67.689 233.033 68.5188 229.24 68.5188ZM229.24 59.6995C231.089 59.6995 232.748 59.249 234.218 58.3481C235.688 57.3998 236.826 56.1196 237.632 54.5075C238.486 52.8479 238.912 50.9987 238.912 48.9598C238.912 46.8735 238.486 45.0243 237.632 43.4122C236.826 41.7527 235.688 40.4724 234.218 39.5715C232.748 38.6232 231.089 38.1491 229.24 38.1491C227.343 38.1491 225.66 38.6232 224.19 39.5715C222.72 40.5198 221.558 41.8001 220.705 43.4122C219.851 45.0243 219.448 46.8735 219.496 48.9598C219.448 50.9987 219.851 52.8479 220.705 54.5075C221.558 56.1196 222.72 57.3998 224.19 58.3481C225.66 59.249 227.343 59.6995 229.24 59.6995Z" fill="#150049"/>
<path d="M192.38 68.5188C188.872 68.5188 185.742 67.9498 182.992 66.8118C180.289 65.6264 178.108 64.0143 176.449 61.9754L182.708 56.57C184.177 58.1348 185.813 59.2727 187.615 59.984C189.417 60.6478 191.219 60.9797 193.02 60.9797C193.732 60.9797 194.372 60.9086 194.941 60.7663C195.557 60.5767 196.079 60.3396 196.506 60.0551C196.932 59.7232 197.24 59.3439 197.43 58.9171C197.667 58.443 197.786 57.9451 197.786 57.4235C197.786 56.3804 197.359 55.5506 196.506 54.9342C196.031 54.6971 195.296 54.4126 194.301 54.0807C193.305 53.7014 192.025 53.2984 190.46 52.8716C188.042 52.2552 185.979 51.544 184.272 50.7379C182.613 49.8844 181.285 48.9361 180.289 47.893C179.436 46.8973 178.772 45.8304 178.298 44.6924C177.871 43.507 177.658 42.2031 177.658 40.7806C177.658 39.0737 178.037 37.5327 178.796 36.1576C179.554 34.7351 180.598 33.526 181.925 32.5303C183.3 31.5346 184.865 30.7759 186.619 30.2544C188.374 29.6854 190.223 29.4009 192.167 29.4009C194.111 29.4009 196.008 29.638 197.857 30.1121C199.706 30.5863 201.413 31.2738 202.978 32.1747C204.59 33.0282 205.989 34.0476 207.174 35.233L201.769 41.2074C200.915 40.4013 199.943 39.6664 198.853 39.0025C197.809 38.3387 196.719 37.8172 195.581 37.4378C194.443 37.0585 193.424 36.8688 192.523 36.8688C191.717 36.8688 190.982 36.94 190.318 37.0822C189.701 37.2245 189.18 37.4378 188.753 37.7223C188.326 38.0068 187.994 38.3861 187.757 38.8603C187.568 39.287 187.473 39.7612 187.473 40.2828C187.473 40.8043 187.591 41.3022 187.828 41.7764C188.113 42.2505 188.492 42.6536 188.966 42.9855C189.488 43.27 190.247 43.6019 191.242 43.9812C192.286 44.3605 193.684 44.7873 195.439 45.2614C197.715 45.8778 199.635 46.5653 201.2 47.324C202.812 48.0826 204.092 48.9598 205.04 49.9556C205.846 50.809 206.439 51.7811 206.818 52.8716C207.198 53.9622 207.387 55.1713 207.387 56.4989C207.387 58.8223 206.724 60.9086 205.396 62.7578C204.116 64.5596 202.338 65.982 200.062 67.0252C197.786 68.0209 195.225 68.5188 192.38 68.5188Z" fill="#150049"/>
<path d="M156.813 67.8057V20.6509H166.913V67.8057H156.813ZM149.772 39.2141V30.1814H174.594V39.2141H149.772Z" fill="#150049"/>
<path d="M135.145 67.8076V30.1833H145.244V67.8076H135.145ZM140.123 22.4308C138.179 22.4308 136.662 21.9566 135.571 21.0083C134.481 20.06 133.936 18.7087 133.936 16.9543C133.936 15.3422 134.481 14.0382 135.571 13.0425C136.709 11.9994 138.227 11.4778 140.123 11.4778C142.067 11.4778 143.585 11.9756 144.675 12.9714C145.766 13.9197 146.311 15.2473 146.311 16.9543C146.311 18.6138 145.742 19.9415 144.604 20.9372C143.514 21.9329 142.02 22.4308 140.123 22.4308Z" fill="#150049"/>
<path d="M89.1758 67.8074V18.021H110.797C114.116 18.021 116.914 18.5189 119.19 19.5146C121.513 20.4629 123.268 21.8617 124.453 23.7109C125.638 25.5601 126.231 27.7649 126.231 30.3254C126.231 33.1703 125.52 35.5411 124.097 37.4377C122.675 39.3343 120.636 40.6383 117.981 41.3495L117.91 39.927C120.091 40.4486 122.011 41.3021 123.671 42.4875C125.33 43.6729 126.61 45.1427 127.511 46.8971C128.412 48.6515 128.863 50.643 128.863 52.8715C128.863 55.3371 128.46 57.5182 127.654 59.4148C126.848 61.2641 125.662 62.8051 124.097 64.0379C122.533 65.2707 120.683 66.219 118.55 66.8828C116.463 67.4992 114.116 67.8074 111.509 67.8074H89.1758ZM99.4176 58.5614H111.082C112.599 58.5614 113.879 58.348 114.922 57.9213C116.013 57.4471 116.843 56.7359 117.412 55.7876C117.981 54.8392 118.265 53.725 118.265 52.4448C118.265 51.2119 117.957 50.1688 117.341 49.3153C116.724 48.4618 115.847 47.8217 114.709 47.395C113.619 46.9208 112.291 46.6838 110.726 46.6838H99.4176V58.5614ZM99.4176 38.2201H109.517C110.797 38.2201 111.912 37.983 112.86 37.5088C113.808 37.0347 114.519 36.3946 114.994 35.5885C115.515 34.7824 115.776 33.8341 115.776 32.7436C115.776 30.9892 115.207 29.6378 114.069 28.6895C112.931 27.7412 111.224 27.267 108.948 27.267H99.4176V38.2201Z" fill="#150049"/>
</svg>
