<svg width="20" height="20" viewBox="0 0 20 20" fill="none" xmlns="http://www.w3.org/2000/svg">
<g clip-path="url(#clip0_621_7889)">
<path d="M15.3392 4.87133C15.9646 5.60052 16.1211 6.607 15.766 7.48707C17.1349 9.49941 17.8802 11.8338 17.9225 14.2647L17.9204 14.3786C17.8857 14.9445 17.521 15.415 16.9668 15.5891C16.3738 15.7743 15.7414 15.5507 15.3951 15.0367C14.3688 13.507 13.1724 11.9944 11.8313 10.5351L4.41219 17.9542C4.18728 18.1808 3.8864 18.3062 3.56698 18.3064L3.56491 18.307C3.24576 18.307 2.94503 18.183 2.71831 17.9563L1.97323 17.2112C1.50688 16.7448 1.50726 15.9871 1.97185 15.5207L9.3937 8.09889C7.93312 6.75643 6.42137 5.55946 4.89211 4.53642C4.37742 4.19154 4.15541 3.55937 4.34245 2.96477C4.5274 2.37537 5.03178 1.99576 5.66551 2.00769C8.09619 2.04992 10.4311 2.79439 12.4417 4.16146C13.3801 3.78375 14.4651 3.98624 15.2032 4.72563L15.3392 4.87133ZM1.94491 16.9412C1.98303 16.999 2.02739 17.054 2.07819 17.1048L2.82466 17.8499C2.84741 17.8727 2.87143 17.8938 2.89578 17.9141C2.87139 17.8938 2.84742 17.8727 2.82466 17.8499L2.07888 17.1041C2.02808 17.0533 1.98305 16.9989 1.94491 16.9412ZM2.94757 17.9535C2.95392 17.9582 2.95978 17.9635 2.96621 17.968C2.95977 17.9635 2.95393 17.9582 2.94757 17.9535ZM3.01386 17.9991C3.02905 18.0085 3.04452 18.0174 3.06013 18.026C3.04451 18.0174 3.02906 18.0085 3.01386 17.9991ZM3.08844 18.0405C3.10624 18.0497 3.12402 18.0586 3.1423 18.0667C3.12401 18.0587 3.10626 18.0496 3.08844 18.0405ZM3.18719 18.0854C3.20336 18.0917 3.21973 18.0972 3.23621 18.1027C3.21972 18.0972 3.20337 18.0916 3.18719 18.0854ZM3.46133 18.151C3.39429 18.1445 3.32883 18.1312 3.26522 18.1123C3.32859 18.1312 3.39381 18.1452 3.46064 18.1517L3.46133 18.151ZM1.80612 16.1091C1.79311 16.1608 1.78283 16.213 1.77781 16.2658C1.78279 16.213 1.79314 16.1608 1.80612 16.1091ZM3.79347 18.1296C3.81224 18.1254 3.83096 18.1216 3.84941 18.1165C3.83097 18.1216 3.81223 18.1254 3.79347 18.1296ZM4.01721 18.0522C3.99029 18.0652 3.96297 18.0769 3.93503 18.0875C3.96299 18.0769 3.99027 18.0652 4.01721 18.0522ZM4.07452 18.0225C4.09381 18.0117 4.11252 18.0001 4.13115 17.988C4.11254 18.0001 4.0938 18.0117 4.07452 18.0225ZM4.30516 17.8485C4.27524 17.8787 4.24334 17.9061 4.21056 17.9321C4.21645 17.9274 4.22339 17.9238 4.2292 17.919L4.30516 17.8485L11.8368 10.3196C12.0019 10.498 12.165 10.677 12.3257 10.8569C12.1648 10.6768 12.0021 10.4967 11.8368 10.3183L4.30516 17.8485ZM14.2834 5.64542C13.8675 5.22986 13.2288 5.15842 12.7283 5.46864C12.5036 5.60613 12.2191 5.59602 12.0046 5.4424L12.0039 5.44171C10.2534 4.16966 8.21003 3.44167 6.07155 3.32246L5.64203 3.30727L5.63996 3.30658C5.62479 3.30661 5.61555 3.309 5.61096 3.31072C5.60674 3.31233 5.6037 3.31412 5.60129 3.31625C5.59545 3.32159 5.58733 3.33338 5.58127 3.35285V3.35561C5.57738 3.36727 5.57284 3.38649 5.57574 3.40395C5.57706 3.41144 5.57969 3.41913 5.58403 3.42604C5.58846 3.43296 5.59737 3.44366 5.61441 3.45505C7.3763 4.63487 9.11316 6.03311 10.7748 7.60999C10.903 7.73016 10.9771 7.8975 10.9792 8.07265C10.981 8.24664 10.9136 8.41584 10.7879 8.54152L2.9676 16.3604L3.59115 16.9356L11.3873 9.1409C11.5086 9.01971 11.673 8.95045 11.8458 8.95031H11.8568C12.0321 8.95235 12.1983 9.02624 12.3195 9.15333C13.8934 10.8135 15.2923 12.5496 16.4737 14.3116C16.485 14.3285 16.4956 14.3388 16.5028 14.3434C16.51 14.3479 16.5182 14.3502 16.5262 14.3517C16.5445 14.3549 16.5647 14.3519 16.5766 14.3482C16.5948 14.3425 16.6053 14.334 16.6105 14.3282C16.6126 14.3258 16.615 14.3226 16.6167 14.3178C16.6185 14.3127 16.6209 14.303 16.6208 14.2875L16.605 13.8586C16.4861 11.7199 15.7592 9.67692 14.4871 7.92625C14.3311 7.7114 14.3203 7.42569 14.4602 7.2005C14.7511 6.72948 14.707 6.13866 14.358 5.72552L14.2834 5.64542ZM15.6278 15.0912C15.6333 15.0973 15.6389 15.1032 15.6444 15.1092C15.6389 15.1032 15.6333 15.0973 15.6278 15.0912ZM4.69255 4.14903C4.69702 4.15467 4.70179 4.16004 4.70636 4.1656C4.70178 4.16004 4.69702 4.15466 4.69255 4.14903ZM15.7528 15.2107C15.7648 15.2209 15.7764 15.2314 15.7887 15.2411C15.7764 15.2314 15.7648 15.2208 15.7528 15.2107ZM15.5201 14.9531H15.5187H15.5201ZM4.58414 3.98676C4.59089 3.99881 4.59768 4.01083 4.60485 4.02266C4.59767 4.01083 4.5909 3.99881 4.58414 3.98676ZM15.9089 15.3239C15.9192 15.3302 15.9295 15.3366 15.94 15.3426C15.9295 15.3366 15.9192 15.3302 15.9089 15.3239ZM16.0691 15.4054C16.0835 15.4115 16.098 15.4172 16.1126 15.4227C16.098 15.4172 16.0835 15.4115 16.0691 15.4054ZM4.51163 3.83415C4.51306 3.83781 4.51431 3.84155 4.51577 3.8452C4.5143 3.84155 4.51306 3.83781 4.51163 3.83415ZM6.15372 5.23593L6.15441 5.23662L6.15372 5.23593ZM16.2479 15.4655C16.2623 15.4691 16.2769 15.4714 16.2914 15.4745C16.2769 15.4714 16.2623 15.4691 16.2479 15.4655ZM4.45708 3.65668C4.458 3.66083 4.45887 3.66498 4.45984 3.66911C4.45887 3.66498 4.45801 3.66083 4.45708 3.65668ZM16.4358 15.4973C16.4477 15.4983 16.4597 15.4993 16.4717 15.5C16.4597 15.4993 16.4477 15.4983 16.4358 15.4973ZM4.43084 3.47438C4.43119 3.47946 4.4318 3.4845 4.43222 3.48957C4.4318 3.4845 4.43119 3.47946 4.43084 3.47438ZM12.8491 11.4549C13.1769 11.8365 13.4954 12.2204 13.8028 12.6074C13.4954 12.2204 13.1768 11.8365 12.8491 11.4549ZM16.6222 15.5C16.637 15.4991 16.6516 15.4973 16.6664 15.4959C16.6516 15.4973 16.637 15.4991 16.6222 15.5ZM4.43222 3.28241C4.43164 3.28911 4.43061 3.29575 4.43015 3.30244C4.43061 3.29575 4.43165 3.28911 4.43222 3.28241ZM16.8211 15.4724C16.8132 15.4742 16.8049 15.4742 16.7969 15.4759C16.805 15.4742 16.8137 15.4749 16.8218 15.4731L16.9212 15.4455L16.8211 15.4724ZM4.48539 3.00965L4.4847 3.01034L4.48539 3.00965ZM17.0863 15.3799C17.092 15.3772 17.0979 15.375 17.1035 15.3723C17.0979 15.375 17.0919 15.3772 17.0863 15.3799ZM16.3488 14.3952C16.3598 14.4119 16.3718 14.4265 16.384 14.4387L16.3495 14.3959C16.2129 14.1921 16.0733 13.9884 15.931 13.7854C16.0732 13.9882 16.2123 14.1916 16.3488 14.3952ZM17.252 15.286C17.2583 15.2817 17.2644 15.2772 17.2706 15.2728C17.2644 15.2772 17.2583 15.2817 17.252 15.286ZM16.5421 14.5001C16.5518 14.5001 16.561 14.5025 16.5697 14.5015L16.5773 14.4994C16.5665 14.501 16.5547 14.5001 16.5421 14.5001ZM15.7839 13.5803C15.6766 13.4296 15.569 13.2782 15.4587 13.128C15.569 13.2782 15.6766 13.4296 15.7839 13.5803ZM17.3866 15.1803C17.3951 15.1726 17.4033 15.1647 17.4115 15.1568C17.4033 15.1647 17.3951 15.1726 17.3866 15.1803ZM11.5606 9.19131C11.5434 9.20328 11.5272 9.21651 11.5116 9.23067C11.5272 9.21649 11.5435 9.20332 11.5606 9.19131ZM15.3509 12.9844C15.2342 12.8272 15.1161 12.6701 14.996 12.5135C15.1161 12.67 15.2342 12.8272 15.3509 12.9844ZM5.55779 3.17055C5.55387 3.17203 5.55043 3.17438 5.54674 3.17607C5.56141 3.1694 5.57747 3.16337 5.59577 3.16019L5.55779 3.17055ZM11.6386 9.14643C11.6204 9.15475 11.6033 9.16496 11.5861 9.17543C11.6033 9.1649 11.6204 9.1548 11.6386 9.14643ZM17.5054 15.0533C17.5137 15.0431 17.5223 15.0333 17.5303 15.0229C17.5223 15.0333 17.5137 15.0431 17.5054 15.0533ZM14.8544 12.3305C14.7418 12.1854 14.628 12.0405 14.5126 11.8961C14.628 12.0405 14.7418 12.1854 14.8544 12.3305ZM11.7312 9.11466C11.7091 9.1199 11.6873 9.12586 11.6663 9.134C11.6873 9.12581 11.7091 9.11992 11.7312 9.11466ZM14.3476 11.691C14.2466 11.5663 14.1441 11.4423 14.041 11.3182C14.1441 11.4423 14.2466 11.5664 14.3476 11.691ZM17.6124 14.8993C17.6177 14.8901 17.6226 14.8809 17.6276 14.8716C17.6226 14.8809 17.6177 14.8902 17.6124 14.8993ZM13.8338 11.0696C13.723 10.9382 13.6107 10.8073 13.4975 10.6766C13.6107 10.8073 13.7229 10.9382 13.8338 11.0696ZM13.3215 10.4729C13.1474 10.2744 12.971 10.0764 12.7918 9.87977C12.971 10.0765 13.1473 10.2744 13.3215 10.4729ZM17.6877 14.7425C17.6928 14.7295 17.6976 14.7164 17.7022 14.7032C17.6976 14.7164 17.6928 14.7295 17.6877 14.7425ZM6.85392 3.24305C6.69871 3.22364 6.54283 3.20838 6.38643 3.1954C6.54283 3.20838 6.69871 3.22364 6.85392 3.24305ZM17.1878 10.7264C17.5532 11.863 17.7515 13.0527 17.7726 14.2667C17.7728 14.2774 17.772 14.2886 17.772 14.2992L17.7733 14.2674C17.7522 13.0532 17.5534 11.8633 17.1878 10.7264ZM6.53835 2.20242C6.43503 2.19329 6.33137 2.18686 6.22761 2.18032C6.33137 2.18686 6.43502 2.19328 6.53835 2.20242ZM8.14729 3.48267C7.92145 3.427 7.69374 3.37855 7.46435 3.33696C7.69374 3.37855 7.92145 3.42699 8.14729 3.48267ZM6.96579 2.24868C6.89046 2.23936 6.81489 2.23176 6.73929 2.22382C6.81489 2.23176 6.89046 2.23936 6.96579 2.24868ZM7.38425 2.30807C7.29673 2.29416 7.20908 2.28073 7.12116 2.26871C7.20908 2.28074 7.29673 2.29415 7.38425 2.30807ZM7.77647 2.37712C7.71239 2.36479 7.64814 2.35322 7.58382 2.3419C7.64814 2.35323 7.71239 2.36478 7.77647 2.37712ZM9.43445 3.8818L9.43514 3.88249L9.43445 3.8818ZM8.27642 2.48484C8.18249 2.46265 8.0885 2.4406 7.99399 2.42063C8.0885 2.44062 8.18249 2.46263 8.27642 2.48484ZM8.66174 2.58152C8.56514 2.55534 8.46829 2.53006 8.37102 2.50625C8.46828 2.53007 8.56515 2.55532 8.66174 2.58152ZM9.03394 2.68993C8.95985 2.6673 8.8861 2.64348 8.81158 2.62226C8.8861 2.64349 8.95985 2.66729 9.03394 2.68993ZM15.315 8.9365C15.3855 9.06115 15.4539 9.1867 15.5194 9.31354C15.3879 9.05887 15.2462 8.80854 15.0948 8.56292L15.315 8.9365ZM9.61468 2.88121C9.51333 2.8446 9.41101 2.81084 9.30877 2.77694C9.41101 2.81086 9.51334 2.84458 9.61468 2.88121ZM9.99999 3.02899C9.89536 2.98714 9.7901 2.94705 9.68442 2.90814C9.79009 2.94707 9.89537 2.98712 9.99999 3.02899ZM12.3678 5.41478L12.3671 5.41547L12.3678 5.41478ZM10.4095 3.20231C10.3219 3.16354 10.234 3.12573 10.1457 3.08906C10.234 3.12574 10.3219 3.16353 10.4095 3.20231ZM10.8169 3.39152C10.7157 3.34221 10.614 3.29432 10.5117 3.24788C10.614 3.29433 10.7157 3.3422 10.8169 3.39152ZM11.1787 3.5752C11.0916 3.5291 11.0038 3.48447 10.9156 3.44054C11.0037 3.48448 11.0916 3.52909 11.1787 3.5752ZM11.6352 3.82862C11.5245 3.76397 11.4133 3.70045 11.301 3.63942C11.4133 3.70046 11.5245 3.76396 11.6352 3.82862ZM16.0871 8.27083L16.0877 8.27152L16.0871 8.27083ZM11.7077 3.87075C11.6949 3.86317 11.6818 3.85618 11.669 3.84865C11.7955 3.92308 11.9211 3.99946 12.0454 4.0786L11.7077 3.87075ZM14.1038 5.31811L14.1045 5.3188L14.1038 5.31811Z" fill="#150049" fill-opacity="0.6"/>
</g>
<defs>
<clipPath id="clip0_621_7889">
<rect width="20" height="20" fill="white"/>
</clipPath>
</defs>
</svg>
