<svg width="20" height="20" viewBox="0 0 20 20" fill="none" xmlns="http://www.w3.org/2000/svg">
<path d="M17.5 10C17.5 5.85837 14.1424 2.5 10 2.5C5.85757 2.5 2.5 5.85837 2.5 10C2.5 14.1424 5.85757 17.5 10 17.5C14.1424 17.5 17.5 14.1424 17.5 10Z" stroke="#8EFBFF" stroke-width="1.25" stroke-linecap="round" stroke-linejoin="round"/>
<path fill-rule="evenodd" clip-rule="evenodd" d="M12.1098 10.9533C11.4417 11.5629 10.6082 12.1127 9.68958 12.4857C8.90875 12.7962 8.25362 12.4087 8.15795 11.6319C8.04119 10.4854 8.04362 9.38917 8.15795 8.36592C8.26254 7.55755 8.98333 7.21458 9.68958 7.51458C10.5936 7.88837 11.4044 8.39592 12.1098 9.04784C12.7122 9.59834 12.7268 10.3808 12.1098 10.9533Z" stroke="#8EFBFF" stroke-width="1.25" stroke-linecap="round" stroke-linejoin="round"/>
</svg>
