<svg width="229" height="12" viewBox="0 0 229 12" fill="none" xmlns="http://www.w3.org/2000/svg">
<path d="M4.66406 24H-1.33594V0H4.66406V24ZM12.6641 24H6.66406V0H12.6641V24ZM20.6641 24H14.6641V0H20.6641V24ZM28.6641 24H22.6641V0H28.6641V24ZM36.6641 24H30.6641V0H36.6641V24ZM44.6641 24H38.6641V0H44.6641V24ZM52.6641 24H46.6641V0H52.6641V24ZM60.6641 24H54.6641V0H60.6641V24ZM68.6641 24H62.6641V0H68.6641V24ZM76.6641 24H70.6641V0H76.6641V24ZM84.6641 24H78.6641V0H84.6641V24ZM92.6641 24H86.6641V0H92.6641V24ZM100.664 24H94.6641V0H100.664V24ZM108.664 24H102.664V0H108.664V24ZM116.664 24H110.664V0H116.664V24ZM124.664 24H118.664V0H124.664V24ZM132.664 24H126.664V0H132.664V24ZM140.664 24H134.664V0H140.664V24ZM148.664 24H142.664V0H148.664V24ZM156.664 24H150.664V0H156.664V24ZM164.664 24H158.664V0H164.664V24ZM172.664 24H166.664V0H172.664V24ZM180.664 24H174.664V0H180.664V24ZM188.664 24H182.664V0H188.664V24ZM196.664 24H190.664V0H196.664V24ZM204.664 24H198.664V0H204.664V24ZM212.664 24H206.664V0H212.664V24ZM220.664 24H214.664V0H220.664V24ZM228.664 24H222.664V0H228.664V24Z" fill="#150049" fill-opacity="0.6"/>
</svg>
