<svg width="20" height="20" viewBox="0 0 20 20" fill="none" xmlns="http://www.w3.org/2000/svg">
<path d="M16.8071 7.41276V12.5866C16.8071 13.4177 16.3635 14.1856 15.6435 14.6015L11.1638 17.188C10.4438 17.604 9.55667 17.604 8.83667 17.188L4.35608 14.6015C3.63688 14.1856 3.19336 13.4177 3.19336 12.5866V7.41276C3.19336 6.58167 3.63688 5.81382 4.35608 5.39869L8.83667 2.81136C9.55667 2.39621 10.4438 2.39621 11.1638 2.81136L15.6435 5.39869C16.3635 5.81382 16.8071 6.58167 16.8071 7.41276Z" stroke="#150049" stroke-opacity="0.6" stroke-width="1.25" stroke-linecap="round" stroke-linejoin="round"/>
<path d="M9.99934 12.3056C11.2732 12.3056 12.3053 11.2734 12.3053 9.99959C12.3053 8.72575 11.2732 7.6936 9.99934 7.6936C8.72551 7.6936 7.69336 8.72575 7.69336 9.99959C7.69336 11.2734 8.72551 12.3056 9.99934 12.3056Z" stroke="#150049" stroke-opacity="0.6" stroke-width="1.25" stroke-linecap="round" stroke-linejoin="round"/>
</svg>
