<svg width="634" height="301" viewBox="0 0 634 301" fill="none" xmlns="http://www.w3.org/2000/svg">
<path opacity="0.6" d="M571 102.693H499V194.693H634V270.693H0V194.693H162V91.6931H113V41.6931H163V89.6931H228V6.69312H571V102.693Z" fill="#B8B2C9"/>
<g clip-path="url(#clip0_621_8138)">
<path d="M486.356 51.3245L487.127 51.531L486.92 52.3019L486.149 52.0954L486.356 51.3245Z" fill="#726692"/>
<path d="M490.3 52.3821L491.07 52.5883L490.864 53.3581L490.094 53.1519L490.3 52.3821Z" fill="#726692"/>
<path d="M494.223 53.4011L495.052 53.6234L494.83 54.4527L494 54.2305L494.223 53.4011Z" fill="#726692"/>
<path d="M498.202 54.519L498.935 54.7154L498.739 55.4482L498.006 55.2519L498.202 54.519Z" fill="#726692"/>
<path d="M502.289 55.823L502.632 55.9149L502.54 56.258L502.197 56.166L502.289 55.823Z" fill="#726692"/>
<path d="M481.42 54.3257L482.012 54.4841L481.853 55.0754L481.262 54.917L481.42 54.3257Z" fill="#726692"/>
<path d="M485.209 55.1128L486.226 55.3852L485.953 56.4021L484.937 56.1296L485.209 55.1128Z" fill="#726692"/>
<path d="M489.254 56.3452L489.994 56.5435L489.796 57.2834L489.056 57.0851L489.254 56.3452Z" fill="#726692"/>
<path d="M493.033 57.115L494.226 57.4345L493.906 58.6269L492.714 58.3074L493.033 57.115Z" fill="#726692"/>
<path d="M496.849 57.949L498.393 58.3627L497.979 59.9068L496.435 59.4931L496.849 57.949Z" fill="#726692"/>
<path d="M500.666 58.7852L502.558 59.2922L502.051 61.1844L500.159 60.6774L500.666 58.7852Z" fill="#726692"/>
<path d="M504.627 59.8718L506.472 60.3662L505.978 62.2114L504.133 61.717L504.627 59.8718Z" fill="#726692"/>
<path d="M508.962 61.6055L509.739 61.8138L509.531 62.5912L508.754 62.3829L508.962 61.6055Z" fill="#726692"/>
<path d="M456.822 52.1418L457.077 52.2102L457.009 52.4653L456.753 52.397L456.822 52.1418Z" fill="#726692"/>
<path d="M460.735 53.1465L461.073 53.237L460.983 53.5749L460.645 53.4844L460.735 53.1465Z" fill="#726692"/>
<path d="M464.667 54.1814L465.039 54.2811L464.939 54.6532L464.567 54.5535L464.667 54.1814Z" fill="#726692"/>
<path d="M468.617 55.248L468.974 55.3436L468.878 55.7003L468.522 55.6047L468.617 55.248Z" fill="#726692"/>
<path d="M472.304 55.8596L473.363 56.1434L473.079 57.2023L472.02 56.9185L472.304 55.8596Z" fill="#726692"/>
<path d="M476.252 56.9236L477.3 57.2044L477.02 58.2522L475.972 57.9714L476.252 56.9236Z" fill="#726692"/>
<path d="M480.249 58.0713L481.154 58.3137L480.911 59.2183L480.007 58.9759L480.249 58.0713Z" fill="#726692"/>
<path d="M484.144 59.0422L485.183 59.3208L484.905 60.3606L483.865 60.082L484.144 59.0422Z" fill="#726692"/>
<path d="M488.018 59.9771L489.25 60.3073L488.92 61.5396L487.687 61.2094L488.018 59.9771Z" fill="#726692"/>
<path d="M491.821 60.791L493.437 61.2239L493.004 62.8395L491.388 62.4066L491.821 60.791Z" fill="#726692"/>
<path d="M495.666 61.6755L497.553 62.1812L497.048 64.0685L495.16 63.5628L495.666 61.6755Z" fill="#726692"/>
<path d="M499.479 62.5039L501.726 63.1062L501.124 65.3539L498.876 64.7517L499.479 62.5039Z" fill="#726692"/>
<path d="M503.247 63.2571L505.974 63.9877L505.243 66.7145L502.516 65.9839L503.247 63.2571Z" fill="#726692"/>
<path d="M507.224 64.3696L509.862 65.0767L509.155 67.7156L506.517 67.0085L507.224 64.3696Z" fill="#726692"/>
<path d="M511.942 66.7673L512.466 66.9077L512.325 67.4317L511.801 67.2913L511.942 66.7673Z" fill="#726692"/>
<path d="M435.958 50.6536L436.447 50.7846L436.316 51.2738L435.827 51.1427L435.958 50.6536Z" fill="#726692"/>
<path d="M439.834 51.5928L440.509 51.7735L440.328 52.4482L439.654 52.2674L439.834 51.5928Z" fill="#726692"/>
<path d="M443.71 52.532L444.571 52.7624L444.34 53.6225L443.48 53.3921L443.71 52.532Z" fill="#726692"/>
<path d="M447.588 53.4741L448.63 53.7531L448.351 54.7942L447.309 54.5153L447.588 53.4741Z" fill="#726692"/>
<path d="M451.504 54.4805L452.625 54.7807L452.324 55.9014L451.204 55.6011L451.504 54.4805Z" fill="#726692"/>
<path d="M455.437 55.5178L456.588 55.8264L456.28 56.978L455.128 56.6694L455.437 55.5178Z" fill="#726692"/>
<path d="M459.363 56.5437L460.563 56.8653L460.241 58.0654L459.041 57.7439L459.363 56.5437Z" fill="#726692"/>
<path d="M463.283 57.5593L464.549 57.8984L464.209 59.1637L462.944 58.8246L463.283 57.5593Z" fill="#726692"/>
<path d="M467.245 58.647L468.462 58.973L468.136 60.1897L466.919 59.8637L467.245 58.647Z" fill="#726692"/>
<path d="M471.062 59.4839L472.626 59.9028L472.207 61.4664L470.644 61.0474L471.062 59.4839Z" fill="#726692"/>
<path d="M475.17 60.8242L476.287 61.1233L475.988 62.2396L474.871 61.9405L475.17 60.8242Z" fill="#726692"/>
<path d="M479.275 62.1592L479.953 62.3408L479.771 63.0188L479.093 62.8371L479.275 62.1592Z" fill="#726692"/>
<path d="M483.19 63.165L483.949 63.3683L483.745 64.1269L482.987 63.9236L483.19 63.165Z" fill="#726692"/>
<path d="M486.986 63.9648L488.15 64.2767L487.838 65.4405L486.674 65.1287L486.986 63.9648Z" fill="#726692"/>
<path d="M490.821 64.8333L492.282 65.2247L491.891 66.6856L490.43 66.2942L490.821 64.8333Z" fill="#726692"/>
<path d="M494.664 65.7151L496.401 66.1805L495.936 67.9177L494.199 67.4522L494.664 65.7151Z" fill="#726692"/>
<path d="M498.492 66.5698L500.547 67.1207L499.997 69.1764L497.941 68.6256L498.492 66.5698Z" fill="#726692"/>
<path d="M502.258 67.3188L504.8 67.9998L504.119 70.5413L501.577 69.8603L502.258 67.3188Z" fill="#726692"/>
<path d="M506.146 68.2786L508.841 69.0005L508.119 71.6948L505.425 70.9729L506.146 68.2786Z" fill="#726692"/>
<path d="M510.89 70.7207L511.4 70.8572L511.263 71.3668L510.754 71.2303L510.89 70.7207Z" fill="#726692"/>
<path d="M423.085 51.4558L423.529 51.5747L423.41 52.0186L422.966 51.8997L423.085 51.4558Z" fill="#726692"/>
<path d="M426.914 52.313L427.673 52.5162L427.469 53.2748L426.711 53.0715L426.914 52.313Z" fill="#726692"/>
<path d="M430.761 53.2007L431.786 53.4755L431.512 54.5012L430.486 54.2264L430.761 53.2007Z" fill="#726692"/>
<path d="M434.688 54.228L435.76 54.5153L435.473 55.5874L434.401 55.3001L434.688 54.228Z" fill="#726692"/>
<path d="M438.58 55.1941L439.795 55.5198L439.469 56.7355L438.254 56.4097L438.58 55.1941Z" fill="#726692"/>
<path d="M442.478 56.1709L443.819 56.5304L443.46 57.8719L442.118 57.5124L442.478 56.1709Z" fill="#726692"/>
<path d="M446.402 57.1943L447.797 57.568L447.423 58.9625L446.029 58.5889L446.402 57.1943Z" fill="#726692"/>
<path d="M450.33 58.2224L451.77 58.6082L451.384 60.048L449.944 59.6622L450.33 58.2224Z" fill="#726692"/>
<path d="M454.256 59.2471L455.746 59.6465L455.347 61.1371L453.856 60.7377L454.256 59.2471Z" fill="#726692"/>
<path d="M458.175 60.2605L459.734 60.6783L459.316 62.2374L457.757 61.8196L458.175 60.2605Z" fill="#726692"/>
<path d="M462.1 61.2837L463.712 61.7157L463.28 63.3278L461.668 62.8958L462.1 61.2837Z" fill="#726692"/>
<path d="M466.132 62.4939L467.503 62.8611L467.135 64.2314L465.765 63.8642L466.132 62.4939Z" fill="#726692"/>
<path d="M470.006 63.4282L471.569 63.8472L471.15 65.4107L469.587 64.9918L470.006 63.4282Z" fill="#726692"/>
<path d="M474.146 64.8237L475.175 65.0995L474.899 66.1286L473.87 65.8528L474.146 64.8237Z" fill="#726692"/>
<path d="M478.202 66.0745L478.925 66.2683L478.731 66.9915L478.008 66.7977L478.202 66.0745Z" fill="#726692"/>
<path d="M482.044 66.9558L483.045 67.2239L482.777 68.2243L481.776 67.9562L482.044 66.9558Z" fill="#726692"/>
<path d="M485.798 67.6821L487.32 68.0899L486.912 69.6116L485.39 69.2038L485.798 67.6821Z" fill="#726692"/>
<path d="M489.623 68.533L491.469 69.0277L490.975 70.8742L489.128 70.3794L489.623 68.533Z" fill="#726692"/>
<path d="M493.456 69.3965L495.607 69.9729L495.03 72.1243L492.879 71.5479L493.456 69.3965Z" fill="#726692"/>
<path d="M497.289 70.2615L499.743 70.9191L499.086 73.3732L496.631 72.7156L497.289 70.2615Z" fill="#726692"/>
<path d="M501.139 71.155L503.851 71.8816L503.124 74.5933L500.413 73.8667L501.139 71.155Z" fill="#726692"/>
<path d="M505.057 72.1658L507.841 72.9119L507.095 75.6965L504.311 74.9504L505.057 72.1658Z" fill="#726692"/>
<path d="M509.207 73.5789L511.429 74.1743L510.833 76.3967L508.611 75.8012L509.207 73.5789Z" fill="#726692"/>
<path d="M513.773 75.7141L514.295 75.8538L514.155 76.3752L513.634 76.2355L513.773 75.7141Z" fill="#726692"/>
<path d="M414.118 53.2478L414.622 53.383L414.487 53.8876L413.982 53.7524L414.118 53.2478Z" fill="#726692"/>
<path d="M417.92 54.0598L418.811 54.2986L418.573 55.1896L417.682 54.9508L417.92 54.0598Z" fill="#726692"/>
<path d="M421.812 55.0256L422.847 55.3028L422.569 56.3374L421.535 56.0602L421.812 55.0256Z" fill="#726692"/>
<path d="M425.683 55.9558L426.917 56.2866L426.587 57.521L425.352 57.1902L425.683 55.9558Z" fill="#726692"/>
<path d="M429.593 56.9524L430.922 57.3086L430.566 58.638L429.237 58.2818L429.593 56.9524Z" fill="#726692"/>
<path d="M433.519 57.9778L434.898 58.3473L434.528 59.7264L433.149 59.3568L433.519 57.9778Z" fill="#726692"/>
<path d="M437.452 59.0149L438.862 59.3927L438.484 60.8027L437.074 60.4249L437.452 59.0149Z" fill="#726692"/>
<path d="M441.384 60.0522L442.825 60.4383L442.439 61.8793L440.998 61.4932L441.384 60.0522Z" fill="#726692"/>
<path d="M445.318 61.0901L446.789 61.4842L446.395 62.9549L444.924 62.5608L445.318 61.0901Z" fill="#726692"/>
<path d="M449.245 62.1182L450.761 62.5244L450.355 64.0404L448.839 63.6342L449.245 62.1182Z" fill="#726692"/>
<path d="M453.171 63.1436L454.737 63.5631L454.318 65.1288L452.752 64.7093L453.171 63.1436Z" fill="#726692"/>
<path d="M457.094 64.1633L458.719 64.5986L458.283 66.2229L456.659 65.7876L457.094 64.1633Z" fill="#726692"/>
<path d="M461.021 65.1907L462.692 65.6383L462.245 67.309L460.574 66.8614L461.021 65.1907Z" fill="#726692"/>
<path d="M465.019 66.3394L466.545 66.7483L466.136 68.2743L464.61 67.8654L465.019 66.3394Z" fill="#726692"/>
<path d="M468.973 67.4136L470.471 67.8151L470.07 69.3135L468.571 68.912L468.973 67.4136Z" fill="#726692"/>
<path d="M473.122 68.8262L474.059 69.0774L473.808 70.0148L472.871 69.7636L473.122 68.8262Z" fill="#726692"/>
<path d="M477.126 69.9873L477.899 70.1944L477.692 70.9674L476.919 70.7602L477.126 69.9873Z" fill="#726692"/>
<path d="M480.913 70.7703L482.117 71.0931L481.795 72.2978L480.59 71.975L480.913 70.7703Z" fill="#726692"/>
<path d="M484.701 71.5562L486.333 71.9935L485.895 73.6256L484.263 73.1883L484.701 71.5562Z" fill="#726692"/>
<path d="M488.526 72.4072L490.483 72.9316L489.958 74.8885L488.002 74.3641L488.526 72.4072Z" fill="#726692"/>
<path d="M492.353 73.2615L494.629 73.8714L494.019 76.1476L491.743 75.5377L492.353 73.2615Z" fill="#726692"/>
<path d="M496.175 74.1069L498.785 74.8063L498.086 77.4162L495.476 76.7169L496.175 74.1069Z" fill="#726692"/>
<path d="M499.984 74.9297L502.963 75.7279L502.165 78.707L499.186 77.9088L499.984 74.9297Z" fill="#726692"/>
<path d="M503.852 75.8535L507.041 76.708L506.186 79.8971L502.997 79.0426L503.852 75.8535Z" fill="#726692"/>
<path d="M507.936 77.1533L510.742 77.9051L509.99 80.7106L507.184 79.9589L507.936 77.1533Z" fill="#726692"/>
<path d="M512.217 78.7937L514.103 79.2988L513.597 81.1841L511.712 80.6789L512.217 78.7937Z" fill="#726692"/>
<path d="M516.485 80.4114L517.486 80.6795L517.218 81.6801L516.217 81.412L516.485 80.4114Z" fill="#726692"/>
<path d="M405.23 55.1792L405.576 55.2718L405.483 55.6174L405.138 55.5248L405.23 55.1792Z" fill="#726692"/>
<path d="M408.989 55.9141L409.842 56.1428L409.614 56.9963L408.76 56.7676L408.989 55.9141Z" fill="#726692"/>
<path d="M412.853 56.8315L413.926 57.1191L413.638 58.1923L412.565 57.9047L412.853 56.8315Z" fill="#726692"/>
<path d="M416.708 57.7351L418.024 58.0875L417.671 59.4025L416.356 59.0501L416.708 57.7351Z" fill="#726692"/>
<path d="M420.636 58.7632L421.997 59.1277L421.632 60.488L420.272 60.1235L420.636 58.7632Z" fill="#726692"/>
<path d="M424.575 59.8103L425.95 60.1789L425.582 61.5547L424.206 61.1861L424.575 59.8103Z" fill="#726692"/>
<path d="M428.512 60.8545L429.907 61.2285L429.533 62.6241L428.138 62.2501L428.512 60.8545Z" fill="#726692"/>
<path d="M432.441 61.8855L433.877 62.2704L433.493 63.7069L432.056 63.322L432.441 61.8855Z" fill="#726692"/>
<path d="M436.378 62.9304L437.833 63.3204L437.443 64.7756L435.988 64.3857L436.378 62.9304Z" fill="#726692"/>
<path d="M440.311 63.9678L441.797 64.366L441.399 65.8522L439.913 65.454L440.311 63.9678Z" fill="#726692"/>
<path d="M444.243 65.0034L445.762 65.4105L445.355 66.9298L443.836 66.5227L444.243 65.0034Z" fill="#726692"/>
<path d="M448.17 66.031L449.736 66.4505L449.317 68.0163L447.751 67.5967L448.17 66.031Z" fill="#726692"/>
<path d="M452.097 67.0576L453.71 67.4899L453.278 69.1031L451.665 68.6709L452.097 67.0576Z" fill="#726692"/>
<path d="M456.019 68.0759L457.693 68.5245L457.244 70.1985L455.57 69.7499L456.019 68.0759Z" fill="#726692"/>
<path d="M459.957 69.1226L461.648 69.5755L461.195 71.2661L459.504 70.8131L459.957 69.1226Z" fill="#726692"/>
<path d="M463.945 70.2549L465.516 70.6759L465.095 72.2472L463.524 71.8262L463.945 70.2549Z" fill="#726692"/>
<path d="M467.95 71.4175L469.355 71.7938L468.978 73.1984L467.574 72.822L467.95 71.4175Z" fill="#726692"/>
<path d="M472.09 72.813L472.96 73.0461L472.727 73.9162L471.857 73.6831L472.09 72.813Z" fill="#726692"/>
<path d="M476.041 73.8811L476.893 74.1095L476.665 74.962L475.812 74.7336L476.041 73.8811Z" fill="#726692"/>
<path d="M479.792 74.604L481.171 74.9736L480.802 76.3528L479.422 75.9832L479.792 74.604Z" fill="#726692"/>
<path d="M483.598 75.4207L485.356 75.8917L484.885 77.6498L483.127 77.1787L483.598 75.4207Z" fill="#726692"/>
<path d="M487.425 76.2751L489.502 76.8318L488.946 78.9091L486.868 78.3525L487.425 76.2751Z" fill="#726692"/>
<path d="M491.247 77.1204L493.658 77.7664L493.012 80.1775L490.601 79.5314L491.247 77.1204Z" fill="#726692"/>
<path d="M495.064 77.9578L497.821 78.6965L497.083 81.4534L494.326 80.7147L495.064 77.9578Z" fill="#726692"/>
<path d="M498.882 78.7954L501.985 79.6268L501.154 82.7296L498.051 81.8982L498.882 78.7954Z" fill="#726692"/>
<path d="M502.759 79.7361L506.046 80.6166L505.165 83.9029L501.879 83.0223L502.759 79.7361Z" fill="#726692"/>
<path d="M506.924 81.1753L509.607 81.8942L508.888 84.5771L506.205 83.8582L506.924 81.1753Z" fill="#726692"/>
<path d="M511.13 82.6848L513.099 83.2124L512.571 85.1815L510.602 84.6539L511.13 82.6848Z" fill="#726692"/>
<path d="M515.173 83.9126L516.872 84.368L516.417 86.0674L514.717 85.6121L515.173 83.9126Z" fill="#726692"/>
<path d="M519.109 84.9561L520.83 85.4171L520.369 87.1376L518.648 86.6766L519.109 84.9561Z" fill="#726692"/>
<path d="M523.275 86.3972L524.39 86.6958L524.091 87.8102L522.977 87.5116L523.275 86.3972Z" fill="#726692"/>
<path d="M400.123 57.8811L400.761 58.0521L400.59 58.6903L399.952 58.5193L400.123 57.8811Z" fill="#726692"/>
<path d="M403.904 58.6565L404.986 58.9464L404.696 60.0285L403.614 59.7386L403.904 58.6565Z" fill="#726692"/>
<path d="M407.715 59.4814L409.162 59.8693L408.775 61.317L407.327 60.9291L407.715 59.4814Z" fill="#726692"/>
<path d="M411.579 60.4004L413.244 60.8466L412.798 62.5118L411.133 62.0656L411.579 60.4004Z" fill="#726692"/>
<path d="M415.456 61.3396L417.306 61.8355L416.81 63.6864L414.96 63.1905L415.456 61.3396Z" fill="#726692"/>
<path d="M419.334 62.2837L421.363 62.8273L420.82 64.8561L418.791 64.3125L419.334 62.2837Z" fill="#726692"/>
<path d="M423.233 63.262L425.386 63.8387L424.809 65.9912L422.657 65.4145L423.233 63.262Z" fill="#726692"/>
<path d="M427.146 64.2629L429.386 64.8634L428.786 67.1043L426.545 66.5038L427.146 64.2629Z" fill="#726692"/>
<path d="M431.08 65.3022L433.348 65.9101L432.74 68.1787L430.472 67.5708L431.08 65.3022Z" fill="#726692"/>
<path d="M435.028 66.3667L437.284 66.9713L436.68 69.2277L434.423 68.6231L435.028 66.3667Z" fill="#726692"/>
<path d="M439.009 67.4873L441.165 68.0649L440.587 70.2207L438.432 69.6431L439.009 67.4873Z" fill="#726692"/>
<path d="M443.003 68.6304L445.023 69.1716L444.482 71.1915L442.462 70.6503L443.003 68.6304Z" fill="#726692"/>
<path d="M446.991 69.7637L448.891 70.2726L448.382 72.172L446.482 71.6631L446.991 69.7637Z" fill="#726692"/>
<path d="M450.979 70.8967L452.758 71.3734L452.282 73.1524L450.503 72.6757L450.979 70.8967Z" fill="#726692"/>
<path d="M454.941 71.9832L456.673 72.4474L456.209 74.18L454.477 73.7157L454.941 71.9832Z" fill="#726692"/>
<path d="M458.915 73.0911L460.566 73.5337L460.124 75.1856L458.472 74.743L458.915 73.0911Z" fill="#726692"/>
<path d="M462.84 74.1165L464.542 74.5724L464.086 76.274L462.384 75.8181L462.84 74.1165Z" fill="#726692"/>
<path d="M466.93 75.4246L468.235 75.7743L467.885 77.0794L466.58 76.7297L466.93 75.4246Z" fill="#726692"/>
<path d="M471.05 76.7859L471.875 77.0069L471.654 77.8317L470.829 77.6107L471.05 76.7859Z" fill="#726692"/>
<path d="M474.937 77.7441L475.918 78.0069L475.655 78.9874L474.674 78.7247L474.937 77.7441Z" fill="#726692"/>
<path d="M478.677 78.4465L480.216 78.859L479.804 80.3983L478.264 79.9859L478.677 78.4465Z" fill="#726692"/>
<path d="M482.496 79.2871L484.377 79.791L483.873 81.6717L481.992 81.1678L482.496 79.2871Z" fill="#726692"/>
<path d="M486.324 80.1436L488.521 80.7322L487.932 82.9288L485.736 82.3402L486.324 80.1436Z" fill="#726692"/>
<path d="M490.142 80.9805L492.685 81.662L492.004 84.2057L489.46 83.5241L490.142 80.9805Z" fill="#726692"/>
<path d="M493.954 81.8081L496.859 82.5865L496.08 85.4915L493.175 84.7131L493.954 81.8081Z" fill="#726692"/>
<path d="M497.782 82.6653L501.002 83.5281L500.139 86.7481L496.919 85.8853L497.782 82.6653Z" fill="#726692"/>
<path d="M501.704 83.6831L504.986 84.5625L504.107 87.8443L500.825 86.965L501.704 83.6831Z" fill="#726692"/>
<path d="M505.922 85.2134L508.457 85.8926L507.777 88.4274L505.243 87.7482L505.922 85.2134Z" fill="#726692"/>
<path d="M510.043 86.5779L512.093 87.1271L511.544 89.1768L509.494 88.6276L510.043 86.5779Z" fill="#726692"/>
<path d="M514.044 87.7327L515.939 88.2404L515.432 90.1355L513.537 89.6277L514.044 87.7327Z" fill="#726692"/>
<path d="M518.021 88.8464L519.827 89.3302L519.343 91.1357L517.537 90.6519L518.021 88.8464Z" fill="#726692"/>
<path d="M522.009 89.978L523.696 90.4301L523.244 92.1174L521.557 91.6653L522.009 89.978Z" fill="#726692"/>
<path d="M525.924 90.9844L527.691 91.4578L527.217 93.2248L525.45 92.7513L525.924 90.9844Z" fill="#726692"/>
<path d="M530.147 92.5251L531.151 92.7941L530.882 93.7981L529.878 93.5291L530.147 92.5251Z" fill="#726692"/>
<path d="M395.005 60.5662L395.962 60.8227L395.706 61.7801L394.748 61.5235L395.005 60.5662Z" fill="#726692"/>
<path d="M398.626 61.064L400.465 61.5567L399.973 63.3955L398.134 62.9028L398.626 61.064Z" fill="#726692"/>
<path d="M402.313 61.676L404.854 62.3567L404.173 64.8971L401.633 64.2164L402.313 61.676Z" fill="#726692"/>
<path d="M406.16 62.5627L408.969 63.3154L408.216 66.1243L405.407 65.3717L406.16 62.5627Z" fill="#726692"/>
<path d="M410.088 63.5913L412.941 64.3558L412.177 67.209L409.323 66.4445L410.088 63.5913Z" fill="#726692"/>
<path d="M414.128 64.8157L416.718 65.5094L416.024 68.0986L413.435 67.4048L414.128 64.8157Z" fill="#726692"/>
<path d="M418.182 66.0623L420.472 66.6758L419.858 68.9656L417.569 68.3521L418.182 66.0623Z" fill="#726692"/>
<path d="M422.218 67.2776L424.258 67.8243L423.711 69.8644L421.671 69.3178L422.218 67.2776Z" fill="#726692"/>
<path d="M426.197 68.3953L428.141 68.9162L427.62 70.8603L425.676 70.3393L426.197 68.3953Z" fill="#726692"/>
<path d="M430.146 69.4612L432.076 69.9783L431.559 71.908L429.629 71.3909L430.146 69.4612Z" fill="#726692"/>
<path d="M434.074 70.4893L436.049 71.0185L435.52 72.9935L433.545 72.4643L434.074 70.4893Z" fill="#726692"/>
<path d="M437.958 71.4412L440.098 72.0148L439.525 74.1555L437.384 73.5819L437.958 71.4412Z" fill="#726692"/>
<path d="M441.813 72.3445L444.196 72.9829L443.558 75.3655L441.175 74.7271L441.813 72.3445Z" fill="#726692"/>
<path d="M445.631 73.1821L448.359 73.9132L447.628 76.6416L444.9 75.9105L445.631 73.1821Z" fill="#726692"/>
<path d="M449.534 74.167L452.376 74.9285L451.614 77.7706L448.772 77.0091L449.534 74.167Z" fill="#726692"/>
<path d="M453.527 75.3086L456.235 76.0343L455.51 78.7427L452.801 78.017L453.527 75.3086Z" fill="#726692"/>
<path d="M457.597 76.5835L459.961 77.2171L459.328 79.5817L456.963 78.9481L457.597 76.5835Z" fill="#726692"/>
<path d="M461.755 78.0115L463.534 78.4881L463.058 80.2671L461.279 79.7905L461.755 78.0115Z" fill="#726692"/>
<path d="M465.91 79.4331L467.114 79.7556L466.791 80.9592L465.588 80.6367L465.91 79.4331Z" fill="#726692"/>
<path d="M469.999 80.74L470.808 80.9569L470.591 81.7662L469.782 81.5493L469.999 80.74Z" fill="#726692"/>
<path d="M473.827 81.5959L474.953 81.8977L474.651 83.0241L473.525 82.7223L473.827 81.5959Z" fill="#726692"/>
<path d="M477.579 82.3201L479.23 82.7624L478.788 84.4133L477.137 83.971L477.579 82.3201Z" fill="#726692"/>
<path d="M481.401 83.1655L483.385 83.6973L482.854 85.6818L480.869 85.1501L481.401 83.1655Z" fill="#726692"/>
<path d="M485.228 84.0183L487.534 84.6362L486.916 86.9423L484.61 86.3244L485.228 84.0183Z" fill="#726692"/>
<path d="M489.045 84.856L491.697 85.5665L490.986 88.2185L488.334 87.5079L489.045 84.856Z" fill="#726692"/>
<path d="M492.847 85.6663L495.888 86.4811L495.073 89.522L492.032 88.7072L492.847 85.6663Z" fill="#726692"/>
<path d="M496.697 86.5601L499.995 87.4439L499.111 90.7423L495.813 89.8585L496.697 86.5601Z" fill="#726692"/>
<path d="M500.685 87.6917L503.865 88.5438L503.013 91.7239L499.832 90.8718L500.685 87.6917Z" fill="#726692"/>
<path d="M504.92 89.2544L507.303 89.8927L506.664 92.275L504.282 91.6367L504.92 89.2544Z" fill="#726692"/>
<path d="M508.994 90.5347L511.023 91.0786L510.48 93.1084L508.45 92.5645L508.994 90.5347Z" fill="#726692"/>
<path d="M512.982 91.6677L514.891 92.1793L514.38 94.0887L512.47 93.5771L512.982 91.6677Z" fill="#726692"/>
<path d="M516.947 92.7612L518.799 93.2574L518.303 95.1094L516.451 94.6131L516.947 92.7612Z" fill="#726692"/>
<path d="M520.903 93.8376L522.724 94.3256L522.236 96.1465L520.415 95.6586L520.903 93.8376Z" fill="#726692"/>
<path d="M524.864 94.9238L526.639 95.3993L526.163 97.1739L524.389 96.6984L524.864 94.9238Z" fill="#726692"/>
<path d="M528.819 95.9995L530.564 96.467L530.097 98.2118L528.352 97.7443L528.819 95.9995Z" fill="#726692"/>
<path d="M532.788 97.0984L534.466 97.5482L534.016 99.2269L532.338 98.7771L532.788 97.0984Z" fill="#726692"/>
<path d="M537.178 98.9287L537.637 99.0515L537.514 99.5099L537.055 99.3871L537.178 98.9287Z" fill="#726692"/>
<path d="M390.191 63.7788L390.635 63.8978L390.516 64.3418L390.072 64.2228L390.191 63.7788Z" fill="#726692"/>
<path d="M393.451 63.6494L395.766 64.2698L395.145 66.5849L392.83 65.9646L393.451 63.6494Z" fill="#726692"/>
<path d="M397.463 64.824L399.593 65.3946L399.022 67.5243L396.892 66.9537L397.463 64.824Z" fill="#726692"/>
<path d="M401.71 66.406L403.012 66.7547L402.663 68.0559L401.362 67.7072L401.71 66.406Z" fill="#726692"/>
<path d="M405.896 67.8816L406.537 68.0533L406.365 68.6939L405.725 68.5223L405.896 67.8816Z" fill="#726692"/>
<path d="M449.392 79.6965L449.733 79.788L449.642 80.1293L449.301 80.0379L449.392 79.6965Z" fill="#726692"/>
<path d="M453.117 80.374L454.057 80.6259L453.805 81.5659L452.865 81.314L453.117 80.374Z" fill="#726692"/>
<path d="M456.74 80.8748L458.557 81.3616L458.07 83.1785L456.253 82.6917L456.74 80.8748Z" fill="#726692"/>
<path d="M460.715 81.9844L462.449 82.4489L461.984 84.1826L460.25 83.7181L460.715 81.9844Z" fill="#726692"/>
<path d="M464.898 83.4543L465.98 83.7443L465.69 84.8264L464.608 84.5364L464.898 83.4543Z" fill="#726692"/>
<path d="M468.936 84.6743L469.761 84.8953L469.54 85.7201L468.715 85.4991L468.936 84.6743Z" fill="#726692"/>
<path d="M472.707 85.4314L474.005 85.7791L473.657 87.0766L472.359 86.7289L472.707 85.4314Z" fill="#726692"/>
<path d="M476.484 86.1992L478.238 86.6691L477.768 88.4228L476.014 87.9529L476.484 86.1992Z" fill="#726692"/>
<path d="M480.315 87.0598L482.378 87.6126L481.826 89.6756L479.763 89.1228L480.315 87.0598Z" fill="#726692"/>
<path d="M484.138 87.9058L486.533 88.5477L485.891 90.9432L483.496 90.3013L484.138 87.9058Z" fill="#726692"/>
<path d="M487.94 88.7161L490.725 89.4622L489.978 92.2468L487.194 91.5006L487.94 88.7161Z" fill="#726692"/>
<path d="M491.751 89.5432L494.899 90.3865L494.055 93.5335L490.908 92.6903L491.751 89.5432Z" fill="#726692"/>
<path d="M495.619 90.4668L498.976 91.3663L498.076 94.7233L494.719 93.8238L495.619 90.4668Z" fill="#726692"/>
<path d="M499.7 91.7612L502.682 92.5604L501.883 95.5427L498.901 94.7436L499.7 91.7612Z" fill="#726692"/>
<path d="M503.913 93.2839L506.161 93.8861L505.558 96.1336L503.311 95.5314L503.913 93.2839Z" fill="#726692"/>
<path d="M507.947 94.4966L509.949 95.0331L509.413 97.0352L507.411 96.4988L507.947 94.4966Z" fill="#726692"/>
<path d="M511.924 95.6091L513.838 96.1219L513.325 98.0357L511.411 97.5229L511.924 95.6091Z" fill="#726692"/>
<path d="M515.886 96.6975L517.75 97.197L517.251 99.0611L515.387 98.5616L515.886 96.6975Z" fill="#726692"/>
<path d="M519.84 97.7715L521.677 98.2639L521.185 100.101L519.347 99.609L519.84 97.7715Z" fill="#726692"/>
<path d="M523.79 98.8379L525.612 99.3261L525.124 101.148L523.302 100.66L523.79 98.8379Z" fill="#726692"/>
<path d="M527.74 99.9053L529.546 100.389L529.062 102.195L527.256 101.711L527.74 99.9053Z" fill="#726692"/>
<path d="M531.712 101.01L533.442 101.474L532.978 103.203L531.249 102.74L531.712 101.01Z" fill="#726692"/>
<path d="M535.601 101.971L537.482 102.475L536.978 104.357L535.096 103.852L535.601 101.971Z" fill="#726692"/>
<path d="M539.88 103.608L540.846 103.867L540.587 104.833L539.621 104.574L539.88 103.608Z" fill="#726692"/>
<path d="M455.98 85.333L456.987 85.6026L456.717 86.6087L455.711 86.3391L455.98 85.333Z" fill="#726692"/>
<path d="M459.66 85.9314L461.389 86.3948L460.926 88.124L459.196 87.6607L459.66 85.9314Z" fill="#726692"/>
<path d="M463.871 87.4512L464.87 87.7189L464.603 88.7182L463.603 88.4505L463.871 87.4512Z" fill="#726692"/>
<path d="M467.851 88.5696L468.753 88.8113L468.511 89.7135L467.609 89.4717L467.851 88.5696Z" fill="#726692"/>
<path d="M471.584 89.2603L473.064 89.6567L472.667 91.1364L471.188 90.74L471.584 89.2603Z" fill="#726692"/>
<path d="M475.392 90.0818L477.243 90.5777L476.747 92.4286L474.896 91.9326L475.392 90.0818Z" fill="#726692"/>
<path d="M479.225 90.9453L481.38 91.523L480.803 93.6788L478.647 93.1011L479.225 90.9453Z" fill="#726692"/>
<path d="M483.037 91.7737L485.553 92.4479L484.879 94.9639L482.363 94.2897L483.037 91.7737Z" fill="#726692"/>
<path d="M486.833 92.5742L489.754 93.3568L488.971 96.2773L486.05 95.4947L486.833 92.5742Z" fill="#726692"/>
<path d="M490.662 93.4307L493.898 94.2979L493.031 97.5345L489.794 96.6672L490.662 93.4307Z" fill="#726692"/>
<path d="M494.55 94.3914L497.938 95.2992L497.03 98.6871L493.642 97.7793L494.55 94.3914Z" fill="#726692"/>
<path d="M498.73 95.8562L501.475 96.5917L500.739 99.3364L497.995 98.601L498.73 95.8562Z" fill="#726692"/>
<path d="M502.896 97.2976L505.035 97.8705L504.462 100.009L502.324 99.4357L502.896 97.2976Z" fill="#726692"/>
<path d="M506.896 98.4504L508.883 98.9828L508.35 100.969L506.364 100.437L506.896 98.4504Z" fill="#726692"/>
<path d="M510.873 99.5632L512.771 100.072L512.262 101.97L510.364 101.462L510.873 99.5632Z" fill="#726692"/>
<path d="M514.829 100.642L516.693 101.141L516.194 103.005L514.33 102.506L514.829 100.642Z" fill="#726692"/>
<path d="M518.778 101.706L520.63 102.203L520.134 104.054L518.282 103.558L518.778 101.706Z" fill="#726692"/>
<path d="M522.728 102.773L524.564 103.265L524.072 105.101L522.235 104.609L522.728 102.773Z" fill="#726692"/>
<path d="M526.671 103.829L528.509 104.321L528.017 106.159L526.179 105.667L526.671 103.829Z" fill="#726692"/>
<path d="M530.62 104.894L532.445 105.383L531.956 107.208L530.131 106.719L530.62 104.894Z" fill="#726692"/>
<path d="M534.577 105.972L536.368 106.452L535.888 108.243L534.097 107.763L534.577 105.972Z" fill="#726692"/>
<path d="M538.494 106.982L540.359 107.482L539.86 109.347L537.994 108.847L538.494 106.982Z" fill="#726692"/>
<path d="M542.622 108.357L543.986 108.722L543.62 110.086L542.256 109.721L542.622 108.357Z" fill="#726692"/>
<path d="M455.106 89.5945L455.612 89.73L455.477 90.2359L454.971 90.1004L455.106 89.5945Z" fill="#726692"/>
<path d="M458.419 89.5566L460.651 90.1548L460.053 92.3872L457.821 91.7891L458.419 89.5566Z" fill="#726692"/>
<path d="M462.332 90.5596L464.65 91.1806L464.029 93.4981L461.711 92.8771L462.332 90.5596Z" fill="#726692"/>
<path d="M466.369 91.7776L468.432 92.3305L467.88 94.3938L465.816 93.8409L466.369 91.7776Z" fill="#726692"/>
<path d="M470.302 92.8157L472.395 93.3765L471.834 95.4695L469.741 94.9087L470.302 92.8157Z" fill="#726692"/>
<path d="M474.231 93.8459L476.366 94.418L475.794 96.5528L473.659 95.9808L474.231 93.8459Z" fill="#726692"/>
<path d="M478.119 94.804L480.409 95.4177L479.795 97.7083L477.505 97.0945L478.119 94.804Z" fill="#726692"/>
<path d="M481.942 95.6514L484.563 96.3537L483.861 98.9747L481.24 98.2724L481.942 95.6514Z" fill="#726692"/>
<path d="M485.737 96.4512L488.764 97.2621L487.953 100.289L484.926 99.4778L485.737 96.4512Z" fill="#726692"/>
<path d="M489.576 97.325L492.891 98.2132L492.003 101.528L488.688 100.64L489.576 97.325Z" fill="#726692"/>
<path d="M493.473 98.2991L496.918 99.2223L495.995 102.668L492.549 101.745L493.473 98.2991Z" fill="#726692"/>
<path d="M497.531 99.5537L500.665 100.393L499.825 103.527L496.691 102.688L497.531 99.5537Z" fill="#726692"/>
<path d="M501.697 100.994L504.225 101.672L503.548 104.2L501.019 103.523L501.697 100.994Z" fill="#726692"/>
<path d="M505.805 102.335L507.885 102.892L507.328 104.973L505.247 104.416L505.805 102.335Z" fill="#726692"/>
<path d="M509.821 103.517L511.704 104.022L511.2 105.905L509.317 105.4L509.821 103.517Z" fill="#726692"/>
<path d="M513.776 104.593L515.629 105.09L515.133 106.943L513.28 106.446L513.776 104.593Z" fill="#726692"/>
<path d="M517.721 105.651L519.573 106.147L519.077 107.999L517.225 107.503L517.721 105.651Z" fill="#726692"/>
<path d="M521.669 106.714L523.51 107.208L523.017 109.048L521.176 108.555L521.669 106.714Z" fill="#726692"/>
<path d="M525.608 107.761L527.464 108.259L526.967 110.115L525.111 109.618L525.608 107.761Z" fill="#726692"/>
<path d="M529.552 108.818L531.409 109.316L530.911 111.172L529.055 110.675L529.552 108.818Z" fill="#726692"/>
<path d="M533.496 109.875L535.352 110.373L534.855 112.229L532.999 111.732L533.496 109.875Z" fill="#726692"/>
<path d="M537.447 110.944L539.285 111.436L538.792 113.274L536.955 112.781L537.447 110.944Z" fill="#726692"/>
<path d="M541.381 111.983L543.247 112.483L542.747 114.348L540.882 113.848L541.381 111.983Z" fill="#726692"/>
<path d="M545.417 113.198L547.033 113.631L546.6 115.247L544.984 114.814L545.417 113.198Z" fill="#726692"/>
<path d="M458.102 94.783L458.312 94.8392L458.256 95.0493L458.046 94.993L458.102 94.783Z" fill="#726692"/>
<path d="M461.327 94.5938L463.503 95.1766L462.92 97.3521L460.744 96.7692L461.327 94.5938Z" fill="#726692"/>
<path d="M465.265 95.6399L467.458 96.2274L466.87 98.4199L464.678 97.8324L465.265 95.6399Z" fill="#726692"/>
<path d="M468.999 96.332L471.766 97.0736L471.025 99.8413L468.257 99.0997L468.999 96.332Z" fill="#726692"/>
<path d="M472.8 97.1414L475.958 97.9876L475.112 101.146L471.954 100.3L472.8 97.1414Z" fill="#726692"/>
<path d="M476.72 98.1567L479.944 99.0206L479.08 102.244L475.856 101.381L476.72 98.1567Z" fill="#726692"/>
<path d="M480.693 99.2634L483.838 100.106L482.995 103.251L479.85 102.409L480.693 99.2634Z" fill="#726692"/>
<path d="M484.623 100.294L487.808 101.148L486.955 104.334L483.769 103.48L484.623 100.294Z" fill="#726692"/>
<path d="M488.51 101.253L491.85 102.148L490.955 105.489L487.615 104.594L488.51 101.253Z" fill="#726692"/>
<path d="M492.449 102.301L495.804 103.2L494.905 106.555L491.55 105.656L492.449 102.301Z" fill="#726692"/>
<path d="M496.58 103.682L499.423 104.444L498.662 107.287L495.818 106.525L496.58 103.682Z" fill="#726692"/>
<path d="M500.834 105.275L502.832 105.81L502.297 107.808L500.299 107.273L500.834 105.275Z" fill="#726692"/>
<path d="M504.512 105.871L507.237 106.601L506.507 109.326L503.782 108.596L504.512 105.871Z" fill="#726692"/>
<path d="M508.506 107.014L511.095 107.707L510.401 110.296L507.812 109.603L508.506 107.014Z" fill="#726692"/>
<path d="M512.627 108.377L514.732 108.941L514.168 111.046L512.063 110.482L512.627 108.377Z" fill="#726692"/>
<path d="M516.664 109.595L518.516 110.091L518.02 111.943L516.168 111.447L516.664 109.595Z" fill="#726692"/>
<path d="M520.608 110.652L522.46 111.148L521.964 113L520.112 112.504L520.608 110.652Z" fill="#726692"/>
<path d="M524.547 111.699L526.414 112.199L525.914 114.066L524.047 113.566L524.547 111.699Z" fill="#726692"/>
<path d="M528.491 112.755L530.359 113.256L529.858 115.123L527.991 114.623L528.491 112.755Z" fill="#726692"/>
<path d="M532.431 113.805L534.31 114.308L533.807 116.188L531.927 115.684L532.431 113.805Z" fill="#726692"/>
<path d="M536.374 114.859L538.257 115.364L537.752 117.247L535.87 116.742L536.374 114.859Z" fill="#726692"/>
<path d="M540.318 115.916L542.201 116.421L541.696 118.304L539.813 117.799L540.318 115.916Z" fill="#726692"/>
<path d="M544.248 116.948L546.17 117.463L545.655 119.386L543.732 118.87L544.248 116.948Z" fill="#726692"/>
<path d="M548.304 118.198L549.921 118.632L549.487 120.249L547.87 119.815L548.304 118.198Z" fill="#726692"/>
<path d="M456.985 98.6226L457.36 98.7231L457.259 99.0982L456.884 98.9977L456.985 98.6226Z" fill="#726692"/>
<path d="M460.529 98.9861L461.998 99.3796L461.604 100.848L460.135 100.455L460.529 98.9861Z" fill="#726692"/>
<path d="M464.582 100.231L465.754 100.545L465.44 101.717L464.267 101.403L464.582 100.231Z" fill="#726692"/>
<path d="M468.236 100.787L470.199 101.312L469.673 103.275L467.71 102.749L468.236 100.787Z" fill="#726692"/>
<path d="M471.931 101.41L474.577 102.119L473.868 104.765L471.222 104.056L471.931 101.41Z" fill="#726692"/>
<path d="M475.683 102.135L478.853 102.984L478.003 106.154L474.833 105.305L475.683 102.135Z" fill="#726692"/>
<path d="M479.533 103.029L482.959 103.947L482.041 107.373L478.615 106.455L479.533 103.029Z" fill="#726692"/>
<path d="M483.533 104.183L486.807 105.06L485.93 108.334L482.656 107.457L483.533 104.183Z" fill="#726692"/>
<path d="M487.576 105.411L490.58 106.216L489.775 109.22L486.771 108.415L487.576 105.411Z" fill="#726692"/>
<path d="M491.629 106.656L494.336 107.381L493.611 110.088L490.904 109.363L491.629 106.656Z" fill="#726692"/>
<path d="M496.307 108.983L497.01 109.172L496.821 109.874L496.119 109.686L496.307 108.983Z" fill="#726692"/>
<path d="M508.02 111.947L509.05 112.222L508.774 113.252L507.744 112.976L508.02 111.947Z" fill="#726692"/>
<path d="M511.534 112.259L513.738 112.85L513.147 115.053L510.944 114.463L511.534 112.259Z" fill="#726692"/>
<path d="M515.343 113.082L517.917 113.771L517.227 116.345L514.654 115.655L515.343 113.082Z" fill="#726692"/>
<path d="M519.467 114.45L521.549 115.008L520.991 117.089L518.909 116.532L519.467 114.45Z" fill="#726692"/>
<path d="M523.5 115.66L525.341 116.153L524.848 117.994L523.007 117.501L523.5 115.66Z" fill="#726692"/>
<path d="M527.434 116.699L529.303 117.2L528.802 119.068L526.933 118.567L527.434 116.699Z" fill="#726692"/>
<path d="M531.373 117.747L533.255 118.251L532.751 120.134L530.868 119.629L531.373 117.747Z" fill="#726692"/>
<path d="M535.316 118.803L537.2 119.308L536.696 121.191L534.812 120.687L535.316 118.803Z" fill="#726692"/>
<path d="M539.255 119.851L541.154 120.359L540.645 122.258L538.747 121.749L539.255 119.851Z" fill="#726692"/>
<path d="M543.201 120.909L545.096 121.417L544.588 123.312L542.693 122.804L543.201 120.909Z" fill="#726692"/>
<path d="M547.107 121.9L549.107 122.436L548.571 124.436L546.571 123.9L547.107 121.9Z" fill="#726692"/>
<path d="M551.286 123.363L552.644 123.727L552.28 125.086L550.922 124.722L551.286 123.363Z" fill="#726692"/>
<path d="M455.83 102.396L456.474 102.569L456.301 103.213L455.657 103.04L455.83 102.396Z" fill="#726692"/>
<path d="M459.59 103.134L460.737 103.441L460.43 104.589L459.282 104.281L459.59 103.134Z" fill="#726692"/>
<path d="M463.59 104.289L464.584 104.555L464.317 105.548L463.324 105.282L463.59 104.289Z" fill="#726692"/>
<path d="M467.271 104.89L468.984 105.348L468.525 107.06L466.813 106.602L467.271 104.89Z" fill="#726692"/>
<path d="M471.017 105.602L473.272 106.206L472.668 108.462L470.412 107.857L471.017 105.602Z" fill="#726692"/>
<path d="M474.745 106.285L477.59 107.047L476.828 109.892L473.983 109.13L474.745 106.285Z" fill="#726692"/>
<path d="M478.56 107.118L481.758 107.975L480.901 111.174L477.702 110.317L478.56 107.118Z" fill="#726692"/>
<path d="M482.639 108.409L485.468 109.167L484.71 111.996L481.881 111.238L482.639 108.409Z" fill="#726692"/>
<path d="M487.518 111.085L487.793 111.159L487.719 111.434L487.444 111.36L487.518 111.085Z" fill="#726692"/>
<path d="M514.977 118.221L515.665 118.405L515.48 119.094L514.792 118.909L514.977 118.221Z" fill="#726692"/>
<path d="M518.432 118.432L520.455 118.974L519.913 120.996L517.89 120.454L518.432 118.432Z" fill="#726692"/>
<path d="M522.219 119.216L524.671 119.873L524.014 122.325L521.562 121.668L522.219 119.216Z" fill="#726692"/>
<path d="M526.337 120.574L528.314 121.104L527.784 123.081L525.808 122.551L526.337 120.574Z" fill="#726692"/>
<path d="M530.322 121.701L532.189 122.201L531.689 124.068L529.821 123.568L530.322 121.701Z" fill="#726692"/>
<path d="M534.26 122.748L536.143 123.252L535.639 125.135L533.756 124.631L534.26 122.748Z" fill="#726692"/>
<path d="M538.194 123.787L540.105 124.299L539.593 126.21L537.682 125.698L538.194 123.787Z" fill="#726692"/>
<path d="M542.133 124.834L544.059 125.35L543.543 127.276L541.617 126.76L542.133 124.834Z" fill="#726692"/>
<path d="M546.081 125.898L547.996 126.411L547.483 128.326L545.568 127.813L546.081 125.898Z" fill="#726692"/>
<path d="M549.938 126.803L552.092 127.38L551.515 129.535L549.36 128.957L549.938 126.803Z" fill="#726692"/>
<path d="M554.365 128.696L555.2 128.92L554.976 129.755L554.141 129.531L554.365 128.696Z" fill="#726692"/>
<path d="M454.675 106.172L455.585 106.416L455.342 107.326L454.431 107.082L454.675 106.172Z" fill="#726692"/>
<path d="M458.612 107.215L459.543 107.465L459.294 108.396L458.362 108.147L458.612 107.215Z" fill="#726692"/>
<path d="M462.519 108.208L463.551 108.485L463.275 109.517L462.243 109.24L462.519 108.208Z" fill="#726692"/>
<path d="M466.242 108.881L467.879 109.32L467.441 110.957L465.804 110.518L466.242 108.881Z" fill="#726692"/>
<path d="M470.009 109.632L472.129 110.2L471.561 112.32L469.441 111.752L470.009 109.632Z" fill="#726692"/>
<path d="M473.735 110.311L476.452 111.039L475.724 113.755L473.007 113.027L473.735 110.311Z" fill="#726692"/>
<path d="M477.565 111.17L480.593 111.982L479.782 115.009L476.754 114.198L477.565 111.17Z" fill="#726692"/>
<path d="M481.91 112.92L483.844 113.439L483.326 115.373L481.392 114.855L481.91 112.92Z" fill="#726692"/>
<path d="M521.768 124.209L522.566 124.423L522.352 125.221L521.554 125.007L521.768 124.209Z" fill="#726692"/>
<path d="M525.192 124.365L527.411 124.96L526.816 127.179L524.597 126.584L525.192 124.365Z" fill="#726692"/>
<path d="M529.132 125.415L531.362 126.013L530.765 128.242L528.535 127.645L529.132 125.415Z" fill="#726692"/>
<path d="M533.208 126.699L535.079 127.201L534.578 129.072L532.706 128.571L533.208 126.699Z" fill="#726692"/>
<path d="M537.137 127.731L539.048 128.243L538.536 130.154L536.625 129.642L537.137 127.731Z" fill="#726692"/>
<path d="M541.075 128.776L543.004 129.293L542.487 131.222L540.558 130.705L541.075 128.776Z" fill="#726692"/>
<path d="M545.008 129.813L546.968 130.339L546.443 132.299L544.483 131.774L545.008 129.813Z" fill="#726692"/>
<path d="M548.963 130.89L550.892 131.407L550.375 133.336L548.446 132.819L548.963 130.89Z" fill="#726692"/>
<path d="M552.812 131.782L555.001 132.369L554.415 134.558L552.225 133.971L552.812 131.782Z" fill="#726692"/>
<path d="M557.472 134.078L557.706 134.141L557.644 134.375L557.409 134.312L557.472 134.078Z" fill="#726692"/>
<path d="M453.544 109.987L454.658 110.285L454.36 111.399L453.245 111.101L453.544 109.987Z" fill="#726692"/>
<path d="M457.607 111.249L458.397 111.461L458.185 112.25L457.395 112.039L457.607 111.249Z" fill="#726692"/>
<path d="M461.419 112.078L462.569 112.386L462.261 113.535L461.111 113.227L461.419 112.078Z" fill="#726692"/>
<path d="M465.174 112.806L466.842 113.253L466.395 114.921L464.727 114.474L465.174 112.806Z" fill="#726692"/>
<path d="M468.941 113.557L471.092 114.133L470.516 116.284L468.365 115.707L468.941 113.557Z" fill="#726692"/>
<path d="M472.661 114.225L475.424 114.966L474.684 117.729L471.921 116.988L472.661 114.225Z" fill="#726692"/>
<path d="M476.561 115.204L479.447 115.978L478.673 118.864L475.787 118.09L476.561 115.204Z" fill="#726692"/>
<path d="M481.19 117.448L482.203 117.72L481.932 118.733L480.918 118.462L481.19 117.448Z" fill="#726692"/>
<path d="M528.369 129.868L529.796 130.251L529.414 131.678L527.987 131.295L528.369 129.868Z" fill="#726692"/>
<path d="M531.966 130.324L534.341 130.961L533.705 133.335L531.33 132.699L531.966 130.324Z" fill="#726692"/>
<path d="M536.068 131.654L538.013 132.175L537.492 134.12L535.547 133.599L536.068 131.654Z" fill="#726692"/>
<path d="M540.02 132.723L541.944 133.239L541.429 135.164L539.504 134.648L540.02 132.723Z" fill="#726692"/>
<path d="M543.947 133.751L545.918 134.279L545.39 136.25L543.419 135.722L543.947 133.751Z" fill="#726692"/>
<path d="M547.879 134.788L549.882 135.324L549.345 137.327L547.343 136.79L547.879 134.788Z" fill="#726692"/>
<path d="M551.802 135.807L553.864 136.359L553.311 138.421L551.249 137.869L551.802 135.807Z" fill="#726692"/>
<path d="M555.923 137.171L557.501 137.594L557.078 139.171L555.501 138.748L555.923 137.171Z" fill="#726692"/>
<path d="M448.826 113.364L449.167 113.455L449.075 113.796L448.734 113.705L448.826 113.364Z" fill="#726692"/>
<path d="M452.499 113.95L453.582 114.241L453.291 115.324L452.208 115.034L452.499 113.95Z" fill="#726692"/>
<path d="M456.55 115.194L457.339 115.405L457.128 116.194L456.339 115.983L456.55 115.194Z" fill="#726692"/>
<path d="M460.301 115.916L461.618 116.269L461.265 117.586L459.948 117.233L460.301 115.916Z" fill="#726692"/>
<path d="M464.084 116.694L465.841 117.165L465.37 118.921L463.614 118.45L464.084 116.694Z" fill="#726692"/>
<path d="M467.852 117.445L470.091 118.045L469.491 120.284L467.252 119.684L467.852 117.445Z" fill="#726692"/>
<path d="M471.596 118.154L474.383 118.901L473.636 121.688L470.849 120.942L471.596 118.154Z" fill="#726692"/>
<path d="M475.582 119.283L478.255 119.999L477.539 122.673L474.865 121.957L475.582 119.283Z" fill="#726692"/>
<path d="M480.399 121.854L480.686 121.93L480.609 122.216L480.323 122.14L480.399 121.854Z" fill="#726692"/>
<path d="M531.521 135.326L532.226 135.516L532.037 136.221L531.331 136.032L531.521 135.326Z" fill="#726692"/>
<path d="M534.896 135.4L537.154 136.005L536.549 138.262L534.292 137.657L534.896 135.4Z" fill="#726692"/>
<path d="M538.933 136.615L540.939 137.153L540.402 139.16L538.395 138.622L538.933 136.615Z" fill="#726692"/>
<path d="M542.894 137.702L544.854 138.227L544.329 140.187L542.369 139.662L542.894 137.702Z" fill="#726692"/>
<path d="M546.817 138.722L548.835 139.263L548.294 141.28L546.276 140.74L546.817 138.722Z" fill="#726692"/>
<path d="M550.761 139.779L552.779 140.32L552.238 142.337L550.221 141.797L550.761 139.779Z" fill="#726692"/>
<path d="M554.595 140.645L556.915 141.266L556.293 143.586L553.974 142.964L554.595 140.645Z" fill="#726692"/>
<path d="M559.227 142.893L559.668 143.011L559.55 143.451L559.109 143.333L559.227 142.893Z" fill="#726692"/>
<path d="M447.661 117.122L448.297 117.292L448.126 117.928L447.491 117.757L447.661 117.122Z" fill="#726692"/>
<path d="M451.487 117.974L452.445 118.231L452.189 119.189L451.231 118.932L451.487 117.974Z" fill="#726692"/>
<path d="M455.453 119.067L456.353 119.309L456.112 120.209L455.211 119.968L455.453 119.067Z" fill="#726692"/>
<path d="M459.207 119.794L460.627 120.175L460.246 121.595L458.826 121.215L459.207 119.794Z" fill="#726692"/>
<path d="M462.978 120.552L464.87 121.059L464.363 122.951L462.471 122.444L462.978 120.552Z" fill="#726692"/>
<path d="M466.737 121.289L469.134 121.932L468.492 124.328L466.095 123.686L466.737 121.289Z" fill="#726692"/>
<path d="M470.529 122.081L473.344 122.835L472.589 125.65L469.775 124.896L470.529 122.081Z" fill="#726692"/>
<path d="M474.737 123.595L476.83 124.156L476.269 126.25L474.176 125.689L474.737 123.595Z" fill="#726692"/>
<path d="M534.54 140.556L534.885 140.649L534.793 140.994L534.447 140.902L534.54 140.556Z" fill="#726692"/>
<path d="M537.854 140.523L539.919 141.076L539.366 143.141L537.301 142.588L537.854 140.523Z" fill="#726692"/>
<path d="M541.799 141.58L543.864 142.133L543.311 144.198L541.245 143.645L541.799 141.58Z" fill="#726692"/>
<path d="M545.771 142.686L547.758 143.218L547.226 145.205L545.239 144.673L545.771 142.686Z" fill="#726692"/>
<path d="M549.697 143.711L551.735 144.257L551.189 146.294L549.151 145.748L549.697 143.711Z" fill="#726692"/>
<path d="M553.615 144.723L555.724 145.288L555.159 147.396L553.05 146.831L553.615 144.723Z" fill="#726692"/>
<path d="M557.732 146.078L559.37 146.517L558.931 148.155L557.293 147.716L557.732 146.078Z" fill="#726692"/>
<path d="M446.485 120.86L447.445 121.117L447.188 122.077L446.228 121.82L446.485 120.86Z" fill="#726692"/>
<path d="M450.477 121.999L451.308 122.221L451.085 123.052L450.254 122.83L450.477 121.999Z" fill="#726692"/>
<path d="M454.348 122.928L455.38 123.205L455.103 124.237L454.071 123.96L454.348 122.928Z" fill="#726692"/>
<path d="M458.111 123.672L459.637 124.081L459.228 125.606L457.703 125.197L458.111 123.672Z" fill="#726692"/>
<path d="M461.877 124.42L463.89 124.959L463.35 126.972L461.338 126.433L461.877 124.42Z" fill="#726692"/>
<path d="M465.616 125.121L468.19 125.811L467.5 128.385L464.926 127.695L465.616 125.121Z" fill="#726692"/>
<path d="M469.48 126.04L472.272 126.788L471.524 129.579L468.733 128.831L469.48 126.04Z" fill="#726692"/>
<path d="M473.979 128.058L475.255 128.4L474.913 129.675L473.638 129.333L473.979 128.058Z" fill="#726692"/>
<path d="M537.474 145.637L537.692 145.696L537.634 145.915L537.415 145.856L537.474 145.637Z" fill="#726692"/>
<path d="M540.776 145.583L542.747 146.111L542.219 148.083L540.248 147.555L540.776 145.583Z" fill="#726692"/>
<path d="M544.697 146.6L546.731 147.145L546.186 149.179L544.152 148.634L544.697 146.6Z" fill="#726692"/>
<path d="M548.652 147.675L550.658 148.212L550.121 150.219L548.114 149.681L548.652 147.675Z" fill="#726692"/>
<path d="M552.579 148.702L554.632 149.252L554.082 151.305L552.029 150.755L552.579 148.702Z" fill="#726692"/>
<path d="M556.404 149.553L558.782 150.19L558.145 152.568L555.767 151.931L556.404 149.553Z" fill="#726692"/>
<path d="M561.143 151.986L561.35 152.042L561.294 152.248L561.088 152.193L561.143 151.986Z" fill="#726692"/>
<path d="M445.377 124.715L446.478 125.01L446.183 126.111L445.082 125.816L445.377 124.715Z" fill="#726692"/>
<path d="M449.446 125.988L450.206 126.192L450.003 126.952L449.243 126.748L449.446 125.988Z" fill="#726692"/>
<path d="M453.239 126.782L454.413 127.097L454.098 128.27L452.925 127.956L453.239 126.782Z" fill="#726692"/>
<path d="M457.007 127.534L458.663 127.977L458.219 129.633L456.563 129.189L457.007 127.534Z" fill="#726692"/>
<path d="M460.765 128.269L462.928 128.849L462.348 131.011L460.186 130.432L460.765 128.269Z" fill="#726692"/>
<path d="M464.513 128.985L467.213 129.709L466.489 132.409L463.789 131.686L464.513 128.985Z" fill="#726692"/>
<path d="M468.456 130.04L471.16 130.764L470.435 133.468L467.731 132.744L468.456 130.04Z" fill="#726692"/>
<path d="M473.186 132.458L473.742 132.607L473.593 133.163L473.037 133.014L473.186 132.458Z" fill="#726692"/>
<path d="M540.367 150.648L540.57 150.703L540.515 150.906L540.312 150.851L540.367 150.648Z" fill="#726692"/>
<path d="M543.667 150.591L545.628 151.116L545.103 153.077L543.142 152.551L543.667 150.591Z" fill="#726692"/>
<path d="M547.596 151.622L549.598 152.158L549.062 154.16L547.06 153.624L547.596 151.622Z" fill="#726692"/>
<path d="M551.519 152.641L553.58 153.193L553.028 155.254L550.967 154.702L551.519 152.641Z" fill="#726692"/>
<path d="M555.384 153.56L557.662 154.171L557.052 156.449L554.773 155.838L555.384 153.56Z" fill="#726692"/>
<path d="M559.77 155.382L560.841 155.669L560.554 156.741L559.482 156.453L559.77 155.382Z" fill="#726692"/>
<path d="M440.618 128.021L441.058 128.139L440.94 128.58L440.5 128.461L440.618 128.021Z" fill="#726692"/>
<path d="M444.342 128.696L445.384 128.976L445.105 130.018L444.063 129.738L444.342 128.696Z" fill="#726692"/>
<path d="M448.374 129.906L449.176 130.12L448.961 130.922L448.159 130.707L448.374 129.906Z" fill="#726692"/>
<path d="M452.123 130.624L453.458 130.982L453.1 132.317L451.765 131.959L452.123 130.624Z" fill="#726692"/>
<path d="M455.886 131.368L457.715 131.858L457.225 133.687L455.396 133.197L455.886 131.368Z" fill="#726692"/>
<path d="M459.647 132.108L461.977 132.732L461.353 135.061L459.023 134.437L459.647 132.108Z" fill="#726692"/>
<path d="M463.431 132.886L466.199 133.628L465.457 136.397L462.689 135.655L463.431 132.886Z" fill="#726692"/>
<path d="M467.516 134.187L469.9 134.825L469.261 137.21L466.877 136.571L467.516 134.187Z" fill="#726692"/>
<path d="M543.224 155.598L543.508 155.674L543.432 155.958L543.148 155.882L543.224 155.598Z" fill="#726692"/>
<path d="M546.517 155.526L548.581 156.079L548.028 158.144L545.963 157.591L546.517 155.526Z" fill="#726692"/>
<path d="M550.473 156.603L552.506 157.148L551.961 159.181L549.928 158.636L550.473 156.603Z" fill="#726692"/>
<path d="M554.382 157.6L556.509 158.17L555.939 160.297L553.812 159.727L554.382 157.6Z" fill="#726692"/>
<path d="M558.406 158.795L560.315 159.307L559.804 161.216L557.894 160.705L558.406 158.795Z" fill="#726692"/>
<path d="M439.442 131.759L440.208 131.964L440.003 132.73L439.237 132.525L439.442 131.759Z" fill="#726692"/>
<path d="M443.326 132.711L444.256 132.961L444.007 133.891L443.076 133.642L443.326 132.711Z" fill="#726692"/>
<path d="M447.26 133.75L448.219 134.007L447.962 134.966L447.003 134.709L447.26 133.75Z" fill="#726692"/>
<path d="M451.007 134.467L452.503 134.868L452.102 136.363L450.607 135.962L451.007 134.467Z" fill="#726692"/>
<path d="M454.77 135.208L456.762 135.742L456.228 137.735L454.236 137.201L454.77 135.208Z" fill="#726692"/>
<path d="M458.522 135.934L461.039 136.608L460.364 139.124L457.848 138.45L458.522 135.934Z" fill="#726692"/>
<path d="M462.372 136.826L465.147 137.57L464.403 140.345L461.628 139.601L462.372 136.826Z" fill="#726692"/>
<path d="M466.726 138.593L468.381 139.037L467.938 140.692L466.283 140.248L466.726 138.593Z" fill="#726692"/>
<path d="M546.019 160.439L546.556 160.583L546.412 161.12L545.875 160.976L546.019 160.439Z" fill="#726692"/>
<path d="M549.379 160.484L551.512 161.056L550.94 163.188L548.807 162.617L549.379 160.484Z" fill="#726692"/>
<path d="M553.337 161.564L555.433 162.126L554.871 164.222L552.775 163.66L553.337 161.564Z" fill="#726692"/>
<path d="M557.152 162.397L559.601 163.053L558.944 165.502L556.496 164.846L557.152 162.397Z" fill="#726692"/>
<path d="M438.278 135.517L439.337 135.801L439.053 136.86L437.994 136.576L438.278 135.517Z" fill="#726692"/>
<path d="M442.301 136.71L443.145 136.936L442.919 137.78L442.075 137.554L442.301 136.71Z" fill="#726692"/>
<path d="M446.125 137.559L447.297 137.873L446.983 139.046L445.81 138.731L446.125 137.559Z" fill="#726692"/>
<path d="M449.894 138.313L451.544 138.755L451.102 140.405L449.452 139.963L449.894 138.313Z" fill="#726692"/>
<path d="M453.668 139.075L455.783 139.642L455.216 141.757L453.101 141.19L453.668 139.075Z" fill="#726692"/>
<path d="M457.418 139.795L460.064 140.504L459.355 143.15L456.709 142.441L457.418 139.795Z" fill="#726692"/>
<path d="M461.334 140.803L464.057 141.533L463.327 144.256L460.604 143.526L461.334 140.803Z" fill="#726692"/>
<path d="M465.942 143.01L466.852 143.254L466.608 144.163L465.698 143.92L465.942 143.01Z" fill="#726692"/>
<path d="M548.728 165.13L549.754 165.405L549.479 166.431L548.453 166.156L548.728 165.13Z" fill="#726692"/>
<path d="M552.253 165.462L554.422 166.043L553.841 168.212L551.672 167.631L552.253 165.462Z" fill="#726692"/>
<path d="M556.07 166.299L558.586 166.973L557.912 169.489L555.396 168.815L556.07 166.299Z" fill="#726692"/>
<path d="M560.75 168.63L561.256 168.766L561.121 169.272L560.615 169.136L560.75 168.63Z" fill="#726692"/>
<path d="M433.57 138.913L433.827 138.982L433.758 139.239L433.501 139.17L433.57 138.913Z" fill="#726692"/>
<path d="M437.195 139.417L438.324 139.72L438.021 140.848L436.893 140.546L437.195 139.417Z" fill="#726692"/>
<path d="M441.238 140.645L442.098 140.875L441.868 141.735L441.008 141.504L441.238 140.645Z" fill="#726692"/>
<path d="M444.994 141.375L446.368 141.744L446 143.118L444.626 142.749L444.994 141.375Z" fill="#726692"/>
<path d="M448.782 142.162L450.583 142.644L450.1 144.445L448.3 143.962L448.782 142.162Z" fill="#726692"/>
<path d="M452.567 142.944L454.802 143.542L454.203 145.777L451.969 145.178L452.567 142.944Z" fill="#726692"/>
<path d="M456.332 143.688L459.058 144.419L458.328 147.146L455.601 146.415L456.332 143.688Z" fill="#726692"/>
<path d="M460.329 144.837L462.91 145.529L462.219 148.11L459.637 147.419L460.329 144.837Z" fill="#726692"/>
<path d="M465.118 147.358L465.39 147.431L465.317 147.703L465.045 147.63L465.118 147.358Z" fill="#726692"/>
<path d="M551.381 169.727L553.045 170.172L552.599 171.836L550.936 171.39L551.381 169.727Z" fill="#726692"/>
<path d="M554.992 170.205L557.567 170.895L556.877 173.471L554.302 172.781L554.992 170.205Z" fill="#726692"/>
<path d="M559.557 172.338L560.435 172.574L560.2 173.452L559.322 173.217L559.557 172.338Z" fill="#726692"/>
<path d="M432.39 142.644L432.984 142.803L432.825 143.396L432.231 143.237L432.39 142.644Z" fill="#726692"/>
<path d="M436.166 143.408L437.221 143.691L436.938 144.746L435.883 144.463L436.166 143.408Z" fill="#726692"/>
<path d="M440.15 144.535L441.095 144.788L440.841 145.733L439.897 145.48L440.15 144.535Z" fill="#726692"/>
<path d="M443.884 145.228L445.403 145.635L444.996 147.153L443.477 146.747L443.884 145.228Z" fill="#726692"/>
<path d="M447.678 146.023L449.609 146.541L449.091 148.472L447.16 147.954L447.678 146.023Z" fill="#726692"/>
<path d="M451.445 146.775L453.858 147.422L453.211 149.834L450.799 149.187L451.445 146.775Z" fill="#726692"/>
<path d="M455.26 147.607L458.027 148.349L457.285 151.115L454.519 150.374L455.26 147.607Z" fill="#726692"/>
<path d="M459.455 149.098L461.537 149.656L460.979 151.738L458.897 151.18L459.455 149.098Z" fill="#726692"/>
<path d="M554.196 174.602L556.058 175.101L555.559 176.963L553.697 176.464L554.196 174.602Z" fill="#726692"/>
<path d="M558.662 176.562L559.099 176.679L558.982 177.116L558.544 176.999L558.662 176.562Z" fill="#726692"/>
<path d="M431.215 146.382L432.133 146.628L431.887 147.546L430.969 147.3L431.215 146.382Z" fill="#726692"/>
<path d="M435.145 147.415L436.102 147.671L435.845 148.628L434.888 148.372L435.145 147.415Z" fill="#726692"/>
<path d="M439.055 148.413L440.104 148.694L439.823 149.743L438.774 149.462L439.055 148.413Z" fill="#726692"/>
<path d="M442.784 149.097L444.421 149.536L443.983 151.173L442.346 150.734L442.784 149.097Z" fill="#726692"/>
<path d="M446.581 149.899L448.62 150.445L448.074 152.484L446.035 151.938L446.581 149.899Z" fill="#726692"/>
<path d="M450.337 150.63L452.89 151.314L452.206 153.867L449.653 153.183L450.337 150.63Z" fill="#726692"/>
<path d="M454.205 151.554L456.967 152.294L456.227 155.057L453.464 154.317L454.205 151.554Z" fill="#726692"/>
<path d="M458.669 153.512L460.01 153.872L459.651 155.212L458.31 154.853L458.669 153.512Z" fill="#726692"/>
<path d="M430.091 150.211L431.191 150.506L430.896 151.606L429.797 151.311L430.091 150.211Z" fill="#726692"/>
<path d="M434.104 151.386L435.017 151.631L434.773 152.545L433.859 152.3L434.104 151.386Z" fill="#726692"/>
<path d="M437.93 152.239L439.165 152.57L438.834 153.806L437.599 153.474L437.93 152.239Z" fill="#726692"/>
<path d="M441.684 152.966L443.44 153.436L442.969 155.193L441.213 154.722L441.684 152.966Z" fill="#726692"/>
<path d="M445.479 153.765L447.641 154.345L447.062 156.506L444.9 155.927L445.479 153.765Z" fill="#726692"/>
<path d="M449.241 154.505L451.902 155.219L451.189 157.88L448.528 157.167L449.241 154.505Z" fill="#726692"/>
<path d="M453.178 155.55L455.859 156.268L455.14 158.949L452.459 158.231L453.178 155.55Z" fill="#726692"/>
<path d="M457.864 157.892L458.518 158.067L458.343 158.721L457.689 158.546L457.864 157.892Z" fill="#726692"/>
<path d="M425.337 153.527L425.762 153.641L425.648 154.065L425.224 153.951L425.337 153.527Z" fill="#726692"/>
<path d="M429.045 154.174L430.115 154.461L429.829 155.531L428.759 155.244L429.045 154.174Z" fill="#726692"/>
<path d="M433.02 155.283L434.008 155.548L433.743 156.536L432.755 156.271L433.02 155.283Z" fill="#726692"/>
<path d="M436.821 156.093L438.199 156.462L437.829 157.84L436.452 157.47L436.821 156.093Z" fill="#726692"/>
<path d="M440.584 156.837L442.456 157.338L441.954 159.21L440.083 158.708L440.584 156.837Z" fill="#726692"/>
<path d="M444.371 157.621L446.673 158.238L446.056 160.54L443.754 159.923L444.371 157.621Z" fill="#726692"/>
<path d="M448.153 158.396L450.898 159.132L450.163 161.878L447.417 161.142L448.153 158.396Z" fill="#726692"/>
<path d="M452.205 159.639L454.657 160.296L454 162.748L451.548 162.091L452.205 159.639Z" fill="#726692"/>
<path d="M424.162 157.265L424.911 157.466L424.71 158.215L423.962 158.014L424.162 157.265Z" fill="#726692"/>
<path d="M428.029 158.188L428.989 158.445L428.732 159.406L427.771 159.148L428.029 158.188Z" fill="#726692"/>
<path d="M431.91 159.136L433.042 159.439L432.739 160.571L431.607 160.268L431.91 159.136Z" fill="#726692"/>
<path d="M435.706 159.937L437.243 160.348L436.831 161.885L435.294 161.473L435.706 159.937Z" fill="#726692"/>
<path d="M439.489 160.714L441.466 161.244L440.936 163.221L438.959 162.691L439.489 160.714Z" fill="#726692"/>
<path d="M443.258 161.467L445.714 162.125L445.056 164.582L442.6 163.923L443.258 161.467Z" fill="#726692"/>
<path d="M447.087 162.325L449.857 163.067L449.115 165.837L446.345 165.095L447.087 162.325Z" fill="#726692"/>
<path d="M451.381 163.988L453.195 164.474L452.709 166.288L450.895 165.802L451.381 163.988Z" fill="#726692"/>
<path d="M422.998 161.024L424.039 161.303L423.76 162.344L422.719 162.065L422.998 161.024Z" fill="#726692"/>
<path d="M426.994 162.171L427.894 162.412L427.653 163.311L426.753 163.07L426.994 162.171Z" fill="#726692"/>
<path d="M430.801 162.99L432.075 163.331L431.734 164.606L430.459 164.264L430.801 162.99Z" fill="#726692"/>
<path d="M434.586 163.771L436.295 164.229L435.837 165.938L434.128 165.48L434.586 163.771Z" fill="#726692"/>
<path d="M438.394 164.592L440.475 165.15L439.918 167.231L437.836 166.673L438.394 164.592Z" fill="#726692"/>
<path d="M442.154 165.331L444.738 166.023L444.045 168.606L441.462 167.914L442.154 165.331Z" fill="#726692"/>
<path d="M446.044 166.293L448.776 167.025L448.044 169.757L445.312 169.025L446.044 166.293Z" fill="#726692"/>
<path d="M450.579 168.373L451.698 168.673L451.398 169.792L450.279 169.492L450.579 168.373Z" fill="#726692"/>
<path d="M418.263 164.373L418.577 164.457L418.493 164.77L418.179 164.686L418.263 164.373Z" fill="#726692"/>
<path d="M421.931 164.951L423 165.237L422.714 166.306L421.645 166.02L421.931 164.951Z" fill="#726692"/>
<path d="M425.916 166.078L426.874 166.335L426.617 167.293L425.659 167.036L425.916 166.078Z" fill="#726692"/>
<path d="M429.703 166.863L431.089 167.235L430.718 168.621L429.332 168.249L429.703 166.863Z" fill="#726692"/>
<path d="M433.486 167.641L435.313 168.13L434.823 169.957L432.996 169.468L433.486 167.641Z" fill="#726692"/>
<path d="M437.293 168.459L439.496 169.05L438.905 171.252L436.703 170.662L437.293 168.459Z" fill="#726692"/>
<path d="M441.062 169.212L443.744 169.931L443.025 172.613L440.343 171.895L441.062 169.212Z" fill="#726692"/>
<path d="M445.023 170.299L447.659 171.005L446.952 173.64L444.317 172.934L445.023 170.299Z" fill="#726692"/>
<path d="M449.746 172.706L450.252 172.841L450.117 173.348L449.61 173.212L449.746 172.706Z" fill="#726692"/>
<path d="M417.088 168.111L417.726 168.282L417.555 168.92L416.917 168.749L417.088 168.111Z" fill="#726692"/>
<path d="M420.9 168.94L421.898 169.207L421.631 170.205L420.632 169.938L420.9 168.94Z" fill="#726692"/>
<path d="M424.806 169.931L425.908 170.226L425.613 171.328L424.511 171.033L424.806 169.931Z" fill="#726692"/>
<path d="M428.609 170.743L430.097 171.142L429.699 172.63L428.211 172.231L428.609 170.743Z" fill="#726692"/>
<path d="M432.392 171.521L434.321 172.037L433.804 173.966L431.875 173.449L432.392 171.521Z" fill="#726692"/>
<path d="M436.185 172.315L438.527 172.942L437.9 175.285L435.557 174.657L436.185 172.315Z" fill="#726692"/>
<path d="M439.979 173.113L442.73 173.85L441.993 176.601L439.242 175.864L439.979 173.113Z" fill="#726692"/>
<path d="M444.056 174.398L446.446 175.039L445.805 177.429L443.415 176.789L444.056 174.398Z" fill="#726692"/>
<path d="M415.907 171.842L416.883 172.103L416.622 173.079L415.646 172.817L415.907 171.842Z" fill="#726692"/>
<path d="M419.862 172.917L420.809 173.17L420.555 174.117L419.608 173.864L419.862 172.917Z" fill="#726692"/>
<path d="M423.708 173.803L424.923 174.129L424.598 175.345L423.382 175.019L423.708 173.803Z" fill="#726692"/>
<path d="M427.5 174.595L429.132 175.033L428.695 176.666L427.062 176.228L427.5 174.595Z" fill="#726692"/>
<path d="M431.303 175.409L433.32 175.949L432.779 177.966L430.762 177.426L431.303 175.409Z" fill="#726692"/>
<path d="M435.081 176.178L437.552 176.84L436.89 179.311L434.419 178.649L435.081 176.178Z" fill="#726692"/>
<path d="M438.92 177.054L441.677 177.792L440.938 180.549L438.182 179.81L438.92 177.054Z" fill="#726692"/>
<path d="M443.22 178.726L445.006 179.204L444.527 180.99L442.742 180.511L443.22 178.726Z" fill="#726692"/>
<path d="M411.174 175.193L411.418 175.258L411.353 175.502L411.109 175.436L411.174 175.193Z" fill="#726692"/>
<path d="M414.81 175.716L415.896 176.007L415.605 177.092L414.519 176.802L414.81 175.716Z" fill="#726692"/>
<path d="M418.791 176.836L419.777 177.1L419.513 178.086L418.527 177.822L418.791 176.836Z" fill="#726692"/>
<path d="M422.618 177.69L423.924 178.04L423.574 179.346L422.268 178.996L422.618 177.69Z" fill="#726692"/>
<path d="M426.395 178.456L428.159 178.929L427.686 180.693L425.922 180.221L426.395 178.456Z" fill="#726692"/>
<path d="M430.223 179.313L432.303 179.87L431.746 181.95L429.666 181.393L430.223 179.313Z" fill="#726692"/>
<path d="M433.989 180.061L436.557 180.749L435.869 183.317L433.301 182.628L433.989 180.061Z" fill="#726692"/>
<path d="M437.873 181.013L440.604 181.745L439.872 184.477L437.141 183.745L437.873 181.013Z" fill="#726692"/>
<path d="M442.38 183.046L443.573 183.366L443.254 184.558L442.061 184.239L442.38 183.046Z" fill="#726692"/>
<path d="M409.983 178.905L410.593 179.068L410.43 179.678L409.819 179.515L409.983 178.905Z" fill="#726692"/>
<path d="M413.774 179.697L414.802 179.972L414.527 181L413.499 180.725L413.774 179.697Z" fill="#726692"/>
<path d="M417.727 180.768L418.732 181.037L418.462 182.042L417.458 181.773L417.727 180.768Z" fill="#726692"/>
<path d="M421.505 181.538L422.963 181.929L422.573 183.387L421.115 182.996L421.505 181.538Z" fill="#726692"/>
<path d="M425.299 182.333L427.169 182.834L426.668 184.705L424.798 184.204L425.299 182.333Z" fill="#726692"/>
<path d="M429.132 183.198L431.305 183.78L430.723 185.953L428.55 185.371L429.132 183.198Z" fill="#726692"/>
<path d="M432.902 183.953L435.551 184.663L434.841 187.312L432.192 186.602L432.902 183.953Z" fill="#726692"/>
<path d="M436.84 185L439.506 185.714L438.792 188.379L436.126 187.665L436.84 185Z" fill="#726692"/>
<path d="M441.514 187.32L442.186 187.5L442.006 188.172L441.334 187.992L441.514 187.32Z" fill="#726692"/>
<path d="M408.797 182.625L409.76 182.883L409.502 183.847L408.539 183.589L408.797 182.625Z" fill="#726692"/>
<path d="M412.738 183.676L413.71 183.937L413.45 184.909L412.477 184.649L412.738 183.676Z" fill="#726692"/>
<path d="M416.644 184.666L417.721 184.955L417.432 186.033L416.355 185.744L416.644 184.666Z" fill="#726692"/>
<path d="M420.401 185.4L421.989 185.825L421.563 187.413L419.976 186.987L420.401 185.4Z" fill="#726692"/>
<path d="M424.221 186.242L426.148 186.758L425.632 188.685L423.705 188.168L424.221 186.242Z" fill="#726692"/>
<path d="M428.036 187.074L430.317 187.685L429.705 189.966L427.424 189.355L428.036 187.074Z" fill="#726692"/>
<path d="M431.827 187.866L434.526 188.589L433.803 191.288L431.103 190.565L431.827 187.866Z" fill="#726692"/>
<path d="M435.825 189.016L438.377 189.7L437.693 192.251L435.142 191.568L435.825 189.016Z" fill="#726692"/>
<path d="M440.625 191.555L440.838 191.613L440.781 191.826L440.568 191.769L440.625 191.555Z" fill="#726692"/>
<path d="M404.045 185.943L404.328 186.019L404.252 186.303L403.969 186.227L404.045 185.943Z" fill="#726692"/>
<path d="M407.687 186.476L408.796 186.774L408.499 187.884L407.389 187.586L407.687 186.476Z" fill="#726692"/>
<path d="M411.691 187.638L412.635 187.891L412.382 188.835L411.439 188.582L411.691 187.638Z" fill="#726692"/>
<path d="M415.535 188.521L416.753 188.848L416.427 190.066L415.209 189.74L415.535 188.521Z" fill="#726692"/>
<path d="M419.316 189.295L420.981 189.741L420.535 191.406L418.87 190.96L419.316 189.295Z" fill="#726692"/>
<path d="M423.136 190.136L425.141 190.673L424.603 192.678L422.599 192.141L423.136 190.136Z" fill="#726692"/>
<path d="M426.944 190.958L429.32 191.595L428.684 193.971L426.308 193.334L426.944 190.958Z" fill="#726692"/>
<path d="M430.762 191.797L433.482 192.525L432.753 195.245L430.033 194.517L430.762 191.797Z" fill="#726692"/>
<path d="M434.891 193.173L437.107 193.767L436.513 195.982L434.297 195.389L434.891 193.173Z" fill="#726692"/>
<path d="M402.838 189.628L403.531 189.814L403.345 190.507L402.652 190.321L402.838 189.628Z" fill="#726692"/>
<path d="M406.638 190.435L407.725 190.726L407.434 191.813L406.347 191.522L406.638 190.435Z" fill="#726692"/>
<path d="M410.64 191.592L411.569 191.841L411.32 192.77L410.391 192.521L410.64 191.592Z" fill="#726692"/>
<path d="M414.422 192.367L415.795 192.735L415.427 194.108L414.054 193.74L414.422 192.367Z" fill="#726692"/>
<path d="M418.222 193.174L419.989 193.648L419.516 195.415L417.748 194.942L418.222 193.174Z" fill="#726692"/>
<path d="M422.058 194.043L424.121 194.596L423.568 196.66L421.505 196.107L422.058 194.043Z" fill="#726692"/>
<path d="M425.852 194.841L428.324 195.504L427.662 197.976L425.19 197.313L425.852 194.841Z" fill="#726692"/>
<path d="M429.709 195.747L432.42 196.473L431.694 199.184L428.983 198.458L429.709 195.747Z" fill="#726692"/>
<path d="M434.014 197.428L435.739 197.89L435.277 199.616L433.551 199.154L434.014 197.428Z" fill="#726692"/>
<path d="M401.648 193.341L402.706 193.624L402.422 194.682L401.365 194.399L401.648 193.341Z" fill="#726692"/>
<path d="M405.603 194.417L406.63 194.693L406.355 195.719L405.328 195.444L405.603 194.417Z" fill="#726692"/>
<path d="M409.546 195.472L410.577 195.748L410.301 196.779L409.27 196.503L409.546 195.472Z" fill="#726692"/>
<path d="M413.327 196.247L414.803 196.642L414.407 198.118L412.932 197.722L413.327 196.247Z" fill="#726692"/>
<path d="M417.133 197.063L418.988 197.56L418.491 199.415L416.636 198.918L417.133 197.063Z" fill="#726692"/>
<path d="M420.972 197.938L423.114 198.512L422.54 200.654L420.398 200.08L420.972 197.938Z" fill="#726692"/>
<path d="M424.762 198.728L427.325 199.415L426.638 201.977L424.076 201.29L424.762 198.728Z" fill="#726692"/>
<path d="M428.656 199.698L431.356 200.421L430.633 203.121L427.933 202.398L428.656 199.698Z" fill="#726692"/>
<path d="M433.12 201.655L434.4 201.998L434.057 203.278L432.777 202.935L433.12 201.655Z" fill="#726692"/>
<path d="M396.873 196.619L397.313 196.737L397.195 197.178L396.754 197.06L396.873 196.619Z" fill="#726692"/>
<path d="M400.559 197.23L401.703 197.537L401.397 198.681L400.253 198.375L400.559 197.23Z" fill="#726692"/>
<path d="M404.571 198.405L405.529 198.662L405.273 199.62L404.315 199.363L404.571 198.405Z" fill="#726692"/>
<path d="M408.421 199.298L409.638 199.624L409.312 200.841L408.095 200.515L408.421 199.298Z" fill="#726692"/>
<path d="M412.233 200.126L413.811 200.549L413.388 202.126L411.811 201.704L412.233 200.126Z" fill="#726692"/>
<path d="M416.043 200.95L417.988 201.471L417.467 203.416L415.522 202.895L416.043 200.95Z" fill="#726692"/>
<path d="M419.881 201.823L422.115 202.422L421.517 204.657L419.282 204.058L419.881 201.823Z" fill="#726692"/>
<path d="M423.675 202.62L426.32 203.329L425.611 205.974L422.966 205.265L423.675 202.62Z" fill="#726692"/>
<path d="M427.608 203.657L430.283 204.374L429.567 207.05L426.891 206.333L427.608 203.657Z" fill="#726692"/>
<path d="M432.225 205.88L433.062 206.104L432.838 206.941L432.001 206.717L432.225 205.88Z" fill="#726692"/>
<path d="M395.651 200.279L396.541 200.517L396.303 201.408L395.412 201.169L395.651 200.279Z" fill="#726692"/>
<path d="M399.508 201.184L400.637 201.487L400.335 202.615L399.206 202.313L399.508 201.184Z" fill="#726692"/>
<path d="M403.514 202.349L404.473 202.606L404.216 203.565L403.257 203.308L403.514 202.349Z" fill="#726692"/>
<path d="M407.306 203.142L408.681 203.51L408.313 204.885L406.938 204.517L407.306 203.142Z" fill="#726692"/>
<path d="M411.144 204.014L412.81 204.46L412.364 206.127L410.697 205.681L411.144 204.014Z" fill="#726692"/>
<path d="M414.959 204.847L416.978 205.388L416.437 207.408L414.418 206.867L414.959 204.847Z" fill="#726692"/>
<path d="M418.785 205.699L421.127 206.327L420.499 208.669L418.158 208.041L418.785 205.699Z" fill="#726692"/>
<path d="M422.594 206.521L425.306 207.248L424.579 209.961L421.867 209.234L422.594 206.521Z" fill="#726692"/>
<path d="M426.572 207.637L429.192 208.339L428.49 210.959L425.87 210.257L426.572 207.637Z" fill="#726692"/>
<path d="M431.306 210.062L431.768 210.186L431.644 210.648L431.182 210.524L431.306 210.062Z" fill="#726692"/>
<path d="M390.891 203.583L391.124 203.645L391.061 203.878L390.829 203.815L390.891 203.583Z" fill="#726692"/>
<path d="M394.498 204.056L395.652 204.365L395.342 205.519L394.188 205.21L394.498 204.056Z" fill="#726692"/>
<path d="M398.477 205.173L399.535 205.457L399.252 206.515L398.193 206.232L398.477 205.173Z" fill="#726692"/>
<path d="M402.419 206.227L403.483 206.512L403.198 207.575L402.135 207.29L402.419 206.227Z" fill="#726692"/>
<path d="M406.217 207.03L407.681 207.422L407.289 208.886L405.825 208.494L406.217 207.03Z" fill="#726692"/>
<path d="M410.052 207.897L411.815 208.369L411.342 210.132L409.579 209.66L410.052 207.897Z" fill="#726692"/>
<path d="M413.875 208.744L415.969 209.305L415.408 211.399L413.313 210.838L413.875 208.744Z" fill="#726692"/>
<path d="M417.7 209.595L420.119 210.243L419.471 212.662L417.052 212.014L417.7 209.595Z" fill="#726692"/>
<path d="M421.519 210.435L424.28 211.175L423.54 213.936L420.779 213.196L421.519 210.435Z" fill="#726692"/>
<path d="M425.552 211.646L428.07 212.32L427.395 214.839L424.877 214.164L425.552 211.646Z" fill="#726692"/>
<path d="M389.666 207.235L390.359 207.421L390.173 208.114L389.48 207.928L389.666 207.235Z" fill="#726692"/>
<path d="M393.43 207.982L394.613 208.299L394.296 209.481L393.113 209.165L393.43 207.982Z" fill="#726692"/>
<path d="M397.452 209.172L398.424 209.432L398.164 210.405L397.191 210.144L397.452 209.172Z" fill="#726692"/>
<path d="M401.301 210.064L402.533 210.394L402.203 211.627L400.971 211.296L401.301 210.064Z" fill="#726692"/>
<path d="M405.129 210.92L406.678 211.335L406.263 212.884L404.714 212.469L405.129 210.92Z" fill="#726692"/>
<path d="M408.96 211.781L410.818 212.279L410.32 214.137L408.462 213.639L408.96 211.781Z" fill="#726692"/>
<path d="M412.785 212.632L414.968 213.217L414.383 215.399L412.2 214.815L412.785 212.632Z" fill="#726692"/>
<path d="M416.608 213.479L419.122 214.152L418.449 216.666L415.935 215.993L416.608 213.479Z" fill="#726692"/>
<path d="M420.453 214.364L423.238 215.11L422.492 217.895L419.707 217.149L420.453 214.364Z" fill="#726692"/>
<path d="M424.618 215.802L426.801 216.387L426.216 218.57L424.033 217.985L424.618 215.802Z" fill="#726692"/>
<path d="M388.453 210.91L389.572 211.21L389.272 212.328L388.153 212.028L388.453 210.91Z" fill="#726692"/>
<path d="M392.374 211.926L393.556 212.243L393.239 213.426L392.057 213.109L392.374 211.926Z" fill="#726692"/>
<path d="M396.388 213.104L397.379 213.37L397.113 214.361L396.122 214.095L396.388 213.104Z" fill="#726692"/>
<path d="M400.187 213.908L401.576 214.281L401.204 215.67L399.814 215.298L400.187 213.908Z" fill="#726692"/>
<path d="M404.023 214.78L405.705 215.231L405.254 216.912L403.573 216.462L404.023 214.78Z" fill="#726692"/>
<path d="M407.85 215.632L409.855 216.169L409.317 218.174L407.312 217.637L407.85 215.632Z" fill="#726692"/>
<path d="M411.699 216.525L413.963 217.131L413.356 219.395L411.093 218.788L411.699 216.525Z" fill="#726692"/>
<path d="M415.514 217.359L418.13 218.059L417.429 220.675L414.813 219.974L415.514 217.359Z" fill="#726692"/>
<path d="M419.394 218.303L422.186 219.051L421.438 221.844L418.645 221.096L419.394 218.303Z" fill="#726692"/>
<path d="M423.712 220.009L425.481 220.483L425.007 222.252L423.238 221.778L423.712 220.009Z" fill="#726692"/>
<path d="M383.761 214.332L384.035 214.406L383.962 214.68L383.687 214.607L383.761 214.332Z" fill="#726692"/>
<path d="M387.324 214.73L388.639 215.082L388.286 216.396L386.972 216.044L387.324 214.73Z" fill="#726692"/>
<path d="M391.305 215.85L392.52 216.175L392.194 217.39L390.98 217.064L391.305 215.85Z" fill="#726692"/>
<path d="M395.258 216.923L396.448 217.242L396.129 218.431L394.94 218.112L395.258 216.923Z" fill="#726692"/>
<path d="M399.072 217.752L400.619 218.167L400.205 219.715L398.657 219.3L399.072 217.752Z" fill="#726692"/>
<path d="M402.908 218.623L404.75 219.116L404.256 220.958L402.415 220.465L402.908 218.623Z" fill="#726692"/>
<path d="M406.737 219.479L408.894 220.058L408.316 222.215L406.159 221.637L406.737 219.479Z" fill="#726692"/>
<path d="M410.607 220.408L412.966 221.04L412.334 223.4L409.975 222.768L410.607 220.408Z" fill="#726692"/>
<path d="M414.422 221.242L417.134 221.968L416.407 224.68L413.696 223.953L414.422 221.242Z" fill="#726692"/>
<path d="M418.341 222.255L421.122 223L420.377 225.781L417.596 225.036L418.341 222.255Z" fill="#726692"/>
<path d="M422.813 224.225L424.153 224.584L423.794 225.924L422.454 225.565L422.813 224.225Z" fill="#726692"/>
<path d="M382.664 218.207L383.048 218.31L382.945 218.694L382.561 218.591L382.664 218.207Z" fill="#726692"/>
<path d="M386.183 218.528L387.728 218.942L387.314 220.487L385.769 220.073L386.183 218.528Z" fill="#726692"/>
<path d="M390.154 219.631L391.626 220.025L391.232 221.498L389.759 221.103L390.154 219.631Z" fill="#726692"/>
<path d="M394.075 220.648L395.609 221.059L395.198 222.594L393.664 222.182L394.075 220.648Z" fill="#726692"/>
<path d="M397.944 221.574L399.685 222.04L399.218 223.781L397.477 223.315L397.944 221.574Z" fill="#726692"/>
<path d="M401.784 222.451L403.809 222.993L403.266 225.018L401.242 224.476L401.784 222.451Z" fill="#726692"/>
<path d="M405.629 223.336L407.925 223.951L407.31 226.247L405.014 225.632L405.629 223.336Z" fill="#726692"/>
<path d="M409.491 224.25L412.012 224.926L411.336 227.446L408.816 226.771L409.491 224.25Z" fill="#726692"/>
<path d="M413.324 225.115L416.148 225.872L415.391 228.696L412.568 227.939L413.324 225.115Z" fill="#726692"/>
<path d="M417.291 226.21L420.054 226.951L419.313 229.713L416.551 228.973L417.291 226.21Z" fill="#726692"/>
<path d="M421.914 228.443L422.822 228.687L422.578 229.594L421.671 229.351L421.914 228.443Z" fill="#726692"/>
<path d="M385.13 222.479L386.664 222.89L386.253 224.424L384.719 224.013L385.13 222.479Z" fill="#726692"/>
<path d="M388.924 223.275L390.869 223.796L390.348 225.742L388.403 225.22L388.924 223.275Z" fill="#726692"/>
<path d="M392.862 224.321L394.825 224.847L394.299 226.81L392.336 226.284L392.862 224.321Z" fill="#726692"/>
<path d="M396.761 225.301L398.846 225.859L398.287 227.943L396.203 227.385L396.761 225.301Z" fill="#726692"/>
<path d="M400.617 226.204L402.943 226.827L402.32 229.154L399.994 228.53L400.617 226.204Z" fill="#726692"/>
<path d="M404.493 227.143L407.006 227.816L406.333 230.329L403.82 229.655L404.493 227.143Z" fill="#726692"/>
<path d="M408.348 228.046L411.104 228.784L410.365 231.54L407.61 230.801L408.348 228.046Z" fill="#726692"/>
<path d="M412.233 229L415.15 229.782L414.368 232.698L411.452 231.917L412.233 229Z" fill="#726692"/>
<path d="M416.26 230.2L418.951 230.921L418.23 233.612L415.539 232.891L416.26 230.2Z" fill="#726692"/>
<path d="M421.036 232.698L421.455 232.81L421.343 233.229L420.924 233.116L421.036 232.698Z" fill="#726692"/>
<path d="M384.554 227.255L384.776 227.314L384.716 227.536L384.494 227.477L384.554 227.255Z" fill="#726692"/>
<path d="M387.96 227.381L389.65 227.834L389.198 229.524L387.508 229.071L387.96 227.381Z" fill="#726692"/>
<path d="M391.634 227.968L394.065 228.62L393.413 231.05L390.982 230.399L391.634 227.968Z" fill="#726692"/>
<path d="M395.522 228.929L398.105 229.621L397.413 232.203L394.831 231.511L395.522 228.929Z" fill="#726692"/>
<path d="M399.408 229.885L402.15 230.619L401.415 233.362L398.673 232.627L399.408 229.885Z" fill="#726692"/>
<path d="M403.315 230.878L406.158 231.639L405.396 234.482L402.554 233.72L403.315 230.878Z" fill="#726692"/>
<path d="M407.221 231.867L410.17 232.657L409.38 235.607L406.43 234.816L407.221 231.867Z" fill="#726692"/>
<path d="M411.205 232.993L414.045 233.754L413.284 236.594L410.444 235.833L411.205 232.993Z" fill="#726692"/>
<path d="M415.479 234.621L417.418 235.141L416.898 237.08L414.959 236.56L415.479 234.621Z" fill="#726692"/>
<path d="M391.239 233.06L391.859 233.226L391.693 233.847L391.073 233.681L391.239 233.06Z" fill="#726692"/>
<path d="M394.859 233.554L396.367 233.959L395.963 235.467L394.455 235.062L394.859 233.554Z" fill="#726692"/>
<path d="M398.567 234.203L400.719 234.78L400.142 236.931L397.991 236.355L398.567 234.203Z" fill="#726692"/>
<path d="M402.402 235.071L404.852 235.727L404.196 238.177L401.746 237.521L402.402 235.071Z" fill="#726692"/>
<path d="M406.409 236.237L408.688 236.847L408.077 239.125L405.799 238.515L406.409 236.237Z" fill="#726692"/>
<path d="M410.643 237.794L412.132 238.193L411.733 239.682L410.244 239.283L410.643 237.794Z" fill="#726692"/>
</g>
<path d="M283 227.693H321V245.693H359V279.693H194V227.693H232V187.693H283V227.693Z" fill="#726692"/>
<defs>
<clipPath id="clip0_621_8138">
<rect width="245" height="245" fill="white" transform="translate(380.041) rotate(15)"/>
</clipPath>
</defs>
</svg>
