<svg width="20" height="20" viewBox="0 0 20 20" fill="none" xmlns="http://www.w3.org/2000/svg">
<path d="M5.76657 17.0825C4.50072 17.0825 3.73579 16.2612 3.68164 15.1172C3.68164 13.8218 4.46162 12.7081 5.80754 12.2278C6.88107 11.8447 8.31463 12.7364 9.99967 12.7244C11.6824 12.7404 13.1153 11.8499 14.189 12.2309C15.5426 12.7113 16.3252 13.8236 16.3177 15.1172C16.2567 16.2612 15.4962 17.0825 14.2327 17.0825H5.76657Z" stroke="#150049" stroke-opacity="0.6" stroke-width="1.25" stroke-miterlimit="10"/>
<path d="M10.0059 9.69033C11.8764 9.69033 13.3928 8.17404 13.3928 6.30356C13.3928 4.43307 11.8764 2.91675 10.0059 2.91675C8.13547 2.91675 6.61914 4.43307 6.61914 6.30356C6.61914 8.17404 8.13547 9.69033 10.0059 9.69033Z" stroke="#150049" stroke-opacity="0.6" stroke-width="1.25" stroke-miterlimit="10"/>
</svg>
