<svg width="20" height="20" viewBox="0 0 20 20" fill="none" xmlns="http://www.w3.org/2000/svg">
<path d="M13.3867 2.44922C16.0036 2.44929 18.1249 4.57061 18.125 7.1875V12.8125C18.1249 15.4293 16.0036 17.5507 13.3867 17.5508H6.61328C3.99634 17.5508 1.87514 15.4294 1.875 12.8125V7.1875C1.87512 4.57057 3.99633 2.44922 6.61328 2.44922H13.3867ZM6.61328 3.69922C4.68669 3.69922 3.12512 5.26092 3.125 7.1875V12.8125C3.12514 14.739 4.6867 16.3008 6.61328 16.3008H13.3867C15.3132 16.3007 16.8749 14.739 16.875 12.8125V12.6309H13.8721C12.6129 12.6309 11.5938 11.6105 11.5938 10.3525V9.44043C11.5938 8.18254 12.6129 7.16211 13.8721 7.16211H16.874C16.8603 5.24727 15.3048 3.69929 13.3867 3.69922H6.61328ZM13.8721 8.41211C13.3037 8.41211 12.8438 8.87252 12.8438 9.44043V10.3525C12.8438 10.9205 13.3037 11.3809 13.8721 11.3809H16.875V8.41211H13.8721ZM14.1631 9.22363C14.5082 9.22363 14.7879 9.50366 14.7881 9.84863C14.7881 10.1938 14.5083 10.4736 14.1631 10.4736H14.1611C13.816 10.4736 13.5361 10.1938 13.5361 9.84863C13.5364 9.50366 13.8161 9.22363 14.1611 9.22363H14.1631Z" fill="#150049" fill-opacity="0.6"/>
</svg>
