<svg width="16" height="16" viewBox="0 0 16 16" fill="none" xmlns="http://www.w3.org/2000/svg">
<path d="M8.16699 1.5C11.7569 1.5002 14.667 4.41004 14.667 8C14.667 11.5899 11.7569 14.4998 8.16699 14.5C4.57691 14.5 1.66699 11.5901 1.66699 8C1.66699 4.40991 4.57691 1.5 8.16699 1.5ZM6.44238 8.5C6.48702 9.90939 6.71677 11.1579 7.05566 12.0684C7.24556 12.5785 7.45945 12.9568 7.67188 13.1982C7.88427 13.4396 8.05238 13.4986 8.16504 13.499H8.16602C8.27859 13.499 8.44701 13.4404 8.66016 13.1982C8.87269 12.9568 9.08741 12.5786 9.27734 12.0684C9.61622 11.1579 9.84599 9.90935 9.89062 8.5H6.44238ZM10.8896 8.5C10.8448 10.0054 10.6011 11.3765 10.2139 12.417C10.1032 12.7143 9.97799 12.9912 9.83887 13.2402C11.9063 12.5811 13.4423 10.7336 13.6436 8.5H10.8896ZM2.69043 8.5C2.89164 10.7328 4.42592 12.5795 6.49219 13.2393C6.35338 12.9906 6.2286 12.7137 6.11816 12.417C5.73093 11.3765 5.48721 10.0053 5.44238 8.5H2.69043ZM6.49219 2.75977C4.42578 3.4194 2.89165 5.26712 2.69043 7.5H5.44238C5.48721 5.99467 5.73093 4.62352 6.11816 3.58301C6.22871 3.28601 6.35321 3.00862 6.49219 2.75977ZM8.16504 2.5C8.05238 2.50045 7.88427 2.56042 7.67188 2.80176C7.45945 3.04321 7.24556 3.42145 7.05566 3.93164C6.71677 4.84214 6.48702 6.09061 6.44238 7.5H9.89062C9.84599 6.09065 9.61622 4.84213 9.27734 3.93164C9.08741 3.42133 8.87269 3.04321 8.66016 2.80176C8.44701 2.55963 8.27859 2.5 8.16602 2.5H8.16504ZM9.83887 2.75879C9.97816 3.008 10.1031 3.28546 10.2139 3.58301C10.6011 4.62354 10.8448 5.99459 10.8896 7.5H13.6436C13.4423 5.26627 11.9064 3.4178 9.83887 2.75879Z" fill="#150049" fill-opacity="0.4"/>
</svg>
