<svg width="16" height="16" viewBox="0 0 16 16" fill="none" xmlns="http://www.w3.org/2000/svg">
<path d="M12.1289 2.33667C12.3113 2.12947 12.6277 2.10946 12.835 2.29175C13.0419 2.47417 13.062 2.78963 12.8799 2.99683L9.48145 6.85522L13.2559 12.4197C13.598 12.924 13.2371 13.605 12.6279 13.6052H10.1973C9.81643 13.6052 9.45989 13.4166 9.24609 13.1013L6.95508 9.72339L3.4873 13.6638C3.30481 13.8707 2.98936 13.891 2.78223 13.7087C2.57521 13.5264 2.55532 13.2109 2.7373 13.0037L6.37598 8.8689L2.80371 3.60229C2.46175 3.09803 2.82245 2.41698 3.43164 2.41675H5.8623C6.24316 2.41675 6.59966 2.60546 6.81348 2.92065L8.90234 6.00073L12.1289 2.33667ZM10.0732 12.5398V12.5408C10.1009 12.5814 10.148 12.6052 10.1973 12.6052H12.1738L5.98633 3.48218C5.95863 3.44133 5.91168 3.41675 5.8623 3.41675H3.88477L10.0732 12.5398Z" fill="#150049" fill-opacity="0.4"/>
</svg>
